<svg width="1081" height="413" viewBox="0 0 1081 413" fill="none" xmlns="http://www.w3.org/2000/svg">
<path d="M2 407.922C2 407.922 44.6816 417.923 60.2723 401.154C69.9535 390.741 80.1875 376.501 73.6902 363.859C69.7166 356.127 62.2794 353.537 54.3096 357.024C46.4801 360.449 43.8777 367.752 45.1683 376.192C49.4374 404.11 97.946 399.259 120.984 391.949C158.658 379.995 152.424 302.335 205.547 298.816C229.529 297.227 260.351 318.736 255.614 342.274C254.186 349.367 250.769 355.611 243.665 357.024C235.608 358.626 230.108 351.976 227.477 344.202C220.199 322.69 249.531 302.573 271.95 298.816C312.334 292.047 337.337 339.986 374.13 322.911C406.851 307.726 417.495 249 417.495 249" stroke="#FFA500" stroke-width="3.08345" stroke-linecap="round"/>
<path d="M663.471 160.922C663.471 160.922 706.152 170.923 721.743 154.154C731.424 143.741 741.658 129.501 735.161 116.859C731.187 109.127 723.75 106.537 715.78 110.024C707.951 113.449 705.348 120.752 706.639 129.192C710.908 157.11 759.417 152.259 782.455 144.949C820.128 132.995 813.895 55.3351 867.017 51.8155C891 50.2266 921.822 71.7365 917.085 95.2744C915.657 102.367 912.239 108.611 905.136 110.024C897.079 111.626 891.578 104.976 888.948 97.2016C881.67 75.6896 911.002 55.5729 933.421 51.8155C973.805 45.0471 998.807 92.986 1035.6 75.9111C1068.32 60.7255 1078.97 2 1078.97 2" stroke="#FFA500" stroke-width="3.08345" stroke-linecap="round"/>
</svg>
