<svg width="70" height="70" viewBox="0 0 70 70" fill="none" xmlns="http://www.w3.org/2000/svg">
<path d="M35.0005 33.1982C35.8076 33.1982 36.4618 32.5439 36.4618 31.7368C36.4618 30.9297 35.8076 30.2754 35.0005 30.2754C34.1933 30.2754 33.5391 30.9297 33.5391 31.7368C33.5391 32.5439 34.1933 33.1982 35.0005 33.1982Z" fill="#7788B4"/>
<path d="M35.0005 38.1172C35.8076 38.1172 36.4618 37.4629 36.4618 36.6558C36.4618 35.8487 35.8076 35.1945 35.0005 35.1945C34.1933 35.1945 33.5391 35.8487 33.5391 36.6558C33.5391 37.4629 34.1933 38.1172 35.0005 38.1172Z" fill="#7788B4"/>
<path d="M57.9091 15.3549C58.7117 14.2267 59.1858 12.8492 59.1858 11.3623V6.90498C59.1858 3.0975 56.0883 0 52.2808 0H51.3309C47.5234 0 44.4259 3.0975 44.4259 6.90498V11.3621C44.4259 12.8446 44.8971 14.2181 45.6952 15.3444H41.1105C41.9087 14.2181 42.3799 12.8446 42.3799 11.3621V6.90498C42.3799 3.0975 39.2824 0 35.4749 0H34.525C30.7175 0 27.62 3.0975 27.62 6.90498V11.3621C27.62 12.8446 28.0913 14.2181 28.8897 15.3444H24.305C25.103 14.2181 25.5742 12.8446 25.5742 11.3621V6.90498C25.574 3.0975 22.4765 0 18.6691 0H17.7191C13.9117 0 10.8142 3.0975 10.8142 6.90498V11.3621C10.8142 12.8491 11.2882 14.2265 12.0908 15.3547C6.95883 15.5697 2.84961 19.7918 2.84961 24.9529V39.2014C2.84961 42.1627 5.26803 44.572 8.24098 44.572C8.27092 44.572 8.30031 44.5694 8.32984 44.5674V65.1287C8.32984 67.8147 10.515 69.9999 13.201 69.9999H14.7841C16.1104 69.9999 17.3146 69.4671 18.1938 68.6042C19.0732 69.4671 20.2774 69.9999 21.6036 69.9999H23.1867C24.5132 69.9999 25.7157 69.4647 26.5951 68.6015C27.4746 69.4656 28.6791 69.9999 30.0065 69.9999H31.5895C32.9158 69.9999 34.1201 69.4671 34.9993 68.6042C35.8787 69.4671 37.0829 69.9999 38.4092 69.9999H39.9924C41.3198 69.9999 42.5244 69.4656 43.4038 68.6015C44.2829 69.4647 45.4854 69.9999 46.8121 69.9999H48.3953C49.7214 69.9999 50.9258 69.4671 51.805 68.6042C52.6844 69.4671 53.8886 69.9999 55.2149 69.9999H56.7981C59.4841 69.9999 61.6693 67.8147 61.6693 65.1287V44.5674C61.6988 44.5692 61.7282 44.572 61.7582 44.572C64.7308 44.572 67.1495 42.1627 67.1495 39.2014V24.9531C67.1504 19.7918 63.0411 15.5698 57.9091 15.3549ZM47.3487 6.90498C47.3487 4.70914 49.1352 2.92277 51.3309 2.92277H52.2808C54.4765 2.92277 56.263 4.70914 56.263 6.90498V11.3621C56.263 13.558 54.4765 15.3444 52.2808 15.3444H51.3309C49.1352 15.3444 47.3487 13.558 47.3487 11.3621V6.90498ZM30.5428 6.90498C30.5428 4.70914 32.3292 2.92277 34.525 2.92277H35.4749C37.6706 2.92277 39.4571 4.70914 39.4571 6.90498V11.3621C39.4571 13.558 37.6706 15.3444 35.4749 15.3444H34.525C32.3292 15.3444 30.5428 13.558 30.5428 11.3621V6.90498ZM38.3798 18.2673L35 23.8133L31.6202 18.2673H38.3798ZM13.7369 6.90498C13.7369 4.70914 15.5233 2.92277 17.7191 2.92277H18.6691C20.8649 2.92277 22.6513 4.70914 22.6513 6.90498V11.3621C22.6513 13.558 20.8649 15.3444 18.6691 15.3444H17.7191C15.5233 15.3444 13.7369 13.558 13.7369 11.3621V6.90498ZM9.79123 28.4238C8.98404 28.4238 8.32984 29.078 8.32984 29.8852V29.8856V41.6537C8.30031 41.6519 8.27092 41.6492 8.24098 41.6492C6.8798 41.6492 5.77238 40.5511 5.77238 39.2014V24.9529C5.77238 21.2663 8.791 18.2671 12.5013 18.2671H22.3839C20.6966 19.9979 19.6556 22.3563 19.6556 24.9529V39.2014C19.6556 39.6744 19.718 40.1331 19.8338 40.5705L18.1971 41.3993L11.2525 37.8674V29.8858V29.8852C11.2526 29.078 10.5983 28.4238 9.79123 28.4238ZM25.1357 65.1287C25.1357 66.2033 24.2617 67.0774 23.1872 67.0774H21.6041C20.5298 67.0774 19.6556 66.2033 19.6556 65.1288V49.0658C19.6556 48.2586 19.0014 47.6044 18.1942 47.6044C17.3872 47.6044 16.7329 48.2586 16.7329 49.0658V65.1288C16.7329 66.2033 15.8588 67.0774 14.7843 67.0774H13.201C12.1267 67.0774 11.2525 66.2033 11.2525 65.1288V41.1465L17.5331 44.3408C17.7412 44.4466 17.9684 44.4995 18.1955 44.4995C18.4217 44.4995 18.648 44.447 18.8557 44.3419L21.3318 43.088C22.2996 44.0063 23.6076 44.5721 25.0466 44.5721C25.0765 44.5721 25.1059 44.5695 25.1355 44.5676V65.1287H25.1357ZM41.9415 65.1288C41.9415 66.2033 41.0674 67.0774 39.993 67.0774H38.4097C37.3353 67.0774 36.4612 66.2033 36.4612 65.1288V49.0658C36.4612 48.2586 35.8069 47.6044 34.9998 47.6044C34.1927 47.6044 33.5385 48.2586 33.5385 49.0658V65.1288C33.5385 66.2033 32.6644 67.0774 31.5899 67.0774H30.0069C28.9324 67.0774 28.0584 66.2033 28.0584 65.1288V41.1621L34.3384 44.3419C34.5461 44.4469 34.7723 44.4995 34.9986 44.4995C35.2258 44.4995 35.4529 44.4466 35.661 44.3408L41.9413 41.1463V65.1288H41.9415ZM43.4029 28.4238C42.5959 28.4238 41.9415 29.078 41.9415 29.8852V29.8856V37.8673L34.997 41.3993L28.0584 37.886V29.8856V29.8852C28.0584 29.078 27.4042 28.4238 26.597 28.4238C25.7898 28.4238 25.1356 29.078 25.1356 29.8852V29.8856V41.6537C25.1061 41.6519 25.0767 41.6492 25.0467 41.6492C23.6855 41.6492 22.5781 40.5511 22.5781 39.2014V24.9529C22.5781 21.6244 25.0392 18.8569 28.2481 18.3505L33.752 27.3819C34.0172 27.8172 34.4902 28.0827 34.9998 28.0827C35.5095 28.0827 35.9824 27.8172 36.2477 27.3819L41.7516 18.3505C44.9605 18.8568 47.4216 21.6243 47.4216 24.9529V39.2014C47.4216 40.5511 46.3143 41.6492 44.953 41.6492C44.923 41.6492 44.8936 41.6518 44.8641 41.6537V29.8856V29.8852C44.8642 29.078 44.2099 28.4238 43.4029 28.4238ZM58.7473 65.1288C58.7473 66.2033 57.8733 67.0774 56.7988 67.0774H55.2156C54.1412 67.0774 53.2671 66.2033 53.2671 65.1288V49.0658C53.2671 48.2586 52.6128 47.6044 51.8057 47.6044C50.9988 47.6044 50.3443 48.2586 50.3443 49.0658V65.1288C50.3443 66.2033 49.4703 67.0774 48.3958 67.0774H46.8126C45.7381 67.0774 44.8641 66.2033 44.8641 65.1288V44.5674C44.8936 44.5692 44.923 44.572 44.953 44.572C46.3919 44.572 47.6999 44.0063 48.6678 43.0879L51.1439 44.3417C51.3515 44.4467 51.5778 44.4994 51.8041 44.4994C52.0313 44.4994 52.2584 44.4464 52.4665 44.3406L58.7471 41.1462V65.1288H58.7473ZM61.759 41.6493C61.729 41.6493 61.6996 41.6519 61.6701 41.6538V29.8858V29.8852C61.6701 29.078 61.0158 28.4238 60.2087 28.4238C59.4018 28.4238 58.7473 29.078 58.7473 29.8852V29.8856V37.8673L51.8029 41.3993L50.1661 40.5705C50.282 40.1332 50.3442 39.6744 50.3442 39.2014V24.9529C50.3442 22.3563 49.3031 19.9979 47.6158 18.2671H57.4984C61.2088 18.2671 64.2273 21.2663 64.2273 24.9529V39.2015C64.2274 40.5512 63.1203 41.6493 61.759 41.6493Z" fill="#7788B4"/>
</svg>
