<svg width="65" height="65" viewBox="0 0 65 65" fill="none" xmlns="http://www.w3.org/2000/svg">
<g clip-path="url(#clip0_51_1061)">
<path d="M57.7784 9.02783H7.22287C5.30742 9.02783 1.50074 9 0 9C0 10.5 0.000647843 14.3346 0.000647843 16.2501V48.75C0.000647843 50.6655 0.000106871 54.5 0.000106871 56C2.00082 56 5.30742 55.9723 7.22287 55.9723H57.7784C59.6939 55.9723 63.5006 56 65.0006 56C65.0006 54.5 65.0006 50.6655 65.0006 48.75V16.2501C65.0006 14.3346 65.0006 10.5 65.0006 9.00001C63.0006 9.00001 59.6939 9.02783 57.7784 9.02783Z" fill="#E70013"/>
<path d="M32.4998 44.2361C38.9815 44.2361 44.2359 38.9817 44.2359 32.5C44.2359 26.0184 38.9815 20.7639 32.4998 20.7639C26.0181 20.7639 20.7637 26.0184 20.7637 32.5C20.7637 38.9817 26.0181 44.2361 32.4998 44.2361Z" fill="white"/>
<path d="M27.8056 32.5001C27.8058 31.1323 28.2044 29.7943 28.9526 28.6493C29.7008 27.5044 30.7662 26.6021 32.0188 26.0527C33.2713 25.5033 34.6568 25.3306 36.0059 25.5556C37.355 25.7807 38.6093 26.3937 39.6157 27.3199C38.5222 25.8177 36.9813 24.7 35.2137 24.127C33.4461 23.554 31.5425 23.555 29.7756 24.13C28.0086 24.705 26.469 25.8244 25.3772 27.3279C24.2853 28.8315 23.6973 30.6419 23.6973 32.5001C23.6973 34.3582 24.2853 36.1687 25.3772 37.6722C26.469 39.1757 28.0086 40.2951 29.7756 40.8701C31.5425 41.4451 33.4461 41.4462 35.2137 40.8732C36.9813 40.3002 38.5222 39.1825 39.6157 37.6802C38.6093 38.6064 37.355 39.2195 36.0059 39.4445C34.6568 39.6696 33.2713 39.4969 32.0188 38.9475C30.7662 38.3981 29.7008 37.4958 28.9526 36.3508C28.2044 35.2059 27.8058 33.8678 27.8056 32.5001Z" fill="#E70013"/>
<path d="M35.4706 30.5808L33.2154 27.4771V31.3139L29.5664 32.5001L33.2154 33.6864V37.5232L35.4706 34.4194L39.1196 35.6039L36.8645 32.5001L39.1196 29.3964L35.4706 30.5808Z" fill="#E70013"/>
</g>
<defs>
<clipPath id="clip0_51_1061">
<rect width="65" height="65" fill="white"/>
</clipPath>
</defs>
</svg>
