<svg width="70" height="70" viewBox="0 0 70 70" fill="none" xmlns="http://www.w3.org/2000/svg">
<g clip-path="url(#clip0_51_1003)">
<path d="M68.0563 48.5906L48.7357 29.2701C47.6269 28.1612 46.1953 27.4933 44.6527 27.3521C44.5143 25.8625 43.8764 24.4109 42.7383 23.2727C41.9987 22.5329 41.1263 22.0052 40.1974 21.6877C40.2978 21.3801 40.3832 21.0673 40.4533 20.7499C40.7638 20.8915 41.1027 20.9691 41.4505 20.9691C42.0887 20.9691 42.7005 20.7157 43.1518 20.2643L48.1832 15.2329C49.1228 14.2934 49.1228 12.7699 48.1832 11.8303L37.3846 1.03171C36.9334 0.580499 36.3215 0.326904 35.6834 0.326904C35.0452 0.326904 34.4334 0.580339 33.9822 1.03171L28.9505 6.06318C28.2206 6.79317 28.0605 7.87443 28.4647 8.76178C26.6178 9.17016 24.9211 10.0926 23.5513 11.4625L21.5281 13.4856C20.1583 14.8553 19.2358 16.552 18.8274 18.399C17.9403 17.9946 16.8588 18.155 16.1289 18.8849L11.0974 23.9162C10.6462 24.3674 10.3926 24.9793 10.3926 25.6174C10.3926 26.2555 10.6462 26.8676 11.0974 27.3186L21.8959 38.1172C22.3657 38.5871 22.9814 38.822 23.5971 38.822C24.2128 38.822 24.8287 38.587 25.2984 38.1172L30.3298 33.0859C30.781 32.6346 31.0346 32.0227 31.0346 31.3846C31.0346 31.0369 30.957 30.698 30.8154 30.3874C31.1328 30.3172 31.4458 30.2318 31.7534 30.1314C32.0708 31.0603 32.5986 31.9326 33.3382 32.6723C34.477 33.8114 35.9299 34.4493 37.4209 34.5872C37.5588 36.078 38.1967 37.5309 39.3357 38.6699L58.6563 57.9904C59.952 59.2863 61.6542 59.9342 63.3562 59.9342C65.0584 59.9342 66.7605 59.2863 68.0563 57.9904C70.6479 55.399 70.6479 51.1822 68.0563 48.5906ZM35.6832 6.13552L43.0792 13.5315L41.4505 15.1603L34.0545 7.7644L35.6832 6.13552ZM24.9307 16.8882L26.954 14.8651C27.9418 13.8773 29.255 13.3332 30.6519 13.3332C32.0489 13.3332 33.3621 13.8773 34.35 14.8651C35.3379 15.8528 35.8818 17.1662 35.8818 18.5631C35.8818 19.96 35.3377 21.2733 34.35 22.2612L32.3267 24.2843C31.3389 25.2721 30.0257 25.8161 28.6288 25.8161C27.232 25.8161 25.9186 25.2721 24.9309 24.2843C23.9431 23.2966 23.3991 21.9832 23.3991 20.5863C23.3991 19.1893 23.943 17.8761 24.9307 16.8882ZM23.5973 33.0137L16.2014 25.6177L17.8301 23.989L25.226 31.385L23.5973 33.0137ZM36.7409 26.6753C37.4563 25.9599 38.6203 25.9599 39.3356 26.6753C40.051 27.3906 40.051 28.5547 39.3356 29.2701C38.6202 29.9855 37.4562 29.9855 36.7408 29.2701C36.0255 28.5547 36.0255 27.3906 36.7409 26.6753ZM64.6537 54.5882C63.9383 55.3034 62.7741 55.3034 62.0589 54.5882L42.7383 35.2675C42.0229 34.5521 42.0229 33.3879 42.7383 32.6725C43.0848 32.326 43.5456 32.135 44.0357 32.135C44.5258 32.135 44.9865 32.3259 45.3331 32.6725L64.6537 51.993C65.3691 52.7086 65.3691 53.8728 64.6537 54.5882Z" fill="#FFA500" stroke="#FFA500" stroke-width="0.008"/>
<path d="M39.4485 55.7449H37.8345V51.9213C37.8345 51.0355 37.1164 50.3173 36.2305 50.3173H5.62432C4.73842 50.3173 4.0203 51.0355 4.0203 51.9213V55.7449H2.40602C1.07726 55.7449 0 56.8222 0 58.1509V67.267C0 68.5958 1.07726 69.6731 2.40602 69.6731H39.4485C40.7773 69.6731 41.8545 68.5958 41.8545 67.267V58.1509C41.8545 56.822 40.7773 55.7449 39.4485 55.7449ZM7.22833 53.5253H34.6265V55.7449H7.22833V53.5253ZM37.0425 64.861H4.81204V60.557H37.0425V64.861Z" fill="#FFA500" stroke="#FFA500" stroke-width="0.008"/>
</g>
<defs>
<clipPath id="clip0_51_1003">
<rect width="70" height="70" fill="white"/>
</clipPath>
</defs>
</svg>
