<svg width="1440" height="110" viewBox="0 0 1440 110" fill="none" xmlns="http://www.w3.org/2000/svg">
<path d="M833 67.7825C849.576 67.7825 863 60.889 863 52.3948C863 43.9006 849.576 37 833 37C816.431 37 803 43.8935 803 52.3877C803 60.8819 816.431 67.7825 833 67.7825ZM838.634 60.2203C838.143 61.3728 837.276 63.8556 835.305 64.8373C834.7 65.1219 833.953 65.2713 833.306 65.2926C833.157 65.314 833.057 65.2926 833.021 65.2926C827.479 65.2926 822.329 64.5385 818.011 63.2153C817.975 63.194 817.876 63.1584 817.876 63.1584C817.442 63.0232 817.235 62.8383 817.235 62.6106C817.235 62.4185 817.328 62.2691 817.484 62.1198C817.541 62.0628 817.634 61.9846 817.747 61.8708C818.729 61.0384 821.76 58.8615 827.387 56.6775C829.379 55.9234 831.855 54.9772 834.451 54.4223C835.988 54.1307 841.629 53.2841 838.634 60.2203ZM853.823 44.7188C853.915 44.5267 854.072 44.3631 854.335 44.3631C854.484 44.3417 854.655 44.3844 854.94 44.5694C858.461 46.7392 860.567 49.4496 860.567 52.3877C860.567 57.7019 853.752 62.2549 844.02 64.254C843.394 64.3891 842.981 64.3891 842.832 64.2184C842.739 64.1046 842.696 63.9552 842.832 63.7489C842.889 63.635 842.967 63.5426 843.095 63.4074C848.402 57.147 852.45 47.9059 853.581 45.2239C853.652 45.0033 853.737 44.8326 853.823 44.7188ZM827.458 44.5124C827.949 43.36 828.817 40.8772 830.788 39.8954C831.392 39.5966 832.139 39.4615 832.787 39.4401C832.936 39.4401 833.05 39.4401 833.085 39.4401C838.606 39.4401 843.764 40.2156 848.075 41.5174C848.11 41.5174 848.21 41.553 848.245 41.5743C848.644 41.7095 848.85 41.8945 848.85 42.1221C848.85 42.3284 848.736 42.4636 848.601 42.613C848.544 42.6699 848.452 42.7624 848.338 42.862C847.335 43.6943 844.347 45.8712 838.698 48.0268C836.706 48.8022 834.231 49.7271 831.634 50.3033C830.097 50.6092 824.463 51.4629 827.458 44.5124ZM822.023 40.5215C822.649 40.3863 823.14 40.3863 823.268 40.557C823.36 40.6495 823.403 40.8203 823.268 41.0266C823.211 41.1404 823.133 41.2329 823.019 41.3823C817.705 47.6426 813.664 56.8838 812.533 59.5445C812.44 59.7365 812.362 59.9215 812.284 60.0353C812.17 60.2274 812.021 60.3768 811.772 60.391C811.636 60.391 811.452 60.3555 811.146 60.1847C807.624 58.0149 805.454 55.3045 805.454 52.3664C805.483 47.0735 812.298 42.5134 822.023 40.5215Z" fill="black"/>
<path d="M833 37C816.431 37 803 43.8722 803 52.3664C803 60.8606 816.431 67.7327 833 67.7327C849.576 67.7327 863 60.8392 863 52.3664C863 43.8722 849.576 37 833 37ZM853.851 62.4043C848.309 65.2428 840.911 66.815 833.007 66.815C825.103 66.815 817.719 65.2357 812.177 62.4043C806.842 59.6583 803.918 56.1084 803.918 52.3806C803.918 48.6528 806.856 45.0958 812.184 42.3498C817.726 39.4899 825.125 37.9391 833.028 37.9391C840.932 37.9391 848.324 39.5041 853.873 42.3498C859.215 45.0958 862.139 48.6528 862.139 52.3735C862.139 56.0941 859.194 59.6583 853.851 62.4043Z" fill="black"/>
<g clip-path="url(#clip0_97_4058)">
<path d="M388.778 51.9999C388.778 61.8248 380.825 69.7777 371 69.7777V51.9999H388.778ZM371 34.2222V51.9999H353.223C353.223 42.1751 361.176 34.2222 371 34.2222Z" fill="black"/>
<path d="M371 34.2222V35.1969C380.264 35.1969 387.803 42.7339 387.803 52H388.778C388.778 42.1822 380.818 34.2222 371 34.2222ZM371 68.803C361.736 68.803 354.197 61.2661 354.197 52H353.222C353.222 61.8178 361.182 69.7778 371 69.7778M371 22C354.432 22 341 35.4319 341 52C341 68.5681 354.432 82 371 82C387.568 82 401 68.5681 401 52C401 35.4319 387.568 22 371 22ZM399.049 52C399.049 67.4904 386.492 80.0492 371 80.0492C355.508 80.0492 342.951 67.4904 342.951 52C342.951 36.5096 355.51 23.9508 371 23.9508C386.49 23.9508 399.049 36.5096 399.049 52Z" fill="black"/>
<path d="M358.18 37.5273C359.139 36.5245 359.682 35.3659 358.723 34.2599C358.201 33.6596 357.325 33.5283 356.599 33.8241L356.527 33.8521L356.55 33.7891C356.658 33.5038 356.726 32.5938 355.946 31.9655C355.565 31.6592 355.087 31.5455 354.605 31.5945C353.704 31.6855 353.011 32.2962 351.126 34.3841C350.557 35.0142 349.728 36.0082 349.231 36.6523L354.411 41.5315C356.127 39.6449 356.827 38.9431 358.18 37.5273ZM351.422 36.3337C352.465 35.0667 353.574 33.9168 354.076 33.4618C354.234 33.3183 354.407 33.1748 354.617 33.1188C354.957 33.026 355.308 33.2658 355.387 33.6123C355.466 33.9606 355.246 34.2914 355.001 34.5644C354.449 35.1822 352.426 37.284 352.426 37.284L351.422 36.3337ZM353.45 38.2448C353.45 38.2448 355.42 36.1762 356.064 35.5147C356.319 35.2522 356.483 35.0929 356.659 35.0072C356.887 34.8969 357.135 34.8741 357.357 35.0212C357.576 35.1664 357.676 35.4167 357.621 35.6652C357.556 35.961 357.313 36.2427 357.112 36.458C356.841 36.7468 354.504 39.2302 354.501 39.2337L353.45 38.2448ZM371.593 31.7082L373.251 28.019L373.357 27.6917L373.327 28.033L373.501 32.963C374.083 33.0173 374.684 33.0978 375.276 33.1958L375.006 25.8944C374.178 25.8034 373.353 25.7386 372.528 25.7036L370.895 29.7306L370.837 30.0299L370.778 29.7306L369.147 25.7036C368.322 25.7386 367.497 25.8034 366.669 25.8944L366.399 33.1958C366.991 33.0978 367.592 33.019 368.174 32.963L368.348 28.033L368.318 27.6917L368.424 28.019L370.082 31.7082H371.593ZM385.365 39.3404C385.772 39.7744 386.358 40.4745 386.688 40.8997L392.757 37.074C392.454 36.6803 391.971 36.0817 391.61 35.6599L387.766 38.1836L387.504 38.4076L387.7 38.1241L389.397 34.7604L388.196 33.5686L384.808 35.2539L384.522 35.4482L384.75 35.1874L387.292 31.3722C386.845 30.9942 386.415 30.6477 385.867 30.2276L382.015 36.2497C382.503 36.6225 383.146 37.1703 383.556 37.5431L387.183 35.6739L387.416 35.5042L387.245 35.7352L385.365 39.3404Z" fill="black"/>
</g>
<g clip-path="url(#clip1_97_4058)">
<path d="M131 22C114.433 22 101 35.4328 101 52C101 68.5672 114.433 82 131 82C147.567 82 161 68.5696 161 52C161 35.4328 147.57 22 131 22ZM131 81.4C114.764 81.4 101.6 68.236 101.6 52C101.6 35.764 114.764 22.6 131 22.6C147.236 22.6 160.4 35.764 160.4 52C160.4 68.236 147.236 81.4 131 81.4Z" fill="black"/>
<path d="M109.177 42.8514L109.921 41.0586L111.128 41.5626L109.76 44.8482L104.281 42.5706L104.905 41.0754L109.177 42.8514Z" fill="black"/>
<path d="M111.013 33.8822L111.745 34.5494L112.942 33.239L113.907 34.1198L112.71 35.4326L114.428 37.0022L113.336 38.1974L108.956 34.1966L111.368 31.5566L112.333 32.435L111.013 33.8822Z" fill="black"/>
<path d="M148.412 29.4546L149.573 30.5466L148.318 33.7218L151.467 32.3322L152.64 33.4362L149.489 38.7186L148.33 37.5882L150.089 34.4922L150.077 34.4826L146.648 35.9418L146.177 35.5002L147.478 32.0346L147.466 32.0226L144.533 33.9906L143.348 32.8986L148.412 29.4546Z" fill="black"/>
<path d="M155.993 41.5984L155.076 41.9776L155.777 43.6648L154.57 44.164L153.869 42.4792L152.926 42.8704L153.663 44.6488L152.458 45.148L151.1 41.8744L156.579 39.6016L157.937 42.8752L156.73 43.3744L155.993 41.5984Z" fill="black"/>
<path d="M108.654 50.2217L108.675 48.4937L102.716 50.7689L102.694 52.5377L108.598 55.0049L108.62 53.2865L107.593 52.8449L107.619 50.6153L108.654 50.2217ZM106.414 52.3841L104.535 51.6929V51.6761L106.431 51.0377L106.414 52.3841Z" fill="black"/>
<path d="M118.707 26.5049L117.14 27.3257L117.771 33.6929L119.292 32.8961L119.194 31.7849L121.169 30.7481L122.007 31.4753L123.536 30.6737L118.707 26.5049ZM119.043 30.5297L118.76 28.5473L118.774 28.5401L120.236 29.9057L119.043 30.5297Z" fill="black"/>
<path d="M130.014 27.1983C130.882 26.9799 131.305 26.2359 131.24 25.4199C131.142 24.1575 130.165 23.6727 128.938 23.7711L126.526 23.9631L126.997 29.8743L128.612 29.7471L128.432 27.4743H128.449L130.153 29.6271L132.162 29.4663L130.014 27.1983ZM128.506 26.4735L128.35 26.4855L128.233 25.0095L128.389 24.9999C128.914 24.9567 129.517 25.0047 129.567 25.6479C129.618 26.2911 129.032 26.4327 128.506 26.4735Z" fill="black"/>
<path d="M139.813 24.8706C138.106 24.321 136.145 25.0122 135.596 26.721C135.008 28.5498 135.968 30.2802 137.871 30.8922C139.774 31.5042 141.567 30.6594 142.155 28.8306C142.705 27.1242 141.519 25.4202 139.813 24.8706ZM140.549 28.3242C140.545 28.341 140.54 28.3578 140.533 28.3722C140.228 29.2842 139.239 29.7738 138.329 29.469C138.313 29.4642 138.296 29.4594 138.281 29.4522C137.372 29.1426 136.887 28.1538 137.197 27.2442C137.449 26.4642 138.433 25.9962 139.354 26.2938C140.273 26.589 140.799 27.5442 140.549 28.3242Z" fill="black"/>
<path d="M159.582 51.0593C159.519 49.2665 158.204 47.6609 156.414 47.7209C154.494 47.7881 153.193 49.2809 153.26 51.2777C153.33 53.2769 154.734 54.6761 156.652 54.6089C158.444 54.5441 159.644 52.8497 159.582 51.0593ZM156.584 52.9217C156.567 52.9217 156.548 52.9241 156.532 52.9241C155.572 52.9457 154.777 52.1849 154.756 51.2249C154.756 51.2081 154.753 51.1913 154.753 51.1745C154.736 50.2145 155.502 49.4225 156.464 49.4057C157.283 49.3769 158.058 50.1425 158.089 51.1097C158.123 52.0769 157.403 52.8929 156.584 52.9217Z" fill="black"/>
<path d="M131 30.3882C119.064 30.3882 109.388 40.065 109.388 52.0002C109.388 63.9354 119.064 73.6122 131 73.6122C142.935 73.6122 152.612 63.9378 152.612 52.0002C152.612 40.0626 142.935 30.3882 131 30.3882ZM124.412 31.9986C126.456 31.3242 128.595 30.9714 130.748 30.9474V48.2754H124.407L124.412 31.9986ZM118.018 35.4258L118.028 48.2778L110.271 48.2754C111.192 43.0746 114.024 38.5578 118.018 35.4258ZM110.112 54.6594H118.025L118.028 68.5842C113.657 65.169 110.811 60.165 110.112 54.6594ZM130.748 73.053C128.592 73.029 126.452 72.6738 124.404 71.997L124.407 54.6594H130.748V73.053ZM131.252 73.053H131.211C131.225 73.053 131.24 73.053 131.252 73.053V30.9498C142.743 31.065 152.052 40.4466 152.052 52.0026C152.052 63.5442 142.769 72.9162 131.252 73.053Z" fill="black"/>
<path d="M137.168 39.8249H144.824V39.0281H137.168V39.8249ZM137.168 38.3633H144.824V37.7537H137.168V38.3633ZM142.564 37.4081C142.916 37.4081 143.204 37.1225 143.204 36.7673C143.204 36.4145 142.919 36.1265 142.564 36.1265C142.211 36.1265 141.923 36.4121 141.923 36.7673C141.925 37.1201 142.211 37.4081 142.564 37.4081ZM139.772 68.5721C138.899 68.5721 138.191 67.9193 138.191 67.0457C138.191 66.1745 138.896 65.4137 139.772 65.4137H142.854C143.188 65.4137 143.456 65.1449 143.456 64.8113C143.459 64.4777 143.19 64.2041 142.854 64.1993H137.91C136.312 64.1993 135.016 62.9033 135.016 61.3025C135.016 59.7041 136.312 58.4729 137.91 58.4729L143.97 58.4681C144.344 58.4681 144.647 58.2713 144.647 57.8993C144.649 57.5225 144.347 57.2129 143.97 57.2081H137.857C135.448 57.2609 133.453 55.3529 133.4 52.9433C133.348 50.5337 135.256 48.5393 137.665 48.4865C137.73 48.4841 137.795 48.4841 137.86 48.4865L143.735 48.4913C144.191 48.4913 144.56 48.0953 144.56 47.6369C144.56 47.1785 144.191 46.8353 143.735 46.8353L137.116 46.8377C137.435 45.4553 138.34 45.2417 139.136 45.2441H142.22C142.573 45.2441 142.859 44.9585 142.861 44.6057V44.6033C142.861 44.2505 142.576 44.0177 142.22 44.0177H139.136C137.809 44.0177 137.171 42.8489 137.116 42.2105H140.305C140.572 41.3585 141.102 40.9337 141.688 40.9337H145.088C146.257 40.9337 146.735 40.1897 146.843 39.8705C147.64 40.2425 150.51 42.5297 150.51 46.3577C150.51 50.1857 147.109 52.1513 144.98 52.1681H137.857C137.483 52.1681 137.18 52.4705 137.18 52.8449C137.18 53.2193 137.483 53.5217 137.857 53.5217L144.556 53.5169C146.672 53.5169 148.391 55.3025 148.391 57.4193C148.391 59.5361 146.675 61.2017 144.556 61.2017L138.174 61.1945C137.821 61.1945 137.536 61.4801 137.536 61.8329C137.536 62.1857 137.821 62.4713 138.174 62.4713L143.012 62.4761C144.155 62.4761 145.079 63.4025 145.079 64.5449C145.079 65.6897 144.152 66.5993 143.012 66.5993L140.087 66.6089C139.818 66.6089 139.6 66.8297 139.6 67.0985C139.6 67.3673 139.818 67.5857 140.087 67.5857H142.333C143.118 67.5881 143.994 68.7449 142.307 69.3833C142.321 69.0521 142.266 68.5721 141.563 68.5721C140.862 68.5745 139.772 68.5721 139.772 68.5721Z" fill="black"/>
<path d="M137.66 44.6369C136.409 45.2225 136.104 46.9745 136.169 47.5865L134.417 48.7961C134.184 49.0481 133.793 49.0649 133.541 48.8321C133.289 48.5993 133.272 48.2081 133.505 47.9561C133.517 47.9441 133.529 47.9321 133.541 47.9201L134.672 47.1353C135.228 46.7633 135.123 46.1513 135.044 45.6473C134.964 45.1433 134.434 45.3809 134.273 45.5681C134.036 45.8057 133.707 45.9545 133.344 45.9545C132.617 45.9545 132.029 45.3905 132.029 44.6633C132.029 43.9361 132.62 43.3481 133.347 43.3481C133.695 43.3481 134.031 43.4873 134.276 43.7321C134.436 43.9193 134.969 44.1593 135.046 43.6529C135.125 43.1489 135.231 42.5369 134.674 42.1649L133.544 41.3801C133.301 41.1377 133.301 40.7441 133.544 40.5041C133.786 40.2617 134.18 40.2617 134.42 40.5041L136.172 41.7137C136.064 42.2177 136.409 44.0537 137.66 44.6369Z" fill="black"/>
</g>
<path fill-rule="evenodd" clip-rule="evenodd" d="M231.481 42.2407C225.733 42.2407 220.904 46.9856 221.001 52.7229C221.097 58.3533 225.763 62.8657 231.482 62.8657C233.937 62.8657 236.199 62.0338 237.988 60.6382C239.777 62.0336 242.038 62.8657 244.494 62.8657C246.95 62.8657 249.211 62.0338 251 60.6382C252.789 62.0336 255.051 62.8657 257.506 62.8657C259.962 62.8657 262.224 62.0338 264.013 60.6382C265.802 62.0336 268.063 62.8657 270.519 62.8657C276.237 62.8657 280.903 58.3541 280.999 52.7229C281.096 46.9852 276.266 42.2407 270.519 42.2407C268.083 42.2407 265.813 43.0923 264.013 44.5102C262.212 43.0923 259.941 42.2407 257.506 42.2407C255.071 42.2407 252.801 43.0923 251 44.5102C249.199 43.0923 246.929 42.2407 244.494 42.2407C242.059 42.2407 239.788 43.0923 237.988 44.5104C236.187 43.0923 233.916 42.2407 231.481 42.2407ZM244.494 60.5253C242.695 60.5253 241.031 59.9484 239.685 58.9717C241.076 57.2533 241.921 55.0867 241.961 52.7229C242.003 50.2593 241.137 47.979 239.679 46.1786C241.036 45.1779 242.709 44.5811 244.494 44.5811C246.279 44.5811 247.951 45.1779 249.308 46.1784C247.851 47.979 246.984 50.2597 247.026 52.7231C247.066 55.0867 247.912 57.2535 249.303 58.9719C247.957 59.9486 246.293 60.5253 244.494 60.5253ZM239.588 52.6839C239.618 50.8848 239.014 49.2062 237.988 47.8485C236.961 49.2062 236.357 50.8848 236.387 52.6839C236.417 54.4175 237.007 56.0152 237.988 57.3097C238.968 56.0152 239.558 54.4177 239.588 52.6839ZM234.014 52.7229C233.972 50.2593 234.839 47.979 236.296 46.1786C234.939 45.1779 233.266 44.5811 231.481 44.5811C227.043 44.5811 223.3 48.2711 223.375 52.6839C223.449 57.0328 227.054 60.5253 231.482 60.5253C233.281 60.5253 234.944 59.9486 236.29 58.9717C234.899 57.2533 234.054 55.0867 234.014 52.7229ZM254.974 52.7229C255.016 50.2593 254.149 47.979 252.692 46.1784C254.048 45.1779 255.721 44.5811 257.506 44.5811C259.291 44.5811 260.964 45.1779 262.321 46.1786C260.863 47.979 259.997 50.2593 260.039 52.7229C260.079 55.0867 260.924 57.2533 262.315 58.9717C260.969 59.9486 259.306 60.5253 257.506 60.5253C255.707 60.5253 254.044 59.9484 252.698 58.9717C254.088 57.2533 254.934 55.0867 254.974 52.7229ZM262.412 52.6839C262.382 50.8848 262.986 49.206 264.013 47.8483C265.039 49.206 265.643 50.8848 265.613 52.6839C265.583 54.4177 264.993 56.0152 264.013 57.3097C263.032 56.0152 262.442 54.4175 262.412 52.6839ZM270.519 60.5253C268.72 60.5253 267.056 59.9484 265.71 58.9717C267.101 57.2535 267.946 55.0869 267.986 52.7231C268.028 50.2592 267.162 47.9788 265.704 46.1784C267.061 45.1779 268.734 44.5811 270.519 44.5811C274.957 44.5811 278.7 48.2707 278.625 52.6839C278.551 57.0335 274.946 60.5253 270.519 60.5253ZM252.6 52.7388C252.631 50.9398 252.027 49.2611 251 47.9034C249.973 49.2611 249.369 50.9398 249.4 52.7388C249.429 54.4725 250.02 56.0702 251 57.3647C251.98 56.0702 252.571 54.4727 252.6 52.7388Z" fill="black"/>
<path d="M477.125 22.75L461.688 52L477.125 81.25L492.563 52L484.438 36.5624" stroke="black" stroke-width="2" stroke-linecap="round" stroke-linejoin="round"/>
<path d="M486.875 81.25L502.313 52L486.875 22.75L471.438 52L479.563 67.4376" stroke="black" stroke-width="2" stroke-linecap="round" stroke-linejoin="round"/>
<g clip-path="url(#clip2_97_4058)">
<path d="M597.808 57.4374C597.808 57.5524 597.845 57.6174 597.91 57.6174C597.963 57.6103 598.013 57.5896 598.055 57.5574L616.755 45.4224C617.071 45.2012 617.449 45.0873 617.835 45.0974H621.945C622.575 45.0974 623 45.5174 623 46.1474V53.9949C623 54.9449 622.79 55.4949 621.95 55.9974L616.965 58.9974C616.915 59.0318 616.858 59.0525 616.797 59.0574C616.737 59.0574 616.678 59.0099 616.678 58.8374V49.6799C616.678 49.5724 616.648 49.5024 616.575 49.5024C616.522 49.5083 616.472 49.5291 616.43 49.5624L602.765 58.4399C602.456 58.6505 602.089 58.7613 601.715 58.7574H592.655C592.02 58.7574 591.6 58.3374 591.6 57.7024V46.3924C591.6 46.3099 591.562 46.2324 591.49 46.2324C591.438 46.2394 591.389 46.2601 591.347 46.2924L582.33 51.6999C582.24 51.7599 582.215 51.8024 582.215 51.8449C582.215 51.8799 582.235 51.9174 582.295 51.9824L588.738 58.4199C588.823 58.5049 588.882 58.5699 588.882 58.6424C588.882 58.7024 588.785 58.7499 588.673 58.7499H582.85C582.393 58.7499 582.04 58.6849 581.793 58.4374L577.887 54.5374C577.873 54.5197 577.854 54.5052 577.834 54.4949C577.813 54.4846 577.791 54.4786 577.768 54.4774C577.725 54.4798 577.684 54.4927 577.648 54.5149L571.123 58.4399C570.81 58.6495 570.441 58.7562 570.065 58.7449H564.063C563.42 58.7499 563 58.3249 563 57.6974V49.9974C563 49.0474 563.21 48.4974 564.055 47.9974L569.075 44.9799C569.114 44.9552 569.159 44.9414 569.205 44.9399C569.285 44.9399 569.325 45.0149 569.325 45.1899V55.4999C569.325 55.6074 569.35 55.6574 569.428 55.6574C569.481 55.6491 569.533 55.6285 569.578 55.5974L586.517 45.3999C586.846 45.1789 587.237 45.0701 587.632 45.0899H596.753C597.383 45.0899 597.808 45.5099 597.808 46.1399L597.802 57.4349L597.808 57.4374Z" fill="black"/>
</g>
<path fill-rule="evenodd" clip-rule="evenodd" d="M741.188 76.1537C741.217 75.4605 741.243 74.5825 741.243 73.6938C741.243 71.7939 739.685 69.9932 739.672 69.9777C731.712 61.1564 718.262 48.1074 713.26 47.6546C713.159 47.6438 713 47.6537 713 47.6537C713.003 53.6765 713.203 53.3948 709.651 54.8955C709.285 55.0498 697.373 60.0848 686.011 70.3764C684.63 71.9377 684.758 73.4985 684.758 73.4985C684.758 74.4432 684.787 75.0886 684.818 76.1496C690.059 71.6567 705.609 58.8894 713 58.8894C720.387 58.8894 735.95 71.6647 741.188 76.1537ZM740.974 68.7895C741.056 68.8818 743 71.1034 743 73.6938C743 75.7101 742.866 77.7393 742.865 77.755C742.861 77.8525 742.814 78.7101 742.339 78.9427C742.261 78.9801 742.179 78.9996 742.093 78.9996C741.913 78.9996 741.713 78.9179 741.492 78.7554C741.289 78.5745 720.997 60.6583 713 60.6583C705.004 60.6583 684.713 78.5745 684.498 78.7641C684.284 78.9203 684.087 79 683.91 79C683.823 79 683.74 78.9811 683.663 78.9427C683.187 78.7101 683.14 77.8525 683.136 77.7591C683.134 77.7393 683 75.7101 683 73.6938C683 71.1034 684.944 68.8818 685.027 68.7895L685.028 68.7885C685.872 67.852 705.791 45.8739 713 45.8739C720.21 45.8739 740.128 67.852 740.974 68.7895ZM741.16 55.2496C741.188 54.5573 741.215 53.6808 741.215 52.7925C741.215 50.8948 739.658 49.0956 739.645 49.0799C731.693 40.2677 718.257 27.2315 713.26 26.779C713.158 26.7683 713 26.7783 713 26.7783C713.003 32.7952 713.203 32.5133 709.654 34.013C709.289 34.1669 697.389 39.1969 686.038 49.4785C684.658 51.038 684.786 52.5978 684.786 52.5978C684.786 53.5409 684.815 54.186 684.846 55.2455C690.082 50.7576 705.617 38.0029 713 38.0029C720.38 38.0029 735.926 50.7658 741.16 55.2496ZM740.946 47.8927C741.028 47.985 742.97 50.2043 742.97 52.7925C742.97 54.8067 742.836 56.834 742.835 56.8495C742.832 56.947 742.785 57.8035 742.31 58.0361C742.232 58.0735 742.15 58.0924 742.064 58.0924C741.885 58.0924 741.685 58.0117 741.464 57.8493C741.26 57.6678 720.989 39.7697 713 39.7697C705.012 39.7697 684.741 57.6678 684.527 57.8575C684.313 58.014 684.116 58.093 683.939 58.093C683.853 58.093 683.77 58.074 683.692 58.0361C683.217 57.8035 683.17 56.947 683.166 56.8537C683.164 56.834 683.03 54.8067 683.03 52.7925C683.03 50.2043 684.972 47.985 685.055 47.8927L685.056 47.8917C685.9 46.9566 705.799 25 713 25C720.203 25 740.1 46.9566 740.946 47.8927Z" fill="black"/>
<g clip-path="url(#clip3_97_4058)">
<path d="M953 41C936.425 41 923 45.8262 923 51.7976C923 57.7673 936.426 62.5948 953 62.5948C969.576 62.5948 983 57.767 983 51.7976C983 45.826 969.577 41 953 41Z" fill="black"/>
<path d="M953.152 61.648C937.191 61.648 924.252 57.1894 924.252 51.689C924.252 46.1879 937.191 41.7295 953.152 41.7295C969.112 41.7295 982.05 46.1877 982.05 51.689C982.05 57.1892 969.111 61.648 953.152 61.648ZM953.152 42.5924C937.752 42.5924 925.268 46.6643 925.268 51.689C925.268 56.7138 937.751 60.7863 953.152 60.7863C968.552 60.7863 981.034 56.7136 981.034 51.689C981.034 46.6643 968.551 42.5924 953.152 42.5924Z" fill="white"/>
<path d="M945.613 44.2096C945.203 44.2108 944.79 44.2268 944.375 44.2608C941.619 44.4905 938.995 46.0272 938.99 48.3602C938.988 49.5433 939.837 50.5019 941.153 50.4598C942.7 50.4078 943.969 49.181 944.634 47.6341C944.886 47.0472 944.419 46.8035 944.197 47.1414C943.81 47.7316 943.271 48.2065 942.636 48.516C941.909 48.8688 941.131 48.7736 940.895 48.1885C940.563 47.3631 941.253 46.1279 942.825 45.5467C945.097 44.714 947.474 45.2648 949.761 45.6902C949.793 45.6902 949.915 45.7571 949.807 45.8127C949.398 46.0338 948.995 46.2136 948.366 46.7488C947.916 47.1307 947.326 47.6391 946.87 48.1929C946.418 48.7387 946.097 49.2256 945.672 49.7653C945.613 49.8433 945.54 49.8397 945.541 49.8397C944.506 50.0127 943.493 50.1287 942.566 50.7673C942.374 50.8983 942.291 51.131 942.407 51.309C942.512 51.4668 942.751 51.4836 942.917 51.3641C943.493 50.9373 944.086 50.7364 944.767 50.7178C944.796 50.7196 944.811 50.7244 944.819 50.7425C944.824 50.7527 944.821 50.7742 944.809 50.7901C943.79 52.19 943.535 52.5063 942.768 53.3742C942.376 53.8203 941.99 54.1968 941.559 54.5886C939.818 56.1899 937.946 56.1622 937.274 55.1583C936.873 54.5557 936.926 53.9232 937.189 53.3985C937.513 52.7558 938.167 52.2848 938.711 52.0097C938.914 51.9076 938.972 51.6518 938.769 51.4187C938.641 51.2668 938.329 51.2398 938.097 51.2819C937.384 51.4123 936.541 51.946 936.043 52.5882C935.482 53.3089 935.202 54.1838 935.296 55.1658C935.465 56.9376 936.939 57.961 938.611 57.9492C939.942 57.9389 941.196 57.5396 942.704 56.0233C944.111 54.6092 945.392 52.4968 946.591 50.5379C946.629 50.4753 946.656 50.4418 946.838 50.4193C947.591 50.3261 948.702 50.22 949.414 50.1792C949.572 50.1706 949.604 50.1723 949.668 50.2506C949.853 50.4823 950.132 50.679 950.355 50.7988C950.464 50.8573 950.516 50.8865 950.601 50.8878C950.707 50.8901 950.789 50.8339 950.842 50.7745C950.917 50.6924 950.938 50.5851 950.897 50.5159C950.855 50.4433 950.358 50.1708 950.343 50.0606C950.332 49.9919 950.408 49.9753 950.408 49.9753C950.773 49.8619 951.153 49.6286 951.383 49.192C951.609 48.7623 951.646 48.1888 951.232 47.8699C950.869 47.5898 950.321 47.634 949.883 48.023C949.455 48.4005 949.313 48.9499 949.371 49.4313C949.381 49.5148 949.377 49.5428 949.262 49.5524C948.604 49.6045 947.97 49.6226 947.265 49.6596C947.218 49.663 947.203 49.6321 947.23 49.5997C948.042 48.2028 949.255 47.208 950.596 46.2283C950.685 46.1624 950.658 46.0369 950.654 45.9321C953.075 46.453 955.416 47.4225 957.928 47.4019C958.967 47.3935 959.961 47.237 960.912 46.7207C961.748 46.2691 962.087 45.8515 962.112 45.4174C962.132 45.1174 961.921 44.9277 961.621 44.9924C959.083 45.5697 956.661 45.5634 954.136 45.2608C951.251 44.9142 948.484 44.2006 945.613 44.2096ZM950.679 48.258C950.739 48.2612 950.794 48.2809 950.839 48.319C950.973 48.4321 950.91 48.7145 950.774 48.9099C950.627 49.1256 950.376 49.3118 950.148 49.3571C950.102 49.3655 950.063 49.346 950.044 49.2456C950.007 48.9796 950.094 48.6233 950.381 48.3723C950.471 48.2936 950.581 48.2528 950.679 48.258ZM971.056 48.309C970.594 48.309 969.989 48.3098 969.508 48.3098C969.394 48.3098 969.334 48.3237 969.28 48.4291C969.103 48.7659 966.94 51.9755 966.537 52.5989C966.47 52.6937 966.387 52.6805 966.377 52.5723C966.336 52.2022 966.014 51.7768 965.505 51.5731C965.117 51.4174 964.738 51.3893 964.344 51.441C963.633 51.5355 962.999 51.9075 962.441 52.3263C961.602 52.9588 960.877 53.7776 959.942 54.3831C959.431 54.7126 958.732 55 958.264 54.5714C957.841 54.1827 957.888 53.3191 958.536 52.6515C958.605 52.5814 958.686 52.6399 958.674 52.7027C958.612 53.0048 958.688 53.3051 958.919 53.5158C959.202 53.7663 959.606 53.7949 959.952 53.6276C960.361 53.4273 960.601 53.0401 960.671 52.6006C960.779 51.9192 960.249 51.3181 959.587 51.27C959.048 51.2326 958.532 51.4181 958.029 51.8294C957.776 52.0365 957.633 52.1898 957.415 52.4968C957.362 52.5726 957.28 52.5803 957.283 52.4685C957.308 51.5961 956.943 51.1051 956.215 51.089C955.649 51.0759 955.045 51.3792 954.574 51.7512C954.058 52.1616 953.607 52.7054 953.123 53.2166C953.063 53.2796 953.011 53.2767 952.994 53.1545C952.979 52.5764 952.832 52.0165 952.562 51.619C952.466 51.4806 952.265 51.4121 952.096 51.5055C952.018 51.5479 951.746 51.6716 951.549 51.8292C951.451 51.9093 951.413 52.0251 951.456 52.1736C951.717 53.0369 951.659 54.0189 951.305 54.8484C950.98 55.6077 950.349 56.293 949.607 56.5248C949.118 56.6783 948.609 56.6032 948.295 56.1739C947.863 55.5816 948.038 54.5516 948.681 53.696C949.25 52.9431 950.071 52.4646 950.892 52.1564C950.988 52.1197 951.008 52.0585 950.981 51.9773C950.936 51.8435 950.865 51.662 950.836 51.5788C950.761 51.3808 950.55 51.3484 950.293 51.3763C949.697 51.445 949.16 51.647 948.629 51.9285C947.239 52.6655 946.542 54.0919 946.237 54.8552C946.09 55.2215 945.964 55.4505 945.801 55.6533C945.582 55.9261 945.307 56.1742 944.804 56.6116C944.759 56.6518 944.725 56.7354 944.763 56.813C944.814 56.9184 945.076 57.284 945.15 57.3166C945.232 57.3565 945.327 57.3008 945.365 57.2736C945.717 57.0375 946.138 56.6631 946.344 56.4091C946.416 56.3223 946.491 56.3588 946.529 56.4908C946.721 57.1702 947.225 57.7248 947.921 57.9568C949.196 58.3825 950.518 57.7664 951.516 56.694C952.15 56.0126 952.379 55.5741 952.622 55.2762C953.033 54.7707 953.846 53.64 954.814 52.9141C955.169 52.6465 955.589 52.4424 955.8 52.5778C955.97 52.6866 956.024 52.9394 955.752 53.4293C954.766 55.2133 953.313 57.3094 953.047 57.8181C952.999 57.9063 953.041 57.9755 953.134 57.9755C953.651 57.9732 954.163 57.9743 954.631 57.9743C954.709 57.9706 954.744 57.9355 954.783 57.8809C955.541 56.7073 956.253 55.5898 957.017 54.4349C957.06 54.3668 957.1 54.4196 957.101 54.4493C957.117 54.7171 957.183 55.0838 957.344 55.3247C957.633 55.7696 958.042 55.9607 958.496 55.9637C958.857 55.9678 959.04 55.9134 959.429 55.7694C959.701 55.6681 959.959 55.5312 960.195 55.362C960.31 55.2838 960.329 55.415 960.326 55.4352C960.151 56.367 960.368 57.4708 961.303 57.9287C962.422 58.4752 963.652 57.7072 964.359 57.0139C964.429 56.947 964.503 56.9541 964.51 57.0978C964.525 57.3627 964.646 57.6768 964.867 57.8968C965.46 58.486 966.657 58.2526 967.857 57.3321C968.628 56.7432 969.435 55.9107 970.164 55.0292C970.191 54.9952 970.211 54.9401 970.158 54.8847C970.047 54.7698 969.887 54.6382 969.777 54.5368C969.727 54.4946 969.653 54.5067 969.611 54.5387C968.864 55.2419 968.192 56.0441 967.22 56.7074C966.892 56.9337 966.37 57.1165 966.135 56.8022C966.044 56.6802 966.054 56.5111 966.144 56.2896C966.428 55.5898 970.913 48.8278 971.146 48.4296L971.147 48.4291C971.187 48.3597 971.144 48.309 971.056 48.309ZM964.771 52.5364C964.888 52.5354 964.998 52.5578 965.099 52.6055C965.651 52.8665 965.475 53.4999 965.228 53.9972C965.219 54.0127 965.214 54.0298 965.212 54.0474C965.211 54.065 965.212 54.0828 965.218 54.0997C965.227 54.1514 965.295 54.2015 965.362 54.2253C965.385 54.234 965.398 54.2507 965.372 54.3051C965.181 54.7099 965.006 54.9433 964.766 55.2948C964.547 55.6198 964.299 55.8731 963.999 56.1171C963.546 56.4879 962.918 56.8913 962.399 56.6201C962.168 56.5012 962.069 56.1817 962.073 55.9229C962.085 55.195 962.411 54.448 963.015 53.7137C963.613 52.9848 964.262 52.5409 964.771 52.5364Z" fill="white"/>
</g>
<g clip-path="url(#clip4_97_4058)">
<path d="M1058.72 28H1065.24V73.4307H1058.72V28ZM1086.66 28V33.4816H1091.71V73.4307H1098.03V33.4816H1103V28H1086.66ZM1043 73.4307H1049.31V52.8201H1054.69V47.4136H1049.31V33.4816H1056.33V28H1043V73.4307ZM1087.5 70.4548C1087.5 71.4503 1087.5 72.4423 1087.5 73.4307H1081.59C1081.59 71.7121 1081.59 69.9849 1081.58 68.2492C1081.58 66.5162 1081.57 64.7802 1081.55 63.0501C1081.51 59.5934 1081.43 56.1502 1081.25 52.8201H1074.31V73.4307H1068.64V28H1081.96C1082.77 29.5629 1083.45 31.186 1084.01 32.8548C1084.58 34.5795 1085.06 36.3356 1085.43 38.1146C1085.82 39.9232 1086.13 41.7881 1086.38 43.6856C1086.62 45.5825 1086.81 47.5234 1086.96 49.4815C1087.1 51.4387 1087.21 53.4298 1087.28 55.4229C1087.36 57.4139 1087.4 59.4332 1087.44 61.4373C1087.47 63.4365 1087.48 65.4677 1087.49 67.4593C1087.5 68.4603 1087.5 69.4588 1087.5 70.4548ZM1080.85 47.4136C1080.34 42.2191 1079.47 37.4113 1077.97 33.4816H1074.31V47.4136H1080.85Z" fill="black"/>
</g>
<g clip-path="url(#clip5_97_4058)">
<path d="M1193.04 78.0638C1178.17 78.0638 1165.99 65.8258 1165.99 50.9611C1165.99 47.618 1166.59 44.4541 1167.72 41.4692L1183.54 73.288C1183.72 73.7059 1184.02 74.0641 1184.5 74.0641C1184.98 74.0641 1185.27 73.7059 1185.45 73.288L1192.74 56.9906C1192.8 56.8115 1192.92 56.6324 1193.1 56.6324C1193.27 56.6324 1193.33 56.8115 1193.45 56.9906L1200.74 73.288C1200.92 73.7059 1201.21 74.0641 1201.69 74.0641C1202.17 74.0641 1202.47 73.7059 1202.65 73.288L1218.47 41.4692C1219.6 44.4541 1220.2 47.618 1220.2 50.9611C1220.08 65.8258 1207.9 78.0638 1193.04 78.0638ZM1193.04 44.8122C1192.86 44.8122 1192.8 44.6332 1192.68 44.4541L1184.2 25.3508C1186.95 24.336 1189.93 23.7987 1193.04 23.7987C1196.14 23.7987 1199.12 24.336 1201.87 25.3508L1193.39 44.4541C1193.27 44.6929 1193.21 44.8122 1193.04 44.8122ZM1184.38 64.4528C1184.2 64.4528 1184.14 64.2737 1184.02 64.0946L1170.29 36.3949C1172.74 32.6339 1176.02 29.47 1180.02 27.2612L1189.93 49.2896C1190.05 49.6477 1190.35 49.7671 1190.65 49.7671H1195.42C1195.78 49.7671 1196.02 49.7074 1196.2 49.2896L1206.11 27.2612C1210.05 29.47 1213.39 32.6339 1215.84 36.3949L1201.99 64.0946C1201.93 64.2737 1201.81 64.4528 1201.63 64.4528C1201.45 64.4528 1201.39 64.2737 1201.27 64.0946L1196.08 52.2744C1195.9 51.8566 1195.66 51.7969 1195.3 51.7969H1190.53C1190.17 51.7969 1189.93 51.8566 1189.75 52.2744L1184.74 64.0946C1184.68 64.2737 1184.56 64.4528 1184.38 64.4528ZM1193.04 80.8099C1209.57 80.8099 1222.88 67.4973 1222.88 50.9611C1222.88 34.4249 1209.57 21.1123 1193.04 21.1123C1176.5 21.1123 1163.19 34.4249 1163.19 50.9611C1163.19 67.4973 1176.5 80.8099 1193.04 80.8099Z" fill="black"/>
</g>
<g clip-path="url(#clip6_97_4058)">
<path d="M1326.95 24.375C1322.75 22.2 1318.02 21 1313 21C1307.98 21 1303.25 22.2 1299.05 24.375C1289.52 29.4 1283 39.45 1283 51C1283 62.55 1289.52 72.6 1299.12 77.625C1303.25 79.725 1307.98 81 1313 81C1318.02 81 1322.68 79.725 1326.88 77.55C1336.48 72.6 1343 62.55 1343 51C1343 39.45 1336.47 29.4 1326.95 24.375ZM1286 51C1286 41.175 1291.25 32.625 1299.12 27.825C1302.95 25.5 1307.38 24.15 1312.25 24L1308.88 48.525L1299.12 56.1L1289.23 63.825C1287.2 60 1286 55.65 1286 51ZM1326.95 74.1C1322.82 76.575 1318.1 78 1313 78C1307.9 78 1303.1 76.575 1299.05 74.1C1295.37 71.925 1292.38 68.925 1290.12 65.325L1299.05 61.65L1313 55.95L1326.95 61.575L1335.95 65.25C1333.7 68.925 1330.55 71.925 1326.95 74.1ZM1326.95 56.1L1317.28 48.6L1313.82 24C1318.55 24.15 1323.05 25.5 1326.88 27.825C1334.75 32.55 1340 41.175 1340 51C1340 55.65 1338.87 60 1336.77 63.825L1326.95 56.1Z" fill="black"/>
</g>
<defs>
<clipPath id="clip0_97_4058">
<rect width="60" height="60" fill="white" transform="translate(341 22)"/>
</clipPath>
<clipPath id="clip1_97_4058">
<rect width="60" height="60" fill="white" transform="translate(101 22)"/>
</clipPath>
<clipPath id="clip2_97_4058">
<rect width="60" height="60" fill="white" transform="translate(563 22)"/>
</clipPath>
<clipPath id="clip3_97_4058">
<rect width="60" height="21.5948" fill="white" transform="translate(923 41)"/>
</clipPath>
<clipPath id="clip4_97_4058">
<rect width="60" height="45.4307" fill="white" transform="translate(1043 28)"/>
</clipPath>
<clipPath id="clip5_97_4058">
<rect width="60" height="60" fill="white" transform="translate(1163 21)"/>
</clipPath>
<clipPath id="clip6_97_4058">
<rect width="60" height="60" fill="white" transform="translate(1283 21)"/>
</clipPath>
</defs>
</svg>
