<svg width="70" height="70" viewBox="0 0 70 70" fill="none" xmlns="http://www.w3.org/2000/svg">
<path d="M35 35L48.125 21.875" stroke="#0B256F" stroke-width="4" stroke-miterlimit="10" stroke-linecap="round" stroke-linejoin="round"/>
<path d="M65.625 13.125H56.875V4.375L48.125 13.125V21.875H56.875L65.625 13.125Z" stroke="#0B256F" stroke-width="4" stroke-miterlimit="10" stroke-linecap="round" stroke-linejoin="round"/>
<path d="M35 48.125C42.2487 48.125 48.125 42.2487 48.125 35C48.125 27.7513 42.2487 21.875 35 21.875C27.7513 21.875 21.875 27.7513 21.875 35C21.875 42.2487 27.7513 48.125 35 48.125Z" stroke="#0B256F" stroke-width="4" stroke-miterlimit="10" stroke-linecap="round" stroke-linejoin="round"/>
<path d="M59.0625 19.6875C61.9062 24.0625 63.4375 29.3125 63.4375 35C63.4375 50.75 50.75 63.4375 35 63.4375C19.25 63.4375 6.5625 50.75 6.5625 35C6.5625 19.25 19.25 6.5625 35 6.5625C40.6875 6.5625 45.9375 8.09375 50.3125 10.9375" stroke="#0B256F" stroke-width="4" stroke-miterlimit="10" stroke-linecap="round" stroke-linejoin="round"/>
</svg>
