<svg width="64" height="15" viewBox="0 0 64 15" fill="none" xmlns="http://www.w3.org/2000/svg">
<path fill-rule="evenodd" clip-rule="evenodd" d="M64 7.48842C64 3.34817 60.7237 0 55.579 0H8.10638C3.33739 0 0 3.34817 0 7.48842C0 11.6287 3.30117 15 8.10638 15H55.6028C60.7 15 64 11.6287 64 7.48842Z" fill="#2F9C5C"/>
<path fill-rule="evenodd" clip-rule="evenodd" d="M14 6.9882C14 10.289 11.3135 13 8.01236 13C4.71124 13 2 10.289 2 6.9882C2 3.68739 4.71124 1 8.01236 1C11.3135 1 14 3.68627 14 6.9882Z" fill="#B4B6C4"/>
<path fill-rule="evenodd" clip-rule="evenodd" d="M12 7.48726C12 7.1488 11.8017 6.8892 11.5568 6.74606L5.08781 3L5.01033 3.11767C5.7531 4.43146 6.1405 5.84836 6.1405 7.42297C6.1405 9.11403 5.7531 10.4666 5 11.8969L5.07748 12L11.5351 8.2406C11.7789 8.09867 12 7.82572 12 7.48726Z" fill="#2F9C5C"/>
<path fill-rule="evenodd" clip-rule="evenodd" d="M24.983 12.3904L21.4119 7.00692C20.9998 6.38 20.9399 6.24718 20.6735 5.70355H20.6498C20.6983 6.38 20.6983 6.80208 20.6983 7.20052V12.3904H19.0759V5.01697C19.0759 4.59489 18.8207 4.38892 18.4583 4.32926L17.9378 4.24485C17.974 3.97922 18.0824 3.4716 18.2032 3.21836H21.2177L24.2694 7.79255C24.7052 8.44424 24.9954 9.02389 25.2743 9.63956H25.298C25.2563 9.22255 25.2364 8.80366 25.2381 8.38459V3.21948H26.8605V12.3915L24.983 12.3904ZM31.3992 5.11264C31.3992 5.76433 31.0966 6.27082 30.5524 6.27082C30.0681 6.27082 29.7045 5.87238 29.7045 5.05186C29.7045 4.36416 30.0083 3.85654 30.5524 3.85654C31.0966 3.85654 31.3992 4.33939 31.3992 5.11264ZM32.7552 5.03948C32.7552 4.06251 32.0405 3 30.6721 3C29.3049 3 28.3237 3.84416 28.3237 5.14866C28.3237 6.39125 29.3534 7.12736 30.5028 7.12736C31.581 7.12736 32.7552 6.51169 32.7552 5.03948ZM39.6682 12.3904H37.9498L35.4321 4.89541C35.335 4.59377 35.1532 4.38892 34.7908 4.32814L34.2703 4.24372C34.3189 3.89255 34.4521 3.38719 34.5368 3.21723H37.0669L38.5685 8.14147C38.7989 8.88995 38.9795 9.74649 39.0766 10.3014H39.1003C39.2716 9.55203 39.4777 8.81101 39.7179 8.08069L41.3516 3.21723H43.1072L39.6682 12.3904ZM46.2651 8.37108H44.1584C44.1584 7.63497 44.3763 6.83922 45.2355 6.83922C46.1206 6.83809 46.2776 7.64623 46.2651 8.37108ZM47.9598 8.88995C47.9598 7.09134 47.1367 5.70355 45.2479 5.70355C43.3353 5.70355 42.2819 7.26129 42.2819 9.10718C42.2819 11.3639 43.5171 12.4984 45.6713 12.4984C46.2279 12.4984 46.8218 12.4253 47.3298 12.1968C47.4879 11.822 47.5963 11.3042 47.6335 10.9171C47.1006 11.1219 46.6039 11.2435 46.0348 11.2435C44.9939 11.2435 44.1584 10.6278 44.1584 9.49324H47.9113C47.9361 9.28839 47.9598 9.0948 47.9598 8.88995ZM52.8271 7.56294C52.6105 7.42372 52.3588 7.34841 52.1011 7.34571C51.5919 7.34571 51.2905 7.56294 51.0601 7.88935V12.3915H49.1588V7.67324C49.1588 7.26242 49.0019 7.03281 48.6147 6.94839C48.6508 6.63437 48.784 6.09186 48.9048 5.82511C49.9345 5.76545 50.4663 5.95792 50.8546 6.74242H50.8784C51.4474 5.9703 51.9317 5.70467 52.7424 5.70467C52.9366 5.70467 53.0811 5.71706 53.2877 5.76545C53.2042 6.38033 53.0497 6.98351 52.8271 7.56294ZM57.718 12.2328C57.259 12.4114 56.7701 12.5015 56.2774 12.4984C54.9824 12.4984 53.9651 11.9312 53.9651 10.5186V4.27862C54.4732 4.01299 55.4543 3.72372 55.9635 3.60329V5.8116H57.8512C57.8399 6.25844 57.7428 6.7897 57.6695 7.0542H55.9624V10.1686C55.9624 10.8687 56.2762 11.2547 57.0033 11.2547C57.3183 11.2547 57.6695 11.1703 57.9483 11.0138C57.9235 11.2919 57.8388 11.8828 57.718 12.2328ZM51.0601 15H13.5001C14.6529 15 12.2491 15 13.5001 15C14.632 15 12.2443 15 13.5001 15C14.3558 15 12.1734 15 13.5001 15C14.607 15 12.0646 15 13.5001 15C16.0311 15 11.4752 15 13.5001 15C10.9738 15 11.461 15 13.5001 15H51.0601C49.3679 15.0002 53.5863 14.9997 51.0601 15C53.1158 15 52.8546 15 51.0601 15C56.3191 15 48.1539 15 51.0601 15Z" fill="#B4B6C4"/>
</svg>
