<svg width="985" height="518" viewBox="0 0 985 518" fill="none" xmlns="http://www.w3.org/2000/svg">
<path d="M2 512.922C2 512.922 44.6816 522.923 60.2723 506.154C69.9535 495.741 80.1875 481.501 73.6902 468.859C69.7166 461.127 62.2794 458.537 54.3096 462.024C46.4801 465.449 43.8777 472.752 45.1683 481.192C49.4374 509.11 97.946 504.259 120.984 496.949C158.658 484.995 152.424 407.335 205.547 403.816C229.529 402.227 260.351 423.736 255.614 447.274C254.186 454.367 250.769 460.611 243.665 462.024C235.608 463.626 230.108 456.976 227.477 449.202C220.199 427.69 249.531 407.573 271.95 403.816C312.334 397.047 337.337 444.986 374.13 427.911C406.851 412.726 417.495 354 417.495 354" stroke="#FFA500" stroke-width="3.08345" stroke-linecap="round"/>
<path d="M567.471 160.922C567.471 160.922 610.152 170.923 625.743 154.154C635.424 143.741 645.658 129.501 639.161 116.859C635.187 109.127 627.75 106.537 619.78 110.024C611.951 113.449 609.348 120.752 610.639 129.192C614.908 157.11 663.417 152.259 686.455 144.949C724.128 132.995 717.895 55.3351 771.017 51.8155C795 50.2266 825.822 71.7365 821.085 95.2744C819.657 102.367 816.239 108.611 809.136 110.024C801.079 111.626 795.578 104.976 792.948 97.2016C785.67 75.6896 815.002 55.5729 837.421 51.8155C877.805 45.0471 902.807 92.986 939.6 75.9111C972.322 60.7255 982.966 2 982.966 2" stroke="#FFA500" stroke-width="3.08345" stroke-linecap="round"/>
</svg>
