<svg width="60" height="60" viewBox="0 0 60 60" fill="none" xmlns="http://www.w3.org/2000/svg">
<g clip-path="url(#clip0_165_618)">
<path d="M54.7221 27.4021C54.6994 27.3263 54.6917 27.2503 54.6688 27.1745C54.0087 24.5332 52.4148 22.1346 50.1681 20.184C47.8454 18.1574 44.8095 16.609 41.356 15.7589C39.3903 15.2657 37.2878 15 35.1018 15C32.916 15 30.8134 15.2658 28.8476 15.7589C24.3924 16.8595 20.6351 19.1137 18.1987 22.0586C16.9235 23.5918 16.0129 25.3147 15.5422 27.144H15.1628C14.6542 27.144 -2.58268 28.4875 0.331657 41.1857H8.36955C8.36205 41.0489 8.35443 40.9124 8.35443 40.7759C8.35443 40.3736 8.3924 39.9712 8.4531 39.6221C9.01478 36.4495 11.7622 34.1421 14.9882 34.1421C18.2141 34.1421 20.9616 36.4495 21.5156 39.5993C21.5841 39.9711 21.6218 40.3734 21.6218 40.7759C21.6218 40.8988 21.6149 41.0217 21.6083 41.1449C21.6069 41.1486 21.6079 41.154 21.6067 41.1578H21.6076C21.6072 41.1671 21.6072 41.1764 21.6067 41.1857H38.487C38.4795 41.0489 38.4719 40.9124 38.4719 40.7759C38.4719 40.3736 38.5098 39.9712 38.5705 39.6221C39.1322 36.4495 41.8799 34.1421 45.1056 34.1421C48.3314 34.1421 51.0789 36.4495 51.6331 39.5917C51.7015 39.9711 51.7392 40.3736 51.7392 40.7759C51.7392 40.8983 51.7324 41.0208 51.7258 41.1435C51.7246 41.1476 51.7255 41.1537 51.7241 41.1578H51.7253C51.7246 41.1671 51.7246 41.1764 51.7241 41.1857H58.3709C59.2649 41.1857 59.9899 40.4587 59.9932 39.5648C60.0249 30.9225 60.1555 29.3685 54.7221 27.4021ZM18.7183 27.1351C19.1056 26.0378 19.7038 24.9933 20.5287 24.0016C22.5857 21.5197 25.7962 19.6373 29.5759 18.7038C31.352 18.2634 33.2042 18.036 35.1015 18.036C36.6605 18.036 38.184 18.1945 39.6581 18.4987C39.7624 18.5221 39.8687 18.5393 39.9727 18.5644L36.4831 27.144H23.027L18.7183 27.1351ZM39.7663 27.1338L42.9121 19.4099C44.9233 20.1611 46.7147 21.1935 48.1718 22.4685C49.7133 23.8043 50.8104 25.3482 51.4169 26.979C51.4365 27.0342 51.4599 27.0887 51.4783 27.144H42.9192L39.7663 27.1338Z" fill="#141F39"/>
<path d="M14.9877 36.4192C12.8398 36.4192 11.0559 37.9752 10.6993 40.0168C10.6537 40.2598 10.6309 40.5177 10.6309 40.7759C10.6309 40.9124 10.6384 41.0489 10.6537 41.1857C10.8586 43.3943 12.7182 45.1249 14.9875 45.1249C17.2569 45.1249 19.1165 43.3943 19.3216 41.1857C19.3367 41.0489 19.3442 40.9124 19.3442 40.7759C19.3442 40.5177 19.3216 40.2598 19.276 40.0168C18.9194 37.9751 17.1357 36.4192 14.9877 36.4192Z" fill="#141F39"/>
<path d="M45.1048 36.4192C42.9568 36.4192 41.1731 37.9752 40.8165 40.0168C40.771 40.2598 40.748 40.5177 40.748 40.7759C40.748 40.9124 40.7558 41.0489 40.771 41.1857C40.9759 43.3943 42.8355 45.1249 45.1048 45.1249C47.3742 45.1249 49.2338 43.3943 49.4389 41.1857C49.454 41.0489 49.4615 40.9124 49.4615 40.7759C49.4615 40.5177 49.4389 40.2598 49.3933 40.0168C49.0366 37.9751 47.2529 36.4192 45.1048 36.4192Z" fill="#141F39"/>
</g>
<defs>
<clipPath id="clip0_165_618">
<rect width="60" height="60" fill="white"/>
</clipPath>
</defs>
</svg>
