<svg width="50" height="50" viewBox="0 0 50 50" fill="none" xmlns="http://www.w3.org/2000/svg">
<path fill-rule="evenodd" clip-rule="evenodd" d="M0 21.6773V33.3333C0 35.6346 1.86542 37.5 4.16667 37.5H4.24042C4.74604 41.0335 7.785 43.75 11.4583 43.75C15.1317 43.75 18.1706 41.0335 18.6763 37.5H29.2405C29.746 41.0335 32.7849 43.75 36.4583 43.75C40.1318 43.75 43.1707 41.0335 43.6762 37.5H45.8333C48.1345 37.5 50 35.6346 50 33.3333V10.4167C50 8.11548 48.1345 6.25 45.8333 6.25H18.75C16.4487 6.25 14.5833 8.11548 14.5833 10.4167V12.5H9.76271C8.30062 12.5 6.88479 13.0126 5.76167 13.9486L2.24875 16.876C0.823959 18.0634 0 19.8225 0 21.6773ZM4.16667 22.9167V21.6773C4.16667 21.059 4.44125 20.4727 4.91625 20.0769L8.42917 17.1495C8.80354 16.8375 9.27542 16.6667 9.76271 16.6667H14.5833V22.9167H4.16667ZM36.4583 39.5833C34.7324 39.5833 33.3333 38.1842 33.3333 36.4583C33.3333 34.7325 34.7324 33.3333 36.4583 33.3333C38.1842 33.3333 39.5833 34.7325 39.5833 36.4583C39.5833 38.1842 38.1842 39.5833 36.4583 39.5833ZM11.4583 39.5833C9.7325 39.5833 8.33334 38.1842 8.33334 36.4583C8.33334 34.7325 9.7325 33.3333 11.4583 33.3333C13.1842 33.3333 14.5833 34.7325 14.5833 36.4583C14.5833 38.1842 13.1842 39.5833 11.4583 39.5833Z" fill="#141F39"/>
</svg>
