<svg width="80" height="92" viewBox="0 0 80 92" fill="none" xmlns="http://www.w3.org/2000/svg">
<path d="M10 26.6667L19.0729 34.2273C19.6719 34.7267 20.427 35 21.2068 35H58.793C59.573 35 60.328 34.7267 60.927 34.2273L70 26.6667M21.6667 46.6667H21.7M58.3333 46.6667H58.3667M27.2022 15H52.798C55.1903 15 57.3993 16.2819 58.586 18.3591L68.2433 35.259C69.3943 37.2737 70 39.5537 70 41.8743V61.6667C70 63.5077 68.5077 65 66.6667 65H63.3333C61.4923 65 60 63.5077 60 61.6667V58.3333H20V61.6667C20 63.5077 18.5076 65 16.6667 65H13.3333C11.4924 65 10 63.5077 10 61.6667V41.8743C10 39.5537 10.6055 37.2737 11.7568 35.259L21.4139 18.3591C22.6008 16.2819 24.8098 15 27.2022 15ZM23.3333 46.6667C23.3333 47.587 22.5871 48.3333 21.6667 48.3333C20.7462 48.3333 20 47.587 20 46.6667C20 45.7463 20.7462 45 21.6667 45C22.5871 45 23.3333 45.7463 23.3333 46.6667ZM60 46.6667C60 47.587 59.2537 48.3333 58.3333 48.3333C57.413 48.3333 56.6667 47.587 56.6667 46.6667C56.6667 45.7463 57.413 45 58.3333 45C59.2537 45 60 45.7463 60 46.6667Z" stroke="#141F39" stroke-width="5" stroke-linecap="round" stroke-linejoin="round"/>
<path d="M39.3744 47C42.7461 47 44.8214 49.4228 44.9885 52.8224L44.9994 53.2712V58.5599L50.5474 59.5673C50.7644 59.6067 50.9798 59.655 51.1929 59.7119C55.3787 60.8302 57.924 65.0203 57.052 69.21L56.9454 69.6588L54.3251 79.4666C53.7799 81.5071 52.1428 83.0581 50.1028 83.5077L49.6896 83.5827L43.6441 84.4502C41.3326 84.7819 39.0735 83.6513 37.9433 81.6416L37.7449 81.2547L37.6721 81.0983C37.0851 79.8363 36.204 78.7371 35.1063 77.8909L34.6228 77.544L29.9134 74.4045L29.6787 74.2585L29.4352 74.1276L23.528 71.189C22.9042 70.8787 22.504 70.2482 22.4885 69.5518C22.4271 66.7803 23.6523 64.642 26.0359 63.4502C27.7905 62.5729 30.1235 62.6224 33.1014 63.4918L33.7494 63.6906V53.2712C33.7494 49.638 35.8562 47 39.3744 47ZM39.3744 50.75C38.2245 50.75 37.5935 51.4374 37.5092 52.9159L37.4994 53.2712V66.3813C37.4994 67.7163 36.1439 68.6236 34.9097 68.1147C31.2581 66.6091 28.8062 66.2577 27.713 66.8043C27.078 67.1218 26.6624 67.5316 26.4385 68.1018L26.3423 68.4006L31.1055 70.7701L31.5576 71.0132L31.9936 71.2843L36.7029 74.4238C38.4097 75.5617 39.8048 77.1027 40.7676 78.906L41.0723 79.5167L41.145 79.673C41.4551 80.3396 42.1208 80.7556 42.8399 80.7573L43.1114 80.7382L49.157 79.8707C49.8074 79.7774 50.3542 79.3524 50.6106 78.7616L50.7021 78.4987L53.3225 68.6908C53.9462 66.3565 52.5594 63.9585 50.225 63.3348L50.052 63.2924L42.7895 61.9699C41.9869 61.8242 41.3815 61.1806 41.2685 60.3926L41.2494 60.1251V53.2712C41.2494 51.5472 40.6128 50.75 39.3744 50.75ZM39.3715 38.2505C47.3112 38.2505 53.7476 44.6869 53.7476 52.6266C53.7476 54.3835 53.4324 56.0668 52.8555 57.6231L52.4951 57.4914C52.1335 57.3643 51.6213 57.2006 50.9767 57.0523C50.375 56.9139 49.7689 56.8207 49.1583 56.7726C49.6987 55.4987 49.9976 54.0975 49.9976 52.6266C49.9976 46.758 45.2401 42.0005 39.3715 42.0005C33.5029 42.0005 28.7455 46.758 28.7455 52.6266C28.7455 55.2371 29.6869 57.6277 31.2487 59.4775C30.4399 59.5473 29.7531 59.6502 29.1883 59.7862C28.3108 59.9975 27.7183 60.2106 27.3078 60.4422C25.8449 58.1967 24.9955 55.5108 24.9955 52.6266C24.9955 44.6869 31.4319 38.2505 39.3715 38.2505Z" fill="#FFA500"/>
</svg>
