<svg width="60" height="60" viewBox="0 0 60 60" fill="none" xmlns="http://www.w3.org/2000/svg">
<g clip-path="url(#clip0_97_4060)">
<path d="M47.7782 29.9999C47.7782 39.8248 39.8253 47.7777 30.0004 47.7777V29.9999H47.7782ZM30.0004 12.2222V29.9999H12.2227C12.2227 20.1751 20.1756 12.2222 30.0004 12.2222Z" fill="black"/>
<path d="M30 12.2222V13.1969C39.2643 13.1969 46.803 20.7339 46.803 30H47.7778C47.7778 20.1822 39.8178 12.2222 30 12.2222ZM30 46.803C20.7357 46.803 13.197 39.2661 13.197 30H12.2222C12.2222 39.8178 20.1822 47.7778 30 47.7778M30 0C13.4319 0 0 13.4319 0 30C0 46.5681 13.4319 60 30 60C46.5681 60 60 46.5681 60 30C60 13.4319 46.5681 0 30 0ZM58.0492 30C58.0492 45.4904 45.4921 58.0492 30 58.0492C14.5079 58.0492 1.95085 45.4904 1.95085 30C1.95085 14.5096 14.5096 1.95085 30 1.95085C45.4904 1.95085 58.0492 14.5096 58.0492 30Z" fill="black"/>
<path d="M17.1801 15.5273C18.1388 14.5245 18.6816 13.3659 17.7229 12.2599C17.2013 11.6596 16.3254 11.5283 15.5994 11.8241L15.5271 11.8521L15.5501 11.7891C15.6576 11.5038 15.7263 10.5938 14.9456 9.96548C14.565 9.65921 14.0874 9.54545 13.6045 9.59446C12.704 9.68546 12.0115 10.2962 10.1259 12.3841C9.55665 13.0142 8.7284 14.0082 8.23145 14.6523L13.4107 19.5315C15.1271 17.6449 15.8267 16.9431 17.1801 15.5273ZM10.4219 14.3337C11.4652 13.0667 12.5736 11.9168 13.0759 11.4618C13.2345 11.3183 13.4072 11.1748 13.6169 11.1188C13.957 11.026 14.3077 11.2658 14.387 11.6123C14.4663 11.9606 14.246 12.2914 14.001 12.5644C13.4495 13.1822 11.4264 15.284 11.4264 15.284L10.4219 14.3337ZM12.4503 16.2448C12.4503 16.2448 14.4205 14.1762 15.0637 13.5147C15.3192 13.2522 15.4831 13.0929 15.6593 13.0072C15.8866 12.8969 16.1351 12.8741 16.3572 13.0212C16.5757 13.1664 16.6761 13.4167 16.6215 13.6652C16.5563 13.961 16.3131 14.2427 16.1122 14.458C15.8408 14.7468 13.5041 17.2302 13.5006 17.2337L12.4503 16.2448ZM30.5926 9.70821L32.2509 6.019L32.3566 5.69173L32.3266 6.033L32.5011 10.963C33.0826 11.0173 33.6836 11.0978 34.2757 11.1958L34.0061 3.89437C33.1778 3.80337 32.3531 3.73862 31.5283 3.70361L29.8947 7.7306L29.8366 8.02987L29.7784 7.7306L28.1466 3.70361C27.3219 3.73862 26.4971 3.80337 25.6689 3.89437L25.3992 11.1958C25.9914 11.0978 26.5923 11.019 27.1738 10.963L27.3483 6.033L27.3183 5.69173L27.4241 6.019L29.0823 9.70821H30.5926ZM44.3645 17.3404C44.7716 17.7744 45.3585 18.4745 45.688 18.8997L51.7572 15.074C51.4541 14.6803 50.9712 14.0817 50.6099 13.6599L46.7665 16.1836L46.5039 16.4076L46.6995 16.1241L48.3966 12.7604L47.1965 11.5686L43.8077 13.2539L43.5222 13.4482L43.7495 13.1874L46.2924 9.37219C45.8448 8.99417 45.4148 8.64765 44.8668 8.22763L41.0145 14.2497C41.5027 14.6225 42.1459 15.1703 42.5565 15.5431L46.1832 13.6739L46.4158 13.5042L46.2449 13.7352L44.3645 17.3404Z" fill="black"/>
</g>
<defs>
<clipPath id="clip0_97_4060">
<rect width="60" height="60" fill="white"/>
</clipPath>
</defs>
</svg>
