<svg width="60" height="22" viewBox="0 0 60 22" fill="none" xmlns="http://www.w3.org/2000/svg">
<g clip-path="url(#clip0_98_4143)">
<path d="M30 0C13.4248 0 0 4.82622 0 10.7976C0 16.7673 13.4257 21.5948 30 21.5948C46.5763 21.5948 60 16.767 60 10.7976C60 4.82599 46.5765 0 30 0Z" fill="black"/>
<path d="M30.1521 20.648C14.1908 20.648 1.25195 16.1894 1.25195 10.689C1.25195 5.18788 14.191 0.729492 30.1521 0.729492C46.1118 0.729492 59.05 5.18765 59.05 10.689C59.05 16.1892 46.1114 20.648 30.1521 20.648ZM30.1521 1.59237C14.7516 1.59237 2.2679 5.66433 2.2679 10.689C2.2679 15.7138 14.7512 19.7863 30.1521 19.7863C45.5524 19.7863 58.034 15.7136 58.034 10.689C58.034 5.66433 45.5514 1.59237 30.1521 1.59237Z" fill="white"/>
<path d="M22.6127 3.20956C22.2026 3.21085 21.7904 3.22681 21.3754 3.26077C18.6189 3.49049 15.9952 5.02717 15.9905 7.36022C15.9875 8.5433 16.837 9.50193 18.1532 9.45975C19.6998 9.40782 20.9694 8.18095 21.6341 6.63413C21.8863 6.04724 21.4192 5.80346 21.197 6.14135C20.8099 6.73163 20.2707 7.20653 19.6363 7.51596C18.9086 7.86882 18.1307 7.77362 17.8949 7.18854C17.5633 6.36308 18.2525 5.12789 19.8252 4.54667C22.0968 3.71395 24.4736 4.26479 26.7606 4.69022C26.7932 4.69022 26.9151 4.75712 26.8074 4.81268C26.3978 5.03379 25.9946 5.21359 25.3664 5.74878C24.916 6.13066 24.3264 6.6391 23.8704 7.19288C23.4178 7.73872 23.0969 8.22558 22.6724 8.7653C22.6132 8.84331 22.5403 8.83971 22.5413 8.83971C21.5065 9.01274 20.4935 9.12866 19.566 9.76725C19.3741 9.89833 19.2909 10.131 19.4072 10.309C19.5117 10.4668 19.7508 10.4836 19.9168 10.3641C20.4931 9.9373 21.0863 9.73639 21.7666 9.7178C21.7964 9.71961 21.8106 9.72438 21.819 9.74253C21.8242 9.75273 21.8211 9.77423 21.8088 9.7901C20.7897 11.19 20.5345 11.5063 19.7678 12.3742C19.3757 12.8203 18.99 13.1968 18.5591 13.5886C16.8184 15.1899 14.9461 15.1622 14.2744 14.1583C13.873 13.5557 13.9259 12.9232 14.189 12.3985C14.5128 11.7558 15.1672 11.2848 15.7115 11.0097C15.9135 10.9076 15.9716 10.6518 15.7693 10.4187C15.6408 10.2668 15.3289 10.2398 15.0967 10.2819C14.3837 10.4123 13.5412 10.946 13.0434 11.5882C12.4824 12.3089 12.2021 13.1838 12.2963 14.1658C12.4652 15.9376 13.9386 16.961 15.6113 16.9492C16.9422 16.9389 18.1959 16.5396 19.7045 15.0233C21.1107 13.6092 22.3919 11.4968 23.5915 9.53792C23.6291 9.47533 23.6558 9.44177 23.8382 9.41932C24.5906 9.32612 25.7016 9.22002 26.4137 9.17921C26.572 9.17059 26.6042 9.17233 26.6677 9.25057C26.8532 9.48234 27.1318 9.67904 27.355 9.79878C27.4638 9.85728 27.5156 9.88648 27.6011 9.88784C27.7065 9.89011 27.7886 9.83393 27.8416 9.77452C27.9172 9.69243 27.938 9.58505 27.8972 9.51589C27.8546 9.44332 27.358 9.17082 27.3432 9.06061C27.3324 8.9919 27.4083 8.9753 27.4083 8.9753C27.7734 8.86191 28.1532 8.62856 28.3834 8.19202C28.6095 7.76228 28.646 7.18875 28.2323 6.86991C27.8693 6.58984 27.3207 6.63404 26.8831 7.02296C26.4549 7.40053 26.3132 7.94987 26.3711 8.43132C26.3815 8.51477 26.3772 8.54285 26.2622 8.55237C25.6041 8.60453 24.97 8.62263 24.2647 8.6596C24.2176 8.663 24.2026 8.63214 24.23 8.59971C25.0421 7.20278 26.2546 6.20801 27.5958 5.22835C27.6847 5.16235 27.6575 5.03687 27.6539 4.9321C30.0754 5.453 32.4155 6.4225 34.9277 6.40186C35.9666 6.39347 36.9612 6.23702 37.9118 5.72065C38.7479 5.26914 39.0872 4.85145 39.1122 4.41741C39.1317 4.11739 38.9209 3.92774 38.6209 3.99237C36.0826 4.56974 33.6611 4.56336 31.1358 4.26085C28.2514 3.91419 25.4837 3.20056 22.6127 3.20956ZM27.6795 7.25803C27.7388 7.26118 27.7943 7.28087 27.8392 7.31897C27.973 7.43213 27.9097 7.71447 27.7745 7.90995C27.6269 8.12561 27.3765 8.31178 27.1481 8.35714C27.1023 8.36553 27.0627 8.34604 27.0438 8.24557C27.0066 7.97957 27.094 7.62333 27.3811 7.37229C27.471 7.29363 27.5806 7.2528 27.6795 7.25803ZM48.0559 7.30901C47.5944 7.30901 46.9892 7.30983 46.5082 7.30983C46.3937 7.30983 46.3345 7.32367 46.2803 7.42912C46.1029 7.76588 43.9399 10.9755 43.5372 11.5989C43.4696 11.6937 43.3866 11.6805 43.3771 11.5723C43.3363 11.2022 43.0135 10.7768 42.5049 10.5731C42.1171 10.4174 41.7379 10.3893 41.344 10.441C40.6326 10.5355 39.9989 10.9075 39.4415 11.3263C38.6017 11.9588 37.8773 12.7776 36.9418 13.3831C36.4311 13.7126 35.732 14 35.2642 13.5714C34.8408 13.1827 34.8884 12.3191 35.5363 11.6515C35.6046 11.5814 35.6864 11.6399 35.6735 11.7027C35.6123 12.0048 35.6876 12.3051 35.9191 12.5158C36.2017 12.7663 36.6062 12.7949 36.9523 12.6276C37.3609 12.4273 37.6009 12.0401 37.6712 11.6006C37.7794 10.9192 37.2494 10.3181 36.5868 10.27C36.0482 10.2326 35.5319 10.4181 35.0289 10.8294C34.7765 11.0365 34.6329 11.1898 34.4149 11.4968C34.3616 11.5726 34.28 11.5803 34.2827 11.4685C34.3079 10.5961 33.9432 10.1051 33.2146 10.089C32.6495 10.0759 32.0452 10.3792 31.5744 10.7512C31.0583 11.1616 30.607 11.7054 30.1233 12.2166C30.0632 12.2796 30.0106 12.2767 29.9938 12.1545C29.9791 11.5764 29.8323 11.0165 29.562 10.619C29.4665 10.4806 29.2653 10.4121 29.0961 10.5055C29.0181 10.5479 28.7463 10.6716 28.5488 10.8292C28.4506 10.9093 28.4126 11.0251 28.4557 11.1736C28.7165 12.0369 28.6591 13.0189 28.3054 13.8484C27.9804 14.6077 27.3488 15.293 26.6068 15.5248C26.1179 15.6783 25.6095 15.6032 25.2949 15.1739C24.8629 14.5816 25.0376 13.5516 25.6812 12.696C26.2497 11.9431 27.0713 11.4646 27.8916 11.1564C27.9882 11.1197 28.0078 11.0585 27.9806 10.9773C27.936 10.8435 27.865 10.662 27.8358 10.5788C27.7607 10.3808 27.55 10.3484 27.2931 10.3763C26.6974 10.445 26.1601 10.647 25.6293 10.9285C24.2391 11.6655 23.5425 13.0919 23.2368 13.8552C23.0898 14.2215 22.964 14.4505 22.8014 14.6533C22.5823 14.9261 22.3072 15.1742 21.8043 15.6116C21.7589 15.6518 21.7249 15.7354 21.763 15.813C21.8145 15.9184 22.0759 16.284 22.1498 16.3166C22.2317 16.3565 22.3267 16.3008 22.3648 16.2736C22.7167 16.0375 23.1379 15.6631 23.344 15.4091C23.4161 15.3223 23.4906 15.3588 23.5289 15.4908C23.7212 16.1702 24.2248 16.7248 24.9212 16.9568C26.1957 17.3825 27.5178 16.7664 28.5156 15.694C29.1497 15.0126 29.3785 14.5741 29.6216 14.2762C30.0334 13.7707 30.8462 12.64 31.8138 11.9141C32.1687 11.6465 32.589 11.4424 32.8003 11.5778C32.9697 11.6866 33.0244 11.9394 32.7523 12.4293C31.7658 14.2133 30.3135 16.3094 30.0472 16.8181C29.9987 16.9063 30.0411 16.9755 30.1343 16.9755C30.6507 16.9732 31.1627 16.9743 31.6315 16.9743C31.7093 16.9706 31.7445 16.9355 31.7835 16.8809C32.5407 15.7073 33.2534 14.5898 34.0172 13.4349C34.0603 13.3668 34.0995 13.4196 34.1011 13.4493C34.117 13.7171 34.1834 14.0838 34.3439 14.3247C34.6328 14.7696 35.042 14.9607 35.496 14.9637C35.857 14.9678 36.0395 14.9134 36.4289 14.7694C36.7013 14.6681 36.9591 14.5312 37.1954 14.362C37.3095 14.2838 37.3294 14.415 37.3265 14.4352C37.1514 15.367 37.3678 16.4708 38.303 16.9287C39.4223 17.4752 40.6519 16.7072 41.3595 16.0139C41.4286 15.947 41.5033 15.9541 41.5103 16.0978C41.5252 16.3627 41.6459 16.6768 41.8672 16.8968C42.46 17.486 43.6565 17.2526 44.8573 16.3321C45.6283 15.7432 46.4349 14.9107 47.1635 14.0292C47.1905 13.9952 47.2106 13.9401 47.1585 13.8847C47.0474 13.7698 46.8869 13.6382 46.7769 13.5368C46.7268 13.4946 46.653 13.5067 46.6106 13.5387C45.8639 14.2419 45.1917 15.0441 44.2198 15.7074C43.8921 15.9337 43.37 16.1165 43.1353 15.8022C43.0439 15.6802 43.0544 15.5112 43.1445 15.2896C43.4282 14.5898 47.9135 7.82781 48.1461 7.42959L48.1466 7.42912C48.1865 7.35972 48.1443 7.30901 48.0559 7.30901ZM41.771 11.5364C41.8885 11.5354 41.9984 11.5578 42.0986 11.6055C42.651 11.8665 42.4745 12.4999 42.2276 12.9972C42.2192 13.0127 42.214 13.0298 42.2123 13.0474C42.2106 13.065 42.2124 13.0828 42.2176 13.0997C42.2267 13.1514 42.2946 13.2015 42.3615 13.2253C42.3849 13.234 42.3981 13.2507 42.3716 13.3051C42.1807 13.7099 42.0056 13.9433 41.7663 14.2948C41.5468 14.6198 41.2991 14.8731 40.9989 15.1171C40.5465 15.4879 39.9184 15.8913 39.399 15.6201C39.1682 15.5012 39.0686 15.1817 39.0731 14.9229C39.0852 14.195 39.4111 13.448 40.0147 12.7137C40.6128 11.9848 41.2621 11.5409 41.771 11.5364Z" fill="white"/>
</g>
<defs>
<clipPath id="clip0_98_4143">
<rect width="60" height="21.5948" fill="white"/>
</clipPath>
</defs>
</svg>
