<svg width="60" height="66" viewBox="0 0 60 66" fill="none" xmlns="http://www.w3.org/2000/svg">
<path fill-rule="evenodd" clip-rule="evenodd" d="M29.9999 1.87744C20.9286 1.87744 11.5123 2.6493 1.95533 4.29291C1.81265 8.11056 1.65002 14.0115 1.92322 19.0189C2.53169 30.1834 4.99816 38.8488 9.68549 46.2901C14.3587 53.7096 21.5959 60.0894 29.9999 63.8783C38.404 60.0894 45.6404 53.7096 50.3137 46.2901C55.0017 38.8488 57.4673 30.1834 58.0764 19.0189C58.3484 14.0115 58.1865 8.11056 58.0438 4.29291C48.4868 2.6493 39.0713 1.87744 29.9999 1.87744ZM29.9999 2.95299C38.9421 2.95299 48.0218 3.71074 56.9985 5.20627C57.1956 10.8699 57.1955 15.3761 56.9997 18.9608C56.4015 29.935 53.9875 38.4378 49.4013 45.7182C44.8157 52.998 37.9388 59.0114 29.9999 62.6956C22.0604 59.0114 15.1842 52.998 10.5986 45.7182C6.01237 38.4378 3.59777 29.935 3.00018 18.9608C2.80439 15.3761 2.80428 10.8699 3.00135 5.20627C11.978 3.71074 21.0572 2.95299 29.9999 2.95299Z" fill="black"/>
<path fill-rule="evenodd" clip-rule="evenodd" d="M11.2382 8.07575C11.1502 8.07359 11.0564 8.07773 10.9572 8.08794C9.62896 8.22645 8.30261 8.37891 6.97754 8.54614V12.4595C7.20723 12.4301 7.43761 12.402 7.6673 12.374V11.1632C8.76268 11.0291 9.85993 10.9052 10.9572 10.791C11.7506 10.7086 12.194 10.3775 12.194 9.55794V9.11497C12.194 8.41404 11.8546 8.09086 11.2382 8.07575ZM11.1621 8.69802C11.3406 8.67951 11.5197 8.81491 11.5197 8.99427V9.78692C11.5197 9.95735 11.3406 10.1203 11.1621 10.1394C9.99632 10.2588 8.83114 10.3903 7.6673 10.532V9.0913C8.83114 8.94896 9.99632 8.81802 11.1621 8.69802Z" fill="black"/>
<path fill-rule="evenodd" clip-rule="evenodd" d="M28.7276 7.1051C29.9695 7.09617 31.2114 7.10063 32.4527 7.11723V7.74787C31.1257 7.73063 29.7981 7.7268 28.4704 7.73765C28.2907 7.73957 28.1109 7.89467 28.1109 8.07403V10.0349C28.1109 10.2142 28.2907 10.3917 28.4704 10.3898C29.6611 10.3796 30.8512 10.3815 32.0419 10.3949V9.33723C31.3509 9.32957 30.6599 9.32574 29.9695 9.32637V8.6951C30.8858 8.6951 31.802 8.70212 32.7182 8.71553V11.0345C31.4309 11.0153 30.1436 11.0102 28.8563 11.0179C27.9138 11.0243 27.4346 10.8621 27.4346 9.94936V8.24383C27.4346 7.3917 27.8626 7.11149 28.7276 7.1051Z" fill="black"/>
<path fill-rule="evenodd" clip-rule="evenodd" d="M42.1778 7.51466C41.4355 7.51677 41.1016 7.75101 41.1016 8.51896V10.2665C41.1016 11.1965 41.5806 11.378 42.5212 11.4411C43.3849 11.4999 44.2474 11.5648 45.1105 11.6357C46.0415 11.7123 46.5285 11.5539 46.5285 10.675V8.92748C46.5285 8.03195 45.9647 7.79253 45.1105 7.72232C44.2474 7.65083 43.3849 7.58645 42.5212 7.52708C42.3982 7.51879 42.2839 7.51436 42.1778 7.51466ZM42.1368 8.13271C43.2571 8.20611 44.3761 8.29043 45.4952 8.3849C45.6743 8.40022 45.8535 8.56924 45.8535 8.77349V10.7097C45.8535 10.8884 45.6743 11.0524 45.4952 11.0371C44.3761 10.9426 43.2571 10.8582 42.1368 10.7842C41.9314 10.7702 41.777 10.582 41.777 10.4026V8.46716C41.777 8.26227 41.9314 8.11867 42.1368 8.13271Z" fill="black"/>
<path fill-rule="evenodd" clip-rule="evenodd" d="M25.74 7.15039V9.98123C25.74 10.8768 25.2684 11.0734 24.3183 11.1027C23.491 11.1282 22.6637 11.1589 21.8364 11.1959C20.9547 11.2355 20.416 11.0683 20.416 10.1817V7.35082L21.0917 7.31635V10.2666C21.0917 10.4459 21.2459 10.5921 21.4506 10.5825C22.5351 10.5321 23.619 10.4912 24.7035 10.46C24.9095 10.4542 25.0464 10.2972 25.0464 10.1178V7.16763C25.2774 7.16124 25.5084 7.1555 25.74 7.15039Z" fill="black"/>
<path fill-rule="evenodd" clip-rule="evenodd" d="M34.4092 7.15381C36.0753 7.19338 37.7407 7.25594 39.4062 7.34147V7.9721C37.9666 7.8987 36.5264 7.84189 35.0855 7.80232V8.76551C36.367 8.80125 37.648 8.84976 38.9282 8.91167V9.54295C37.648 9.48103 36.367 9.43189 35.0855 9.39678V10.4538C36.5264 10.4934 37.9666 10.5502 39.4062 10.6242V11.2549C37.7407 11.17 36.0753 11.1074 34.4092 11.0672V7.15381Z" fill="black"/>
<path fill-rule="evenodd" clip-rule="evenodd" d="M18.7208 7.44678V8.07741C17.2818 8.16614 15.8435 8.27146 14.4065 8.39337V9.3572C15.6848 9.24805 16.9638 9.15294 18.2435 9.07124V9.70251C16.9638 9.78422 15.6848 9.87932 14.4065 9.98783V11.0455C15.8435 10.9229 17.2818 10.8176 18.7208 10.7295V11.3602C17.0566 11.4623 15.3937 11.5874 13.7314 11.7348V7.82082C15.3937 7.67337 17.0566 7.5489 18.7208 7.44678Z" fill="black"/>
<path fill-rule="evenodd" clip-rule="evenodd" d="M47.7803 7.96094C49.5295 8.13072 51.2775 8.32604 53.0223 8.54562V9.17689C52.268 9.08178 51.5124 8.99115 50.7561 8.90562V12.1884C50.5264 12.1622 50.2967 12.1367 50.0657 12.1111V8.82838C49.305 8.74476 48.5423 8.66625 47.7803 8.59221V7.96094Z" fill="black"/>
<path fill-rule="evenodd" clip-rule="evenodd" d="M24.6354 15.4499C27.8473 15.1684 32.1936 15.0918 36.3454 15.4052C36.5815 15.4231 36.8112 15.4786 37.0294 15.5705C38.3897 16.1411 40.8031 17.3897 43.4865 18.9209C43.6048 18.9886 43.7162 19.0677 43.8185 19.1577C44.5294 19.7826 46.3305 21.6209 46.3305 21.6209L45.7687 21.5099C45.69 21.4945 45.6164 21.4639 45.5499 21.4192C44.4136 20.6577 42.7545 19.6665 41.3642 18.9675C41.1991 18.8852 41.0206 18.8322 40.837 18.813C40.1607 18.7409 39.2464 18.6777 38.6481 18.6535C38.3532 18.6414 38.1523 18.5922 37.8637 18.446C37.3122 18.1671 35.9762 17.5626 35.3108 17.3092C35.0261 17.2007 34.8809 17.1752 34.6019 17.1797C33.4585 17.1962 30.8538 17.2792 29.5236 17.3616C29.4776 17.3641 29.4334 17.3622 29.3886 17.3552L28.7546 17.2562C30.5525 16.9473 34.9967 16.5522 36.8362 16.4558L36.0876 16.2062C35.943 16.1584 35.7926 16.1328 35.6397 16.129C35.2404 16.1195 34.3524 16.1018 33.1997 16.1003L32.8059 16.1004C31.0599 16.1038 28.8135 16.1465 26.7417 16.302C26.5606 16.3154 26.384 16.3588 26.2177 16.4322C25.3808 16.7989 23.3401 17.9027 21.2934 19.0365L20.8389 19.2887C20.3098 19.5827 19.7862 19.8753 19.2891 20.1541C19.2891 20.1541 19.5443 19.8266 19.5936 19.7628C19.6371 19.7073 19.6506 19.6971 19.7094 19.6588C19.7917 19.605 20.0725 19.4205 20.3555 19.2333L20.5652 19.0943C20.7352 18.9815 20.8869 18.8801 20.9724 18.8213C21.0147 18.7926 21.0415 18.7722 21.0946 18.7326C21.7108 18.2692 22.6833 17.4522 23.263 16.946C23.3942 16.8318 23.5055 16.699 23.597 16.5509C23.7844 16.2484 23.9892 15.9203 24.1152 15.7384C24.2227 15.5807 24.4064 15.4703 24.6354 15.4499Z" fill="black"/>
<path fill-rule="evenodd" clip-rule="evenodd" d="M26.1913 18.5464C26.2649 18.5458 26.311 18.6249 26.2745 18.6881L24.7223 21.3543C24.6359 21.5113 24.4913 21.6281 24.3199 21.6798L21.4093 22.5881C21.0715 22.6902 20.7861 22.7451 20.4342 22.7719C19.7886 22.8204 17.8711 22.8804 17.8711 22.8804L17.9133 22.7898C17.9332 22.747 17.9683 22.7132 18.0119 22.6947L18.9191 22.3104C18.9869 22.2817 19.0464 22.2377 19.0919 22.1809L20.4931 20.46C20.5679 20.3681 20.6658 20.28 20.7701 20.2251C21.6959 19.7394 23.3422 19.0098 24.4952 18.6255C24.6039 18.5892 24.7505 18.5662 24.865 18.5649L26.1913 18.5464Z" fill="black"/>
<path fill-rule="evenodd" clip-rule="evenodd" d="M18.948 23.3364C19.0088 23.3313 19.0663 23.3652 19.09 23.4207C19.17 23.6064 19.1482 23.8139 19.0708 23.9913C19.0407 24.0635 18.948 24.1337 18.8718 24.1503L18.2352 24.2913C18.1968 24.2996 18.1616 24.269 18.1642 24.2301L18.2237 23.4845C18.2282 23.4341 18.2678 23.3939 18.3184 23.3901L18.948 23.3364Z" fill="black"/>
<path fill-rule="evenodd" clip-rule="evenodd" d="M33.065 20.1881C33.1603 20.1715 33.2582 20.1849 33.3459 20.2264L34.0106 20.5436C34.0759 20.5749 34.1239 20.6342 34.1412 20.7057C34.2314 21.0849 34.3421 21.5872 34.4163 22.0142C34.4464 22.1917 34.4131 22.373 34.3229 22.5293C34.0478 23.0062 33.4828 23.864 33.1667 24.3249C33.0963 24.4283 33.088 24.5534 33.1098 24.6766C33.2531 25.4668 33.8507 28.2261 33.8507 28.2261L33.4745 27.8847C33.3996 27.8157 33.3504 27.7429 33.3184 27.6478C33.0509 26.8672 32.5506 25.2364 32.3202 24.443C32.2831 24.3121 32.3113 24.1723 32.3977 24.0683C32.7899 23.5934 33.3612 22.8338 33.6952 22.3525C33.7886 22.2172 33.8193 22.0679 33.7643 21.9562C33.6875 21.7991 33.5583 21.5604 33.4342 21.344C33.4009 21.284 33.3452 21.2394 33.2793 21.2177L32.8283 21.0734C32.7496 21.0485 32.6651 21.0498 32.587 21.0779C31.6043 21.4334 30.2824 21.946 29.4737 22.2804C29.3553 22.3296 29.3067 22.3334 29.1634 22.3117C28.9292 22.2772 28.2471 22.1553 27.9125 22.0928C27.8524 22.0813 27.8223 22.0136 27.853 21.9606L28.2497 21.2751C28.3034 21.1825 28.3924 21.1168 28.4973 21.0932C29.7731 20.8034 31.4603 20.4702 33.065 20.1881Z" fill="black"/>
<path fill-rule="evenodd" clip-rule="evenodd" d="M19.1936 20.9067L18.9326 21.2272C18.9179 21.2412 18.9038 21.2546 18.8891 21.2693C18.6594 21.4384 17.6926 22.177 17.4309 22.3838C17.3567 22.4425 17.3273 22.4935 17.31 22.5861C17.2511 22.9129 17.1532 23.534 17.1245 23.878C17.1161 23.9789 17.0726 24.0286 16.9696 24.0701C16.5211 24.2521 15.9894 24.4435 15.5595 24.6152C15.4673 24.6516 15.4417 24.6657 15.3873 24.7072C15.3445 24.7404 14.7731 25.2491 14.7731 25.2491C14.7731 25.2491 16.015 24.944 16.4706 24.8412C16.5793 24.8169 16.626 24.8233 16.7265 24.8706C16.8205 24.914 16.9773 24.9759 17.0598 25.0059C17.1865 25.0525 17.2537 25.0506 17.3938 25.0199C17.907 24.9057 18.7701 24.7014 19.2295 24.5821C19.4681 24.5201 19.5986 24.4557 19.8008 24.3146C20.0209 24.1621 20.5782 23.7453 20.5782 23.7453C20.5782 23.7453 20.568 23.8187 20.5603 23.8595C20.5545 23.8946 20.5417 23.9144 20.5187 23.9418C20.4055 24.0778 20.2071 24.2993 20.1086 24.4008C19.8827 24.6338 19.7477 24.7167 19.4643 24.8348C18.159 25.3774 15.9286 26.2199 14.2555 26.7976C14.1461 26.8359 14.0987 26.8672 14.0175 26.9501C13.9292 27.0395 13.8115 27.1697 13.8115 27.1697C13.8115 27.1697 15.1756 27.2686 15.5921 27.3165C15.7271 27.3318 15.8237 27.3759 15.9267 27.4646C16.269 27.7582 17.4021 28.9218 17.7412 29.3259C17.7412 29.3259 14.5197 29.8601 13.027 30.2297C12.8428 30.275 12.7506 30.3918 12.7091 30.5393C12.5856 30.972 12.2944 32.3635 12.2944 32.3635C12.2944 32.3635 12.1908 32.3303 12.0462 32.2474C11.947 32.1905 11.8965 32.1433 11.7877 32.0284C11.4345 31.6563 10.8542 30.944 10.5752 30.531C10.4933 30.4091 10.4588 30.254 10.5612 30.1295C10.8638 29.758 11.4716 29.0801 11.8069 28.7316C11.8427 28.694 11.8882 28.6282 11.9361 28.5337C12.049 28.3102 12.1977 27.7441 12.2495 27.5397L12.266 27.4736L12.2682 27.4646C12.2682 27.4646 12.265 27.4666 12.2592 27.4702L12.198 27.5086C12.115 27.5607 11.9809 27.6448 11.9233 27.681C11.837 27.7359 11.8133 27.7595 11.7775 27.8348C11.7231 27.9484 11.6277 28.1278 11.5554 28.2522C11.5318 28.2931 11.4684 28.3563 11.4345 28.3825C11.0065 28.7086 10.5336 29.0591 10.1971 29.2952C10.1741 29.3112 10.1446 29.3042 10.1248 29.285C10.0819 29.2422 9.90214 29.0386 9.87015 28.9908C9.84328 28.9505 9.83109 28.9129 9.83109 28.8644C9.83049 28.7795 9.8388 28.6301 9.84712 28.5191C9.85735 28.3876 9.8951 28.325 10.0557 28.1591C10.2355 27.9733 10.4313 27.778 10.6373 27.5776C11.1421 27.1537 12.4166 26.1223 14.6925 24.5023C14.7354 24.4716 14.7744 24.4359 14.8057 24.3931C15.045 24.0714 15.7239 23.1931 15.8915 22.9844C15.9152 22.955 15.9414 22.9276 15.9715 22.904C16.2396 22.6927 16.372 22.6014 16.6439 22.4304C17.278 22.0321 18.5058 21.3057 19.1936 20.9067Z" fill="black"/>
<path fill-rule="evenodd" clip-rule="evenodd" d="M14.0486 31.8525L13.7678 33.7859L12.8125 32.6676C12.9865 32.2917 13.4952 31.9368 14.0486 31.8525Z" fill="black"/>
<path fill-rule="evenodd" clip-rule="evenodd" d="M20.3396 32.8784C19.8636 33.6597 19.2948 34.4895 18.8648 35.0078C18.8085 35.0754 18.7336 35.1278 18.6486 35.1597C18.1783 35.3352 17.3945 35.5995 16.8174 35.775L20.3396 32.8784Z" fill="black"/>
<path fill-rule="evenodd" clip-rule="evenodd" d="M40.6477 20.3258C40.8998 20.2333 41.1762 20.2396 41.4238 20.3437C43.3446 21.1479 46.5744 23.0398 48.3697 24.3726C48.5431 24.5015 48.6122 24.5903 48.6576 24.7983C49.0793 26.7107 49.2392 29.6666 48.9737 32.1553C48.9545 32.3341 48.9187 32.4413 48.8253 32.6322C47.6877 34.9524 46.4074 37.136 45.0599 38.8204L45.0626 38.7929C45.0802 38.6135 45.1769 37.6021 45.1821 37.0549C45.1827 36.993 45.2115 36.9362 45.2608 36.8985C45.511 36.7045 45.8546 36.4287 46.0491 36.2609C46.1438 36.1792 46.1962 36.1179 46.2455 36.0387C46.7945 35.1541 47.7759 33.3017 48.1714 32.1873C48.268 31.9153 48.3064 31.6275 48.2827 31.3396C48.156 29.7866 47.9116 27.6349 47.5475 26.2307C47.4855 25.9913 47.3268 25.789 47.106 25.676C46.7919 25.5152 46.1757 25.2349 44.7726 24.6739C44.5781 24.596 44.3964 24.4881 44.2365 24.3541C43.3164 23.583 41.8781 22.4271 40.983 21.762C40.7213 21.5673 40.3873 21.4964 40.0687 21.5686C39.4167 21.716 38.5868 21.9215 38.1198 22.0479C37.9611 22.0907 37.8984 22.0945 37.7346 22.0754C37.6493 22.0655 37.539 22.0547 37.4232 22.0442L37.2478 22.0288C37.0438 22.0115 36.8525 21.9968 36.7775 21.9911L36.7441 21.9886C38.2663 21.2756 39.7309 20.6603 40.6477 20.3258Z" fill="black"/>
<path fill-rule="evenodd" clip-rule="evenodd" d="M17.9847 30.1365C18.1357 30.088 18.2963 30.0822 18.4498 30.1193C19.1421 30.2852 20.6073 30.6433 21.7148 30.9261C21.8703 30.9656 22.0642 31.1105 22.1467 31.2478L22.3879 31.648C22.4724 31.7884 22.4781 31.9607 22.4033 32.1063C22.2019 32.4956 21.9148 33.0227 21.6113 33.5663L21.3816 33.9751C20.9589 34.7233 20.5379 35.4452 20.2989 35.825C20.1415 36.0758 20.0539 36.1869 19.7736 36.2858C18.684 36.6682 17.3308 37.1252 16.5265 37.385C16.3621 37.4379 16.3064 37.5375 16.3384 37.7194C16.396 38.0507 16.5815 39.1754 16.6526 39.5035C16.6788 39.6248 16.776 39.7211 16.9565 39.6867C17.4319 39.5967 18.6974 39.2877 18.6974 39.2877C18.6974 39.2877 18.3244 39.6318 18.1011 39.8348C18.0602 39.8731 18.0128 39.9011 17.9597 39.9184C17.6149 40.0333 16.7728 40.2688 16.5105 40.3262C16.3058 40.3703 16.1753 40.2899 16.1228 40.0588C16.1228 40.0588 15.7638 38.5345 15.634 38.0162C15.6135 37.9371 15.593 37.8688 15.5681 37.7909C15.4708 37.4909 15.2373 36.9011 15.1055 36.5922C15.0901 36.5565 15.0824 36.5182 15.083 36.4786C15.0869 36.1256 15.1522 35.338 15.1522 35.338C15.1522 35.338 15.927 36.0624 16.3019 36.3241C16.3864 36.3835 16.4369 36.3956 16.5406 36.3694C17.0556 36.2373 18.24 35.8467 18.89 35.6041C19.0385 35.5486 19.1683 35.4554 19.2694 35.3335C19.9419 34.5235 20.7852 33.2635 21.2721 32.3131C21.3393 32.1822 21.352 32.0322 21.3098 31.8918L21.2049 31.5471C21.1742 31.4463 21.0673 31.3327 20.9688 31.295C19.8229 30.8603 18.9194 30.5373 17.858 30.1767L17.9847 30.1365Z" fill="black"/>
<path fill-rule="evenodd" clip-rule="evenodd" d="M38.5181 26.2378L38.9141 26.4095C39.0312 26.4599 39.138 26.534 39.2263 26.6259C41.6545 29.1535 43.5963 31.7744 43.9853 32.465C44.0602 32.5978 44.1114 32.7305 44.1299 32.8825C44.5663 36.5686 44.1913 40.4737 43.3001 43.8707C43.2195 44.1771 43.1292 44.3341 42.8336 44.5556C41.8821 45.2695 40.4617 46.4078 39.0491 47.5684L38.6039 47.9351C36.9023 49.3403 35.2857 50.716 34.5998 51.349C34.4277 51.5086 34.2773 51.6886 34.1545 51.8884C33.8328 52.4098 33.3416 53.3073 33.1005 53.7527L33.0331 53.8774C32.9847 53.9672 32.9567 54.0196 32.9567 54.0196C32.6368 53.3232 31.9394 51.6241 31.7001 50.9373C31.6221 50.7132 31.608 50.5958 31.6905 50.2958C32.0808 48.8718 33.9254 44.7318 34.2843 43.9831L34.2849 44.2894C34.2849 44.3341 34.2779 44.3782 34.2638 44.4203C34.102 44.9099 33.1102 48.1728 32.9087 49.5879C32.8639 49.9026 32.8677 49.9875 32.9087 50.2964C32.997 50.9571 33.393 52.1686 33.393 52.1686C33.393 52.1686 33.6278 51.6796 33.8467 51.349C33.9542 51.1869 34.0188 51.109 34.1941 50.9354C35.0809 50.0605 36.5938 48.7083 38.1696 47.3484L38.7274 46.8689C39.9378 45.8327 41.1463 44.8243 42.101 44.0539C42.3493 43.8535 42.442 43.7194 42.4971 43.339C42.7709 41.465 42.8502 38.1012 42.6852 35.6533C42.6538 35.1912 42.5035 34.7444 42.2424 34.3607C41.6435 33.478 40.9276 32.6425 39.8418 31.5695C39.687 31.4156 39.5814 31.2191 39.5417 31.0046C39.225 29.3195 38.5181 26.2378 38.5181 26.2378Z" fill="black"/>
<path fill-rule="evenodd" clip-rule="evenodd" d="M25.7339 27.4644C25.7339 27.4644 25.9545 28.1772 26.1673 28.9514L26.2417 29.2261C26.3761 29.7305 26.496 30.2285 26.5394 30.5435C26.581 30.8467 26.574 30.9284 26.4658 31.2188C26.2036 31.9145 25.7211 33.0335 25.2064 34.1774L24.9844 34.6681C24.3529 36.056 23.7135 37.3967 23.403 37.9771C23.2501 38.263 23.1061 38.4494 22.8182 38.7411C22.1611 39.4081 20.9032 40.6688 20.1246 41.3741C19.8418 41.6307 19.7656 41.8496 19.708 42.1815C19.6153 42.7145 19.5231 43.6241 19.4975 44.0939C19.4752 44.5069 19.5423 44.7003 19.7733 45.1094C21.1457 47.5509 25.7275 53.1679 27.0327 54.3475C27.1274 54.433 27.1965 54.4904 27.3961 54.6226C27.5881 54.7502 28.2138 55.1549 28.2138 55.1549C28.2388 55.1721 28.2599 55.1951 28.2759 55.2213L28.5024 55.6189C28.5024 55.6189 28.4812 55.6085 28.443 55.5896L28.3452 55.5411C28.2666 55.5021 28.1625 55.4504 28.043 55.3908L27.7522 55.2456C27.3063 55.0225 26.7747 54.7541 26.4953 54.6041C26.3801 54.5421 26.272 54.4694 26.1715 54.3858C24.643 53.1194 19.9589 47.6524 18.5813 45.3698C18.2377 44.7998 18.2025 44.6154 18.2486 44.076C18.335 43.072 18.4687 41.8094 18.5858 41.256C18.6568 40.9222 18.7304 40.7262 18.987 40.4313C19.8491 39.4415 20.9008 38.1347 21.9256 36.7939L22.2858 36.3197C23.8388 34.2627 25.2694 32.2038 25.8036 31.155C25.9258 30.9163 25.9361 30.8333 25.9386 30.608C25.9457 29.9543 25.7364 28.6816 25.6814 28.3599C25.6731 28.3095 25.6705 28.2584 25.675 28.2073L25.7339 27.4644Z" fill="black"/>
<path fill-rule="evenodd" clip-rule="evenodd" d="M29.9221 35.5547C29.9221 35.5547 30.0987 36.5996 30.1525 36.9028C30.1825 37.0745 30.1889 37.1204 30.1454 37.2889C30.0043 37.8308 29.3524 40.6869 28.8305 43.6105L28.7493 44.0724C28.536 45.3038 28.3518 46.5262 28.2445 47.5719C28.1838 48.1661 28.2036 48.3085 28.361 48.8357C28.8069 50.3255 30.4564 54.2178 30.7731 54.9276C30.8083 55.0061 30.8294 55.0885 30.8397 55.1733L30.9587 56.0912C30.4302 55.2953 27.5586 50.0312 26.4306 47.1161C26.2976 46.7727 26.272 46.6036 26.4191 45.9723C27.2035 42.6232 29.3258 36.9321 29.9221 35.5547Z" fill="black"/>
</svg>
