<svg width="60" height="54" viewBox="0 0 60 54" fill="none" xmlns="http://www.w3.org/2000/svg">
<g clip-path="url(#clip0_99_655)">
<path d="M19.8534 0.157852C31.1318 -0.239611 42.4214 0.155033 53.6801 0.878078C54.8654 0.980967 56.0663 0.972511 57.2333 1.22198C57.8647 1.3742 58.5469 1.61522 58.9161 2.18886C59.253 2.81324 59.2601 3.54193 59.3474 4.22973C59.6152 7.60817 59.6942 11.0007 59.9465 14.3791C59.4588 14.4383 58.9711 14.3636 58.4834 14.3481C49.7999 13.8985 41.1092 13.525 32.4116 13.5137C27.907 13.5264 23.3968 13.4827 18.8964 13.7012C17.8055 13.8619 16.5708 14.2269 15.9408 15.1994C19.346 15.8041 22.7442 16.4567 26.148 17.0726C37.4292 19.1839 48.7188 21.2488 60 23.3573C59.9901 25.4968 59.9944 27.6364 59.9986 29.7759C53.6547 28.7259 47.3221 27.5927 40.9824 26.5088C27.3432 24.1579 13.7082 21.7745 0.0648353 19.4461C0.0916148 17.0712 0.193094 14.6977 0.242424 12.3213C0.328401 10.4397 0.274842 8.53277 0.700494 6.68499C0.986611 5.38125 1.51656 4.07047 2.50458 3.13883C4.21001 1.45031 6.67653 0.97533 8.97252 0.737134C12.5906 0.401686 16.2241 0.29175 19.8534 0.157852ZM0 22.5708C19.5405 26.1762 39.074 29.8421 58.6117 33.4686C59.0388 33.5729 59.4954 33.5814 59.9056 33.7378L59.9549 33.8506C59.8478 37.0557 59.7858 40.2636 59.6702 43.4686C59.5955 45.4461 59.3869 47.5152 58.3693 49.2572C57.2784 51.0585 55.246 52.055 53.2347 52.4313C50.2706 52.988 47.2431 53.0247 44.241 53.1896C31.3235 53.7759 18.3791 53.4517 5.48273 52.5638C4.45243 52.4919 3.40381 52.4736 2.4031 52.1875C1.88443 52.024 1.34884 51.7604 1.05567 51.2812C0.741368 50.6526 0.721636 49.9352 0.644117 49.2502C0.367866 45.5109 0.221284 41.7646 0.0253711 38.0211C6.67794 38.444 13.3418 38.6808 20.007 38.8288C26.4426 38.9331 32.8781 38.9316 39.3136 38.9951C40.7019 39.0529 42.203 38.7879 43.2558 37.8125C43.4095 37.6364 43.6589 37.4729 43.6336 37.2093C40.7329 36.7738 37.8492 36.2326 34.9542 35.7562C23.3066 33.7646 11.6533 31.7914 0.00704765 29.7886C-0.00704679 27.3827 0.0098661 24.9767 0 22.5708Z" fill="#19191B"/>
</g>
<defs>
<clipPath id="clip0_99_655">
<rect width="60" height="53.4852" fill="white"/>
</clipPath>
</defs>
</svg>
