<svg width="60" height="60" viewBox="0 0 60 60" fill="none" xmlns="http://www.w3.org/2000/svg">
<g clip-path="url(#clip0_98_4148)">
<path d="M30.0353 57.0638C15.1706 57.0638 2.99231 44.8258 2.99231 29.9611C2.99231 26.618 3.58928 23.4541 4.72354 20.4692L20.5434 52.288C20.7225 52.7059 21.021 53.0641 21.4986 53.0641C21.9761 53.0641 22.2746 52.7059 22.4537 52.288L29.7368 35.9906C29.7965 35.8115 29.9159 35.6324 30.095 35.6324C30.2741 35.6324 30.3338 35.8115 30.4532 35.9906L37.7363 52.288C37.9154 52.7059 38.2139 53.0641 38.6915 53.0641C39.169 53.0641 39.4675 52.7059 39.6466 52.288L55.4665 20.4692C56.6007 23.4541 57.1977 26.618 57.1977 29.9611C57.0783 44.8258 44.9 57.0638 30.0353 57.0638ZM30.0353 23.8122C29.8562 23.8122 29.7965 23.6332 29.6771 23.4541L21.2001 4.35083C23.9462 3.33597 26.931 2.7987 30.0353 2.7987C33.1396 2.7987 36.1245 3.33597 38.8706 4.35083L30.3935 23.4541C30.2741 23.6929 30.2144 23.8122 30.0353 23.8122ZM21.3792 43.4528C21.2001 43.4528 21.1404 43.2737 21.021 43.0946L7.29054 15.3949C9.73814 11.6339 13.0215 8.46997 17.0212 6.26116L26.931 28.2896C27.0504 28.6477 27.3489 28.7671 27.6474 28.7671H32.4232C32.7814 28.7671 33.0202 28.7074 33.1993 28.2896L43.1091 6.26116C47.0491 8.46997 50.3922 11.6339 52.8398 15.3949L38.99 43.0946C38.9303 43.2737 38.8109 43.4528 38.6318 43.4528C38.4527 43.4528 38.393 43.2737 38.2736 43.0946L33.0799 31.2744C32.9008 30.8566 32.662 30.7969 32.3038 30.7969H27.528C27.1698 30.7969 26.931 30.8566 26.7519 31.2744L21.7374 43.0946C21.6777 43.2737 21.5583 43.4528 21.3792 43.4528ZM30.0353 59.8099C46.5715 59.8099 59.8841 46.4973 59.8841 29.9611C59.8841 13.4249 46.5715 0.112305 30.0353 0.112305C13.4991 0.112305 0.186523 13.4249 0.186523 29.9611C0.186523 46.4973 13.4991 59.8099 30.0353 59.8099Z" fill="black"/>
</g>
<defs>
<clipPath id="clip0_98_4148">
<rect width="60" height="60" fill="white"/>
</clipPath>
</defs>
</svg>
