<svg width="60" height="17" viewBox="0 0 60 17" fill="none" xmlns="http://www.w3.org/2000/svg">
<g clip-path="url(#clip0_99_658)">
<path d="M19.2698 0.189941V13.1891H22.0583V0.189941H19.2698ZM22.4024 0.189941V13.1891H25.1909V0.189941H22.4024ZM0.189453 3.19795L1.92781 13.1831H5.07228L5.86729 7.19676L6.69197 13.1831L9.72372 13.2306L11.4383 3.25135L8.80411 3.19795L8.04469 9.64708L7.17848 3.19795H4.54424L3.6365 9.64708L2.85335 3.19795H0.189453ZM25.2325 3.20387L27.5463 11.9728C27.5973 12.1667 27.6376 12.3413 27.659 12.4949C27.6825 12.6472 27.6946 12.7874 27.6946 12.9102C27.6946 13.1973 27.6367 13.4011 27.5167 13.5272C27.3986 13.6527 27.2029 13.7171 26.9352 13.7171H26.1521V16.559C26.4157 16.5824 26.6621 16.599 26.8996 16.6124C27.1378 16.6224 27.3558 16.6301 27.5463 16.6301C28.2065 16.6301 28.683 16.5663 28.9762 16.4462C29.27 16.3255 29.5203 16.1236 29.7296 15.8351C29.886 15.6298 30.0298 15.3291 30.1687 14.9333C30.3062 14.5348 30.5064 13.8016 30.762 12.7322L33.0046 3.20386H30.4119L29.2313 9.01223L28.015 3.20386L25.2325 3.20387ZM15.3066 3.2632C14.0937 3.2632 13.1777 3.53383 12.5537 4.08195C11.9285 4.62939 11.6093 5.44103 11.5985 6.51446H14.2802C14.3051 6.19713 14.4002 5.96208 14.5531 5.80844C14.7068 5.65548 14.92 5.58299 15.2058 5.58299C15.5506 5.58299 15.8055 5.64213 15.9652 5.76691C16.1242 5.89237 16.2084 6.09107 16.2084 6.36614C16.2084 6.85522 15.7727 7.16947 14.9032 7.29761C14.6529 7.33317 14.4522 7.36369 14.304 7.39254C13.1366 7.59917 12.3442 7.92389 11.9248 8.37741C11.5035 8.83093 11.29 9.53038 11.29 10.4777C11.29 11.4485 11.5048 12.2002 11.9308 12.7322C12.3581 13.2642 12.9594 13.5332 13.7403 13.5332C14.2502 13.5332 14.7082 13.4313 15.1168 13.2246C15.5233 13.0187 15.9037 12.7008 16.2559 12.2694L16.2618 13.189H18.8961C18.8961 13.189 18.902 12.2804 18.902 12.1033V6.75178C18.902 6.03661 18.8311 5.48684 18.7003 5.10242C18.5668 4.71867 18.3408 4.37534 18.012 4.07008C17.7457 3.82387 17.3658 3.62965 16.8848 3.48272C16.4024 3.33647 15.8755 3.2632 15.3066 3.2632ZM35.8287 3.2632C34.715 3.2632 33.8697 3.53203 33.2894 4.07008C32.7091 4.60881 32.4173 5.38972 32.4173 6.41954C32.4173 7.27291 32.6161 7.91817 33.0106 8.35961C33.4051 8.79972 34.2459 9.21059 35.538 9.59367C35.5742 9.60508 35.6214 9.62501 35.6804 9.64113C36.3667 9.84575 36.7068 10.1564 36.7068 10.5845C36.7068 10.8428 36.6277 11.0429 36.4754 11.1778C36.3198 11.3126 36.1033 11.3795 35.8169 11.3795C35.5176 11.3795 35.2894 11.2801 35.1405 11.0828C34.9909 10.8836 34.921 10.577 34.921 10.1751H32.2334C32.2924 11.2975 32.6166 12.1384 33.2064 12.6966C33.7961 13.2548 34.6509 13.5332 35.7753 13.5332C36.9876 13.5332 37.909 13.2548 38.5282 12.6966C39.1461 12.1378 39.4538 11.3089 39.4538 10.2107C39.4538 9.33854 39.2639 8.67859 38.8842 8.22909C38.3455 7.59174 38.2745 7.54053 36.4161 6.9535C36.3309 6.93002 36.2028 6.89367 36.0364 6.84671C35.4118 6.66557 35.1049 6.38463 35.1049 6.00423C35.1049 5.7882 35.1666 5.61991 35.2948 5.50586C35.4236 5.39181 35.6089 5.33974 35.8525 5.33974C36.0953 5.33974 36.2973 5.41986 36.4576 5.58892C36.618 5.75799 36.7084 5.98809 36.7305 6.27121H39.2105C39.124 5.27494 38.7992 4.5212 38.2316 4.01669C37.6633 3.51217 36.8626 3.2632 35.8287 3.2632ZM16.1728 8.91731C16.1822 8.96964 16.1893 9.02821 16.1906 9.0953C16.1922 9.16172 16.1906 9.26303 16.1906 9.39788C16.1906 10.0359 16.0914 10.5049 15.8821 10.7981C15.6721 11.0906 15.3377 11.2371 14.8794 11.2371C14.6292 11.2371 14.4381 11.1593 14.304 11.0057C14.1691 10.8541 14.0963 10.6465 14.0963 10.3768C14.0963 9.95617 14.443 9.61521 15.1286 9.36228C15.5647 9.20529 15.9105 9.05753 16.1728 8.91731Z" fill="black"/>
<path d="M43.2807 3.26318C42.0503 3.26318 41.0793 3.71927 40.3735 4.6337C39.6684 5.54745 39.3115 6.79801 39.3115 8.38333C39.3115 9.97133 39.6702 11.2283 40.3854 12.1508C41.0985 13.0732 42.0694 13.5331 43.2985 13.5331C44.4081 13.5331 45.2988 13.1714 45.9683 12.4415C46.5089 11.8533 46.8515 11.0882 46.9947 10.1513C46.9888 10.2567 46.9828 10.3654 46.9828 10.4777C46.9828 11.4484 47.1956 12.2002 47.6236 12.7322C48.0496 13.2642 48.6529 13.5331 49.4331 13.5331C49.9424 13.5331 50.4024 13.4313 50.8096 13.2246C51.2168 13.0187 51.5972 12.7008 51.9487 12.2694L51.9546 13.189H54.5889C54.5889 13.189 54.5889 12.2804 54.5889 12.1033V6.75176C54.5889 6.03659 54.5239 5.48682 54.3931 5.1024C54.2609 4.71865 54.0316 4.37532 53.7049 4.07007C53.4365 3.82385 53.0606 3.62963 52.5776 3.4827C52.0952 3.33645 51.569 3.26318 50.9994 3.26318C49.7885 3.26318 48.8712 3.53381 48.2466 4.08193C47.6213 4.62937 47.2988 5.44102 47.2854 6.51444H49.973C49.9992 6.19711 50.0877 5.96206 50.24 5.80842C50.3943 5.65546 50.6114 5.58297 50.8986 5.58297C51.2427 5.58297 51.497 5.64211 51.658 5.76689C51.8177 5.89235 51.8953 6.09105 51.8953 6.36612C51.8953 6.8552 51.4661 7.16945 50.596 7.29759C50.3458 7.33315 50.145 7.36367 49.9968 7.39252C48.8294 7.59915 48.0324 7.92387 47.6117 8.37739C47.325 8.68698 47.1389 9.1135 47.0481 9.65298C47.0533 9.58352 47.0626 9.51649 47.0659 9.44533H44.3189C44.2854 9.91428 44.1724 10.2678 43.9926 10.5073C43.8095 10.7468 43.5591 10.8692 43.2391 10.8692C42.842 10.8692 42.5527 10.6685 42.3729 10.27C42.1898 9.87351 42.1 9.24408 42.1 8.38333C42.1 7.53398 42.1956 6.91352 42.3848 6.52038C42.574 6.12455 42.8663 5.92708 43.2688 5.92708C43.5888 5.92708 43.8368 6.03144 44.0045 6.24746C44.1709 6.46416 44.265 6.80064 44.2952 7.25013H47.0422C47.0079 6.03112 46.6545 5.06218 45.9742 4.34298C45.2926 3.62177 44.3964 3.26318 43.2807 3.26318ZM59.5607 3.34031C58.9911 3.34031 58.5383 3.50613 58.1961 3.82681C57.854 4.14951 57.5941 4.65453 57.413 5.35158V3.6073H54.8677V13.189H57.6325V9.25547C57.6325 8.51347 57.7624 7.97143 58.0241 7.62391C58.285 7.27706 58.6967 7.10774 59.2522 7.10774C59.3374 7.10774 59.4259 7.11089 59.5192 7.11961C59.6111 7.12899 59.7066 7.13789 59.8099 7.14927V3.34031H59.5607ZM51.8657 8.91729C51.8744 8.96962 51.8807 9.02819 51.8834 9.09528C51.885 9.1617 51.8834 9.26301 51.8834 9.39786C51.8834 10.0359 51.7777 10.5049 51.569 10.798C51.3583 11.0906 51.0271 11.2371 50.5723 11.2371C50.322 11.2371 50.1257 11.1593 49.9908 11.0057C49.8553 10.8541 49.7891 10.6465 49.7891 10.3768C49.7891 9.95615 50.1292 9.61519 50.8155 9.36226C51.2516 9.20528 51.6033 9.05751 51.8657 8.91729Z" fill="#6F7276"/>
</g>
<defs>
<clipPath id="clip0_99_658">
<rect width="60" height="16.8199" fill="white"/>
</clipPath>
</defs>
</svg>
