<svg width="272" height="64" viewBox="0 0 272 64" fill="none" xmlns="http://www.w3.org/2000/svg">
<g filter="url(#filter0_d_55_349)">
<rect x="4" width="264" height="56" rx="20" fill="black"/>
<path d="M46.9609 29.457C46.2839 29.8997 45.6003 30.2253 44.9102 30.4336C44.2331 30.6419 43.569 30.7461 42.918 30.7461C42.2148 30.7461 41.5508 30.6289 40.9258 30.3945C40.3008 30.1471 39.7539 29.7956 39.2852 29.3398C38.8164 28.8841 38.4453 28.3307 38.1719 27.6797C37.9115 27.0286 37.7812 26.293 37.7812 25.4727C37.7812 24.5872 37.9245 23.7734 38.2109 23.0312C38.5104 22.2891 38.9206 21.651 39.4414 21.1172C39.9753 20.5703 40.6068 20.1471 41.3359 19.8477C42.0781 19.5482 42.8919 19.3984 43.7773 19.3984C44.819 19.3984 45.7044 19.6133 46.4336 20.043C47.1628 20.4596 47.7552 21.013 48.2109 21.7031C48.6667 22.3802 48.9987 23.1549 49.207 24.0273C49.4154 24.8867 49.5195 25.7656 49.5195 26.6641C49.5195 28.4349 49.2656 30.0299 48.7578 31.4492C48.25 32.8685 47.5273 34.099 46.5898 35.1406C45.6654 36.1693 44.5586 37.0026 43.2695 37.6406C41.9805 38.2786 40.5547 38.7018 38.9922 38.9102L38.7578 37.9141C41.2578 37.4062 43.1719 36.4622 44.5 35.082C45.8411 33.6888 46.6615 31.8138 46.9609 29.457ZM47.0586 28.4414L47.0781 28.207V27.4648C47.0781 27.0352 47.0586 26.5664 47.0195 26.0586C46.9805 25.5378 46.9089 25.0234 46.8047 24.5156C46.7135 23.9948 46.5768 23.4935 46.3945 23.0117C46.2122 22.5299 45.9779 22.1068 45.6914 21.7422C45.4049 21.3646 45.0534 21.0651 44.6367 20.8438C44.2331 20.6094 43.7578 20.4922 43.2109 20.4922C42.7031 20.4922 42.2604 20.5964 41.8828 20.8047C41.5182 21 41.2057 21.2734 40.9453 21.625C40.6979 21.9766 40.5091 22.3997 40.3789 22.8945C40.2617 23.3763 40.2031 23.9102 40.2031 24.4961C40.2031 25.1471 40.2747 25.7461 40.418 26.293C40.5742 26.8398 40.8021 27.3151 41.1016 27.7188C41.4141 28.1094 41.8047 28.4219 42.2734 28.6562C42.7552 28.8776 43.3216 28.9883 43.9727 28.9883C44.3112 28.9883 44.7344 28.9492 45.2422 28.8711C45.75 28.7799 46.3555 28.6367 47.0586 28.4414ZM60.2422 29.457C59.5651 29.8997 58.8815 30.2253 58.1914 30.4336C57.5143 30.6419 56.8503 30.7461 56.1992 30.7461C55.4961 30.7461 54.832 30.6289 54.207 30.3945C53.582 30.1471 53.0352 29.7956 52.5664 29.3398C52.0977 28.8841 51.7266 28.3307 51.4531 27.6797C51.1927 27.0286 51.0625 26.293 51.0625 25.4727C51.0625 24.5872 51.2057 23.7734 51.4922 23.0312C51.7917 22.2891 52.2018 21.651 52.7227 21.1172C53.2565 20.5703 53.888 20.1471 54.6172 19.8477C55.3594 19.5482 56.1732 19.3984 57.0586 19.3984C58.1003 19.3984 58.9857 19.6133 59.7148 20.043C60.444 20.4596 61.0365 21.013 61.4922 21.7031C61.9479 22.3802 62.2799 23.1549 62.4883 24.0273C62.6966 24.8867 62.8008 25.7656 62.8008 26.6641C62.8008 28.4349 62.5469 30.0299 62.0391 31.4492C61.5312 32.8685 60.8086 34.099 59.8711 35.1406C58.9466 36.1693 57.8398 37.0026 56.5508 37.6406C55.2617 38.2786 53.8359 38.7018 52.2734 38.9102L52.0391 37.9141C54.5391 37.4062 56.4531 36.4622 57.7812 35.082C59.1224 33.6888 59.9427 31.8138 60.2422 29.457ZM60.3398 28.4414L60.3594 28.207V27.4648C60.3594 27.0352 60.3398 26.5664 60.3008 26.0586C60.2617 25.5378 60.1901 25.0234 60.0859 24.5156C59.9948 23.9948 59.8581 23.4935 59.6758 23.0117C59.4935 22.5299 59.2591 22.1068 58.9727 21.7422C58.6862 21.3646 58.3346 21.0651 57.918 20.8438C57.5143 20.6094 57.0391 20.4922 56.4922 20.4922C55.9844 20.4922 55.5417 20.5964 55.1641 20.8047C54.7995 21 54.487 21.2734 54.2266 21.625C53.9792 21.9766 53.7904 22.3997 53.6602 22.8945C53.543 23.3763 53.4844 23.9102 53.4844 24.4961C53.4844 25.1471 53.556 25.7461 53.6992 26.293C53.8555 26.8398 54.0833 27.3151 54.3828 27.7188C54.6953 28.1094 55.0859 28.4219 55.5547 28.6562C56.0365 28.8776 56.6029 28.9883 57.2539 28.9883C57.5924 28.9883 58.0156 28.9492 58.5234 28.8711C59.0312 28.7799 59.6367 28.6367 60.3398 28.4414ZM73.5234 29.457C72.8464 29.8997 72.1628 30.2253 71.4727 30.4336C70.7956 30.6419 70.1315 30.7461 69.4805 30.7461C68.7773 30.7461 68.1133 30.6289 67.4883 30.3945C66.8633 30.1471 66.3164 29.7956 65.8477 29.3398C65.3789 28.8841 65.0078 28.3307 64.7344 27.6797C64.474 27.0286 64.3438 26.293 64.3438 25.4727C64.3438 24.5872 64.487 23.7734 64.7734 23.0312C65.0729 22.2891 65.4831 21.651 66.0039 21.1172C66.5378 20.5703 67.1693 20.1471 67.8984 19.8477C68.6406 19.5482 69.4544 19.3984 70.3398 19.3984C71.3815 19.3984 72.2669 19.6133 72.9961 20.043C73.7253 20.4596 74.3177 21.013 74.7734 21.7031C75.2292 22.3802 75.5612 23.1549 75.7695 24.0273C75.9779 24.8867 76.082 25.7656 76.082 26.6641C76.082 28.4349 75.8281 30.0299 75.3203 31.4492C74.8125 32.8685 74.0898 34.099 73.1523 35.1406C72.2279 36.1693 71.1211 37.0026 69.832 37.6406C68.543 38.2786 67.1172 38.7018 65.5547 38.9102L65.3203 37.9141C67.8203 37.4062 69.7344 36.4622 71.0625 35.082C72.4036 33.6888 73.224 31.8138 73.5234 29.457ZM73.6211 28.4414L73.6406 28.207V27.4648C73.6406 27.0352 73.6211 26.5664 73.582 26.0586C73.543 25.5378 73.4714 25.0234 73.3672 24.5156C73.276 23.9948 73.1393 23.4935 72.957 23.0117C72.7747 22.5299 72.5404 22.1068 72.2539 21.7422C71.9674 21.3646 71.6159 21.0651 71.1992 20.8438C70.7956 20.6094 70.3203 20.4922 69.7734 20.4922C69.2656 20.4922 68.8229 20.5964 68.4453 20.8047C68.0807 21 67.7682 21.2734 67.5078 21.625C67.2604 21.9766 67.0716 22.3997 66.9414 22.8945C66.8242 23.3763 66.7656 23.9102 66.7656 24.4961C66.7656 25.1471 66.8372 25.7461 66.9805 26.293C67.1367 26.8398 67.3646 27.3151 67.6641 27.7188C67.9766 28.1094 68.3672 28.4219 68.8359 28.6562C69.3177 28.8776 69.8841 28.9883 70.5352 28.9883C70.8737 28.9883 71.2969 28.9492 71.8047 28.8711C72.3125 28.7799 72.918 28.6367 73.6211 28.4414ZM128.562 36C128.341 36 128.068 35.9544 127.742 35.8633C127.43 35.7591 127.117 35.6224 126.805 35.4531C126.505 35.2708 126.238 35.0495 126.004 34.7891C125.77 34.5286 125.626 34.2292 125.574 33.8906C125.34 34.3854 125.066 34.7956 124.754 35.1211C124.454 35.4336 124.018 35.5898 123.445 35.5898C123.172 35.5898 122.898 35.5573 122.625 35.4922C122.352 35.4141 122.091 35.3229 121.844 35.2188C121.609 35.1016 121.395 34.9844 121.199 34.8672C121.004 34.737 120.848 34.6198 120.73 34.5156C120.574 34.6979 120.385 34.8802 120.164 35.0625C119.956 35.2318 119.715 35.388 119.441 35.5312C119.181 35.6745 118.888 35.7917 118.562 35.8828C118.237 35.974 117.879 36.0195 117.488 36.0195C116.941 36.0195 116.486 35.9805 116.121 35.9023C116.134 36.0195 116.141 36.1367 116.141 36.2539C116.154 36.3711 116.16 36.4883 116.16 36.6055C116.16 36.8659 116.141 37.1393 116.102 37.4258C116.076 37.7253 116.036 38.0182 115.984 38.3047C115.945 38.5911 115.893 38.8646 115.828 39.125C115.776 39.3854 115.724 39.6133 115.672 39.8086C115.398 40.7982 114.995 41.638 114.461 42.3281C113.94 43.0312 113.328 43.5977 112.625 44.0273C111.922 44.4701 111.147 44.7891 110.301 44.9844C109.467 45.1927 108.602 45.2969 107.703 45.2969C106.805 45.2969 106.043 45.1276 105.418 44.7891C104.806 44.4505 104.311 44.0078 103.934 43.4609C103.556 42.9141 103.283 42.2956 103.113 41.6055C102.957 40.9284 102.879 40.2448 102.879 39.5547C102.879 38.8385 102.944 38.1875 103.074 37.6016C103.217 37.0156 103.374 36.5078 103.543 36.0781C103.725 35.6484 103.986 35.1536 104.324 34.5938L104.5 34.4961C104.591 34.4961 104.637 34.5547 104.637 34.6719C104.48 35.0365 104.357 35.3685 104.266 35.668C104.174 35.9674 104.09 36.3451 104.012 36.8008C103.934 37.2695 103.895 37.8359 103.895 38.5C103.895 39.138 104.012 39.7174 104.246 40.2383C104.493 40.7721 104.819 41.2279 105.223 41.6055C105.626 41.9961 106.089 42.2956 106.609 42.5039C107.13 42.7122 107.677 42.8164 108.25 42.8164C108.966 42.8164 109.689 42.7057 110.418 42.4844C111.16 42.276 111.844 42.0026 112.469 41.6641C113.094 41.3255 113.634 40.9544 114.09 40.5508C114.559 40.1471 114.884 39.7565 115.066 39.3789C115.066 38.7148 115.04 38.0964 114.988 37.5234C114.949 36.9635 114.871 36.4297 114.754 35.9219C114.65 35.4141 114.507 34.9323 114.324 34.4766C114.155 34.0078 113.94 33.5456 113.68 33.0898C113.693 32.8685 113.712 32.6341 113.738 32.3867C113.777 32.1263 113.823 31.8724 113.875 31.625C113.927 31.3776 113.986 31.1562 114.051 30.9609C114.129 30.7526 114.214 30.5898 114.305 30.4727C114.565 30.8633 114.799 31.2799 115.008 31.7227C115.229 32.1654 115.418 32.6146 115.574 33.0703C115.743 33.2396 115.991 33.3958 116.316 33.5391C116.655 33.6693 117.143 33.7344 117.781 33.7344C118.523 33.7344 119.122 33.5846 119.578 33.2852C120.047 32.9857 120.392 32.6081 120.613 32.1523C120.704 31.9701 120.809 31.7552 120.926 31.5078C121.043 31.2474 121.16 31.0065 121.277 30.7852C121.395 30.5508 121.512 30.3555 121.629 30.1992C121.746 30.0299 121.857 29.9453 121.961 29.9453C122.026 29.9453 122.065 30.0299 122.078 30.1992C122.091 30.3555 122.098 30.5508 122.098 30.7852C122.098 31.2279 122 31.7682 121.805 32.4062C121.857 32.4844 121.941 32.569 122.059 32.6602C122.189 32.7513 122.339 32.8424 122.508 32.9336C122.677 33.0247 122.859 33.1029 123.055 33.168C123.25 33.2201 123.439 33.2461 123.621 33.2461C123.96 33.2461 124.233 33.1094 124.441 32.8359C124.663 32.5625 124.897 32.1914 125.145 31.7227C125.236 31.5404 125.32 31.332 125.398 31.0977C125.49 30.8503 125.574 30.6224 125.652 30.4141C125.743 30.1927 125.835 30.0104 125.926 29.8672C126.017 29.724 126.115 29.6523 126.219 29.6523C126.284 29.6523 126.329 29.737 126.355 29.9062C126.382 30.0625 126.395 30.2318 126.395 30.4141C126.395 30.6354 126.375 30.8633 126.336 31.0977C126.31 31.319 126.271 31.5599 126.219 31.8203C126.31 32.1328 126.479 32.4128 126.727 32.6602C126.987 32.8945 127.267 33.0964 127.566 33.2656C127.866 33.4349 128.165 33.5651 128.465 33.6562C128.777 33.7344 129.031 33.7734 129.227 33.7734L128.562 36ZM129.5 24.9648C129.852 25.3555 130.125 25.7201 130.32 26.0586C130.529 26.3841 130.743 26.7747 130.965 27.2305C131.199 27.6862 131.408 28.1745 131.59 28.6953C131.785 29.2161 131.941 29.763 132.059 30.3359C132.189 30.8958 132.254 31.4492 132.254 31.9961C132.254 32.3216 132.228 32.6471 132.176 32.9727C132.137 33.2982 132.078 33.5977 132 33.8711C131.922 34.1445 131.837 34.3854 131.746 34.5938C131.655 34.8021 131.57 34.9518 131.492 35.043C131.453 35.0951 131.342 35.1732 131.16 35.2773C130.991 35.3815 130.776 35.4922 130.516 35.6094C130.255 35.7135 129.956 35.8047 129.617 35.8828C129.279 35.9609 128.927 36 128.562 36C128.263 36 128.035 35.8893 127.879 35.668C127.71 35.4336 127.625 35.1732 127.625 34.8867C127.625 34.6133 127.755 34.3594 128.016 34.125C128.276 33.8906 128.68 33.7734 129.227 33.7734C129.422 33.7734 129.637 33.7474 129.871 33.6953C130.105 33.6302 130.327 33.5586 130.535 33.4805C130.743 33.3893 130.984 33.2331 131.258 33.0117C131.258 32.6471 131.199 32.2565 131.082 31.8398C130.978 31.4232 130.841 31.013 130.672 30.6094C130.503 30.2057 130.314 29.8216 130.105 29.457C129.91 29.0794 129.728 28.7474 129.559 28.4609C129.389 28.1745 129.194 27.8359 128.973 27.4453C128.973 27.3672 128.992 27.1914 129.031 26.918C129.07 26.6445 129.116 26.3646 129.168 26.0781C129.22 25.7917 129.331 25.4206 129.5 24.9648ZM128.016 19.0469L129.988 20.3945L128.992 22.4453L127.039 21.0977L128.016 19.0469ZM143.113 36L142.312 36.0977C142.247 37.0352 142.098 37.9206 141.863 38.7539C141.629 39.5872 141.297 40.375 140.867 41.1172C140.633 41.5339 140.34 41.944 139.988 42.3477C139.637 42.7513 139.259 43.1159 138.855 43.4414C138.465 43.7669 138.068 44.0273 137.664 44.2227C137.26 44.431 136.889 44.5352 136.551 44.5352C135.861 44.418 135.294 44.3138 134.852 44.2227C134.409 44.1315 133.934 44.0273 133.426 43.9102C132.918 43.806 132.449 43.6953 132.02 43.5781C131.59 43.474 131.095 43.3047 130.535 43.0703L130.828 42.9922H131.922C132.286 42.9922 132.69 42.9727 133.133 42.9336C133.589 42.9076 134.064 42.8424 134.559 42.7383C135.053 42.6341 135.561 42.4909 136.082 42.3086C136.616 42.1393 137.143 41.9049 137.664 41.6055C138.81 40.8633 139.695 40.0169 140.32 39.0664C140.958 38.1289 141.382 37.1523 141.59 36.1367C141.16 36.1758 140.717 36.2018 140.262 36.2148C139.806 36.2279 139.331 36.2344 138.836 36.2344C138.419 36.2344 138.068 36.1758 137.781 36.0586C137.508 35.9544 137.286 35.8112 137.117 35.6289C136.948 35.4466 136.824 35.2318 136.746 34.9844C136.668 34.737 136.629 34.4766 136.629 34.2031C136.629 33.9427 136.655 33.6693 136.707 33.3828C136.759 33.0964 136.824 32.8229 136.902 32.5625C136.98 32.3021 137.059 32.0612 137.137 31.8398C137.228 31.6055 137.306 31.4167 137.371 31.2734C137.449 31.1172 137.547 30.9544 137.664 30.7852C137.794 30.6029 137.938 30.4401 138.094 30.2969C138.263 30.1536 138.445 30.0365 138.641 29.9453C138.836 29.8542 139.044 29.8086 139.266 29.8086C139.604 29.8086 139.897 29.8672 140.145 29.9844C140.405 30.1016 140.646 30.2578 140.867 30.4531C141.167 30.7396 141.46 31.1823 141.746 31.7812C142.046 32.3672 142.234 33.0703 142.312 33.8906L143.777 33.7734L143.113 36ZM140.555 33.9102C140.438 33.5456 140.307 33.2591 140.164 33.0508C140.034 32.8294 139.852 32.6276 139.617 32.4453C139.383 32.263 139.083 32.1719 138.719 32.1719C138.445 32.1719 138.224 32.2435 138.055 32.3867C137.885 32.5169 137.749 32.6667 137.645 32.8359C137.553 32.9922 137.482 33.207 137.43 33.4805C137.625 33.6237 137.853 33.7344 138.113 33.8125C138.374 33.8776 138.699 33.9102 139.09 33.9102H140.555ZM146.629 27.875C146.694 27.875 146.818 27.9857 147 28.207C147.182 28.4284 147.365 28.7279 147.547 29.1055C147.742 29.4701 147.911 29.9062 148.055 30.4141C148.198 30.9089 148.27 31.4362 148.27 31.9961C148.27 32.3216 148.243 32.6471 148.191 32.9727C148.152 33.2982 148.094 33.5977 148.016 33.8711C147.938 34.1445 147.853 34.3854 147.762 34.5938C147.671 34.8021 147.586 34.9518 147.508 35.043C147.469 35.0951 147.319 35.1732 147.059 35.2773C146.798 35.3815 146.466 35.4922 146.062 35.6094C145.672 35.7135 145.223 35.8047 144.715 35.8828C144.207 35.9609 143.68 36 143.133 36C142.508 35.9479 142.195 35.6224 142.195 35.0234C142.195 34.75 142.326 34.4766 142.586 34.2031C142.846 33.9167 143.25 33.7734 143.797 33.7734C144.122 33.7734 144.487 33.7474 144.891 33.6953C145.294 33.6302 145.672 33.5586 146.023 33.4805C146.375 33.4023 146.668 33.3242 146.902 33.2461C147.15 33.1549 147.273 33.0768 147.273 33.0117C147.247 32.7383 147.202 32.4909 147.137 32.2695C147.085 32.0482 147.007 31.8398 146.902 31.6445C146.811 31.4362 146.694 31.2344 146.551 31.0391C146.421 30.8307 146.271 30.6029 146.102 30.3555C146.102 30.2773 146.121 30.1016 146.16 29.8281C146.199 29.5547 146.245 29.2747 146.297 28.9883C146.349 28.7018 146.46 28.3307 146.629 27.875ZM147.156 22.1328L149.109 23.5L148.133 25.5508L146.16 24.1836L147.156 22.1328ZM143.914 22.7383L145.887 24.0859L144.891 26.1367L142.938 24.7891L143.914 22.7383ZM182.508 29.457C181.831 29.8997 181.147 30.2253 180.457 30.4336C179.78 30.6419 179.116 30.7461 178.465 30.7461C177.762 30.7461 177.098 30.6289 176.473 30.3945C175.848 30.1471 175.301 29.7956 174.832 29.3398C174.363 28.8841 173.992 28.3307 173.719 27.6797C173.458 27.0286 173.328 26.293 173.328 25.4727C173.328 24.5872 173.471 23.7734 173.758 23.0312C174.057 22.2891 174.467 21.651 174.988 21.1172C175.522 20.5703 176.154 20.1471 176.883 19.8477C177.625 19.5482 178.439 19.3984 179.324 19.3984C180.366 19.3984 181.251 19.6133 181.98 20.043C182.71 20.4596 183.302 21.013 183.758 21.7031C184.214 22.3802 184.546 23.1549 184.754 24.0273C184.962 24.8867 185.066 25.7656 185.066 26.6641C185.066 28.4349 184.812 30.0299 184.305 31.4492C183.797 32.8685 183.074 34.099 182.137 35.1406C181.212 36.1693 180.105 37.0026 178.816 37.6406C177.527 38.2786 176.102 38.7018 174.539 38.9102L174.305 37.9141C176.805 37.4062 178.719 36.4622 180.047 35.082C181.388 33.6888 182.208 31.8138 182.508 29.457ZM182.605 28.4414L182.625 28.207V27.4648C182.625 27.0352 182.605 26.5664 182.566 26.0586C182.527 25.5378 182.456 25.0234 182.352 24.5156C182.26 23.9948 182.124 23.4935 181.941 23.0117C181.759 22.5299 181.525 22.1068 181.238 21.7422C180.952 21.3646 180.6 21.0651 180.184 20.8438C179.78 20.6094 179.305 20.4922 178.758 20.4922C178.25 20.4922 177.807 20.5964 177.43 20.8047C177.065 21 176.753 21.2734 176.492 21.625C176.245 21.9766 176.056 22.3997 175.926 22.8945C175.809 23.3763 175.75 23.9102 175.75 24.4961C175.75 25.1471 175.822 25.7461 175.965 26.293C176.121 26.8398 176.349 27.3151 176.648 27.7188C176.961 28.1094 177.352 28.4219 177.82 28.6562C178.302 28.8776 178.868 28.9883 179.52 28.9883C179.858 28.9883 180.281 28.9492 180.789 28.8711C181.297 28.7799 181.902 28.6367 182.605 28.4414ZM195.789 29.457C195.112 29.8997 194.428 30.2253 193.738 30.4336C193.061 30.6419 192.397 30.7461 191.746 30.7461C191.043 30.7461 190.379 30.6289 189.754 30.3945C189.129 30.1471 188.582 29.7956 188.113 29.3398C187.645 28.8841 187.273 28.3307 187 27.6797C186.74 27.0286 186.609 26.293 186.609 25.4727C186.609 24.5872 186.753 23.7734 187.039 23.0312C187.339 22.2891 187.749 21.651 188.27 21.1172C188.803 20.5703 189.435 20.1471 190.164 19.8477C190.906 19.5482 191.72 19.3984 192.605 19.3984C193.647 19.3984 194.533 19.6133 195.262 20.043C195.991 20.4596 196.583 21.013 197.039 21.7031C197.495 22.3802 197.827 23.1549 198.035 24.0273C198.243 24.8867 198.348 25.7656 198.348 26.6641C198.348 28.4349 198.094 30.0299 197.586 31.4492C197.078 32.8685 196.355 34.099 195.418 35.1406C194.493 36.1693 193.387 37.0026 192.098 37.6406C190.809 38.2786 189.383 38.7018 187.82 38.9102L187.586 37.9141C190.086 37.4062 192 36.4622 193.328 35.082C194.669 33.6888 195.49 31.8138 195.789 29.457ZM195.887 28.4414L195.906 28.207V27.4648C195.906 27.0352 195.887 26.5664 195.848 26.0586C195.809 25.5378 195.737 25.0234 195.633 24.5156C195.542 23.9948 195.405 23.4935 195.223 23.0117C195.04 22.5299 194.806 22.1068 194.52 21.7422C194.233 21.3646 193.882 21.0651 193.465 20.8438C193.061 20.6094 192.586 20.4922 192.039 20.4922C191.531 20.4922 191.089 20.5964 190.711 20.8047C190.346 21 190.034 21.2734 189.773 21.625C189.526 21.9766 189.337 22.3997 189.207 22.8945C189.09 23.3763 189.031 23.9102 189.031 24.4961C189.031 25.1471 189.103 25.7461 189.246 26.293C189.402 26.8398 189.63 27.3151 189.93 27.7188C190.242 28.1094 190.633 28.4219 191.102 28.6562C191.583 28.8776 192.15 28.9883 192.801 28.9883C193.139 28.9883 193.562 28.9492 194.07 28.8711C194.578 28.7799 195.184 28.6367 195.887 28.4414ZM209.07 29.457C208.393 29.8997 207.71 30.2253 207.02 30.4336C206.342 30.6419 205.678 30.7461 205.027 30.7461C204.324 30.7461 203.66 30.6289 203.035 30.3945C202.41 30.1471 201.863 29.7956 201.395 29.3398C200.926 28.8841 200.555 28.3307 200.281 27.6797C200.021 27.0286 199.891 26.293 199.891 25.4727C199.891 24.5872 200.034 23.7734 200.32 23.0312C200.62 22.2891 201.03 21.651 201.551 21.1172C202.085 20.5703 202.716 20.1471 203.445 19.8477C204.188 19.5482 205.001 19.3984 205.887 19.3984C206.928 19.3984 207.814 19.6133 208.543 20.043C209.272 20.4596 209.865 21.013 210.32 21.7031C210.776 22.3802 211.108 23.1549 211.316 24.0273C211.525 24.8867 211.629 25.7656 211.629 26.6641C211.629 28.4349 211.375 30.0299 210.867 31.4492C210.359 32.8685 209.637 34.099 208.699 35.1406C207.775 36.1693 206.668 37.0026 205.379 37.6406C204.09 38.2786 202.664 38.7018 201.102 38.9102L200.867 37.9141C203.367 37.4062 205.281 36.4622 206.609 35.082C207.951 33.6888 208.771 31.8138 209.07 29.457ZM209.168 28.4414L209.188 28.207V27.4648C209.188 27.0352 209.168 26.5664 209.129 26.0586C209.09 25.5378 209.018 25.0234 208.914 24.5156C208.823 23.9948 208.686 23.4935 208.504 23.0117C208.322 22.5299 208.087 22.1068 207.801 21.7422C207.514 21.3646 207.163 21.0651 206.746 20.8438C206.342 20.6094 205.867 20.4922 205.32 20.4922C204.812 20.4922 204.37 20.5964 203.992 20.8047C203.628 21 203.315 21.2734 203.055 21.625C202.807 21.9766 202.618 22.3997 202.488 22.8945C202.371 23.3763 202.312 23.9102 202.312 24.4961C202.312 25.1471 202.384 25.7461 202.527 26.293C202.684 26.8398 202.911 27.3151 203.211 27.7188C203.523 28.1094 203.914 28.4219 204.383 28.6562C204.865 28.8776 205.431 28.9883 206.082 28.9883C206.421 28.9883 206.844 28.9492 207.352 28.8711C207.859 28.7799 208.465 28.6367 209.168 28.4414ZM222.352 29.457C221.674 29.8997 220.991 30.2253 220.301 30.4336C219.624 30.6419 218.96 30.7461 218.309 30.7461C217.605 30.7461 216.941 30.6289 216.316 30.3945C215.691 30.1471 215.145 29.7956 214.676 29.3398C214.207 28.8841 213.836 28.3307 213.562 27.6797C213.302 27.0286 213.172 26.293 213.172 25.4727C213.172 24.5872 213.315 23.7734 213.602 23.0312C213.901 22.2891 214.311 21.651 214.832 21.1172C215.366 20.5703 215.997 20.1471 216.727 19.8477C217.469 19.5482 218.283 19.3984 219.168 19.3984C220.21 19.3984 221.095 19.6133 221.824 20.043C222.553 20.4596 223.146 21.013 223.602 21.7031C224.057 22.3802 224.389 23.1549 224.598 24.0273C224.806 24.8867 224.91 25.7656 224.91 26.6641C224.91 28.4349 224.656 30.0299 224.148 31.4492C223.641 32.8685 222.918 34.099 221.98 35.1406C221.056 36.1693 219.949 37.0026 218.66 37.6406C217.371 38.2786 215.945 38.7018 214.383 38.9102L214.148 37.9141C216.648 37.4062 218.562 36.4622 219.891 35.082C221.232 33.6888 222.052 31.8138 222.352 29.457ZM222.449 28.4414L222.469 28.207V27.4648C222.469 27.0352 222.449 26.5664 222.41 26.0586C222.371 25.5378 222.299 25.0234 222.195 24.5156C222.104 23.9948 221.967 23.4935 221.785 23.0117C221.603 22.5299 221.368 22.1068 221.082 21.7422C220.796 21.3646 220.444 21.0651 220.027 20.8438C219.624 20.6094 219.148 20.4922 218.602 20.4922C218.094 20.4922 217.651 20.5964 217.273 20.8047C216.909 21 216.596 21.2734 216.336 21.625C216.089 21.9766 215.9 22.3997 215.77 22.8945C215.652 23.3763 215.594 23.9102 215.594 24.4961C215.594 25.1471 215.665 25.7461 215.809 26.293C215.965 26.8398 216.193 27.3151 216.492 27.7188C216.805 28.1094 217.195 28.4219 217.664 28.6562C218.146 28.8776 218.712 28.9883 219.363 28.9883C219.702 28.9883 220.125 28.9492 220.633 28.8711C221.141 28.7799 221.746 28.6367 222.449 28.4414Z" fill="white"/>
</g>
<defs>
<filter id="filter0_d_55_349" x="0" y="0" width="272" height="64" filterUnits="userSpaceOnUse" color-interpolation-filters="sRGB">
<feFlood flood-opacity="0" result="BackgroundImageFix"/>
<feColorMatrix in="SourceAlpha" type="matrix" values="0 0 0 0 0 0 0 0 0 0 0 0 0 0 0 0 0 0 127 0" result="hardAlpha"/>
<feOffset dy="4"/>
<feGaussianBlur stdDeviation="2"/>
<feComposite in2="hardAlpha" operator="out"/>
<feColorMatrix type="matrix" values="0 0 0 0 0 0 0 0 0 0 0 0 0 0 0 0 0 0 0.25 0"/>
<feBlend mode="normal" in2="BackgroundImageFix" result="effect1_dropShadow_55_349"/>
<feBlend mode="normal" in="SourceGraphic" in2="effect1_dropShadow_55_349" result="shape"/>
</filter>
</defs>
</svg>
