<svg width="264" height="56" viewBox="0 0 264 56" fill="none" xmlns="http://www.w3.org/2000/svg">
<rect width="264" height="56" rx="20" fill="black"/>
<path d="M56.2061 29.6392C55.4443 30.1372 54.6753 30.5034 53.8989 30.7378C53.1372 30.9722 52.3901 31.0894 51.6577 31.0894C50.8667 31.0894 50.1196 30.9575 49.4165 30.6938C48.7134 30.4155 48.0981 30.02 47.5708 29.5073C47.0435 28.9946 46.626 28.3721 46.3184 27.6396C46.0254 26.9072 45.8789 26.0796 45.8789 25.1567C45.8789 24.1606 46.04 23.2451 46.3623 22.4102C46.6992 21.5752 47.1606 20.8574 47.7466 20.2568C48.3472 19.6416 49.0576 19.1655 49.8779 18.8286C50.7129 18.4917 51.6284 18.3232 52.6245 18.3232C53.7964 18.3232 54.7925 18.5649 55.6128 19.0483C56.4331 19.5171 57.0996 20.1396 57.6123 20.916C58.125 21.6777 58.4985 22.5493 58.7329 23.5308C58.9673 24.4976 59.0845 25.4863 59.0845 26.4971C59.0845 28.4893 58.7988 30.2837 58.2275 31.8804C57.6562 33.4771 56.8433 34.8613 55.7886 36.0332C54.7485 37.1904 53.5034 38.1279 52.0532 38.8457C50.603 39.5635 48.999 40.0396 47.2412 40.2739L46.9775 39.1533C49.79 38.582 51.9434 37.52 53.4375 35.9673C54.9463 34.3999 55.8691 32.2905 56.2061 29.6392ZM56.3159 28.4966L56.3379 28.2329L56.3379 27.3979C56.3379 26.9146 56.3159 26.3872 56.272 25.8159C56.228 25.23 56.1475 24.6514 56.0303 24.0801C55.9277 23.4941 55.7739 22.9302 55.5688 22.3882C55.3638 21.8462 55.1001 21.3701 54.7778 20.96C54.4556 20.5352 54.0601 20.1982 53.5913 19.9492C53.1372 19.6855 52.6025 19.5537 51.9873 19.5537C51.416 19.5537 50.918 19.6709 50.4932 19.9053C50.083 20.125 49.7314 20.4326 49.4385 20.8281C49.1602 21.2236 48.9478 21.6997 48.8013 22.2563C48.6694 22.7983 48.6035 23.3989 48.6035 24.0581C48.6035 24.7905 48.6841 25.4644 48.8452 26.0796C49.021 26.6948 49.2773 27.2295 49.6143 27.6836C49.9658 28.123 50.4053 28.4746 50.9326 28.7383C51.4746 28.9873 52.1118 29.1118 52.8442 29.1118C53.2251 29.1118 53.7012 29.0679 54.2725 28.98C54.8437 28.8774 55.5249 28.7163 56.3159 28.4966ZM71.1475 29.6392C70.3857 30.1372 69.6167 30.5034 68.8403 30.7378C68.0786 30.9722 67.3315 31.0894 66.5991 31.0894C65.8081 31.0894 65.061 30.9575 64.3579 30.6938C63.6548 30.4155 63.0396 30.02 62.5122 29.5073C61.9849 28.9946 61.5674 28.3721 61.2598 27.6396C60.9668 26.9072 60.8203 26.0796 60.8203 25.1567C60.8203 24.1606 60.9814 23.2451 61.3037 22.4102C61.6406 21.5752 62.1021 20.8574 62.688 20.2568C63.2886 19.6416 63.999 19.1655 64.8193 18.8286C65.6543 18.4917 66.5698 18.3232 67.5659 18.3232C68.7378 18.3232 69.7339 18.5649 70.5542 19.0483C71.3745 19.5171 72.041 20.1396 72.5537 20.916C73.0664 21.6777 73.4399 22.5493 73.6743 23.5308C73.9087 24.4976 74.0259 25.4863 74.0259 26.4971C74.0259 28.4893 73.7402 30.2837 73.1689 31.8804C72.5977 33.4771 71.7847 34.8613 70.73 36.0332C69.6899 37.1904 68.4448 38.1279 66.9946 38.8457C65.5444 39.5635 63.9404 40.0396 62.1826 40.2739L61.9189 39.1533C64.7314 38.582 66.8848 37.52 68.3789 35.9673C69.8877 34.3999 70.8105 32.2905 71.1475 29.6392ZM71.2573 28.4966L71.2793 28.2329L71.2793 27.3979C71.2793 26.9146 71.2573 26.3872 71.2134 25.8159C71.1694 25.23 71.0889 24.6514 70.9717 24.0801C70.8691 23.4941 70.7153 22.9302 70.5103 22.3882C70.3052 21.8462 70.0415 21.3701 69.7192 20.96C69.397 20.5352 69.0015 20.1982 68.5327 19.9492C68.0786 19.6855 67.5439 19.5537 66.9287 19.5537C66.3574 19.5537 65.8594 19.6709 65.4346 19.9053C65.0244 20.125 64.6729 20.4326 64.3799 20.8281C64.1016 21.2236 63.8892 21.6997 63.7427 22.2563C63.6108 22.7983 63.5449 23.3989 63.5449 24.0581C63.5449 24.7905 63.6255 25.4644 63.7866 26.0796C63.9624 26.6948 64.2187 27.2295 64.5557 27.6836C64.9072 28.123 65.3467 28.4746 65.874 28.7383C66.416 28.9873 67.0532 29.1118 67.7856 29.1118C68.1665 29.1118 68.6426 29.0679 69.2139 28.98C69.7852 28.8774 70.4663 28.7163 71.2573 28.4966ZM86.0889 29.6392C85.3271 30.1372 84.5581 30.5034 83.7817 30.7378C83.02 30.9722 82.2729 31.0894 81.5405 31.0894C80.7495 31.0894 80.0024 30.9575 79.2993 30.6938C78.5962 30.4155 77.981 30.02 77.4536 29.5073C76.9263 28.9946 76.5088 28.3721 76.2012 27.6396C75.9082 26.9072 75.7617 26.0796 75.7617 25.1567C75.7617 24.1606 75.9229 23.2451 76.2451 22.4102C76.582 21.5752 77.0435 20.8574 77.6294 20.2568C78.23 19.6416 78.9404 19.1655 79.7607 18.8286C80.5957 18.4917 81.5112 18.3232 82.5073 18.3232C83.6792 18.3232 84.6753 18.5649 85.4956 19.0483C86.3159 19.5171 86.9824 20.1396 87.4951 20.916C88.0078 21.6777 88.3813 22.5493 88.6157 23.5308C88.8501 24.4976 88.9673 25.4863 88.9673 26.4971C88.9673 28.4893 88.6816 30.2837 88.1104 31.8804C87.5391 33.4771 86.7261 34.8613 85.6714 36.0332C84.6313 37.1904 83.3862 38.1279 81.936 38.8457C80.4858 39.5635 78.8818 40.0396 77.124 40.2739L76.8604 39.1533C79.6729 38.582 81.8262 37.52 83.3203 35.9673C84.8291 34.3999 85.752 32.2905 86.0889 29.6392ZM86.1987 28.4966L86.2207 28.2329L86.2207 27.3979C86.2207 26.9146 86.1987 26.3872 86.1548 25.8159C86.1108 25.23 86.0303 24.6514 85.9131 24.0801C85.8105 23.4941 85.6567 22.9302 85.4517 22.3882C85.2466 21.8462 84.9829 21.3701 84.6606 20.96C84.3384 20.5352 83.9429 20.1982 83.4741 19.9492C83.02 19.6855 82.4854 19.5537 81.8701 19.5537C81.2988 19.5537 80.8008 19.6709 80.376 19.9053C79.9658 20.125 79.6143 20.4326 79.3213 20.8281C79.043 21.2236 78.8306 21.6997 78.6841 22.2563C78.5522 22.7983 78.4863 23.3989 78.4863 24.0581C78.4863 24.7905 78.5669 25.4644 78.728 26.0796C78.9038 26.6948 79.1602 27.2295 79.4971 27.6836C79.8486 28.123 80.2881 28.4746 80.8154 28.7383C81.3574 28.9873 81.9946 29.1118 82.7271 29.1118C83.1079 29.1118 83.584 29.0679 84.1553 28.98C84.7266 28.8774 85.4077 28.7163 86.1987 28.4966ZM101.03 29.6392C100.269 30.1372 99.4995 30.5034 98.7231 30.7378C97.9614 30.9722 97.2144 31.0894 96.4819 31.0894C95.6909 31.0894 94.9438 30.9575 94.2407 30.6938C93.5376 30.4155 92.9224 30.02 92.395 29.5073C91.8677 28.9946 91.4502 28.3721 91.1426 27.6396C90.8496 26.9072 90.7031 26.0796 90.7031 25.1567C90.7031 24.1606 90.8643 23.2451 91.1865 22.4102C91.5234 21.5752 91.9849 20.8574 92.5708 20.2568C93.1714 19.6416 93.8818 19.1655 94.7021 18.8286C95.5371 18.4917 96.4526 18.3232 97.4487 18.3232C98.6206 18.3232 99.6167 18.5649 100.437 19.0483C101.257 19.5171 101.924 20.1396 102.437 20.916C102.949 21.6777 103.323 22.5493 103.557 23.5308C103.792 24.4976 103.909 25.4863 103.909 26.4971C103.909 28.4893 103.623 30.2837 103.052 31.8804C102.48 33.4771 101.667 34.8613 100.613 36.0332C99.5728 37.1904 98.3276 38.1279 96.8774 38.8457C95.4272 39.5635 93.8232 40.0396 92.0654 40.2739L91.8018 39.1533C94.6143 38.582 96.7676 37.52 98.2617 35.9673C99.7705 34.3999 100.693 32.2905 101.03 29.6392ZM101.14 28.4966L101.162 28.2329L101.162 27.3979C101.162 26.9146 101.14 26.3872 101.096 25.8159C101.052 25.23 100.972 24.6514 100.854 24.0801C100.752 23.4941 100.598 22.9302 100.393 22.3882C100.188 21.8462 99.9243 21.3701 99.6021 20.96C99.2798 20.5352 98.8843 20.1982 98.4155 19.9492C97.9614 19.6855 97.4268 19.5537 96.8115 19.5537C96.2402 19.5537 95.7422 19.6709 95.3174 19.9053C94.9072 20.125 94.5557 20.4326 94.2627 20.8281C93.9844 21.2236 93.772 21.6997 93.6255 22.2563C93.4937 22.7983 93.4277 23.3989 93.4277 24.0581C93.4277 24.7905 93.5083 25.4644 93.6694 26.0796C93.8452 26.6948 94.1016 27.2295 94.4385 27.6836C94.79 28.123 95.2295 28.4746 95.7568 28.7383C96.2988 28.9873 96.936 29.1118 97.6685 29.1118C98.0493 29.1118 98.5254 29.0679 99.0967 28.98C99.668 28.8774 100.349 28.7163 101.14 28.4966ZM115.972 29.6392C115.21 30.1372 114.441 30.5034 113.665 30.7378C112.903 30.9722 112.156 31.0894 111.423 31.0894C110.632 31.0894 109.885 30.9575 109.182 30.6938C108.479 30.4155 107.864 30.02 107.336 29.5073C106.809 28.9946 106.392 28.3721 106.084 27.6396C105.791 26.9072 105.645 26.0796 105.645 25.1567C105.645 24.1606 105.806 23.2451 106.128 22.4102C106.465 21.5752 106.926 20.8574 107.512 20.2568C108.113 19.6416 108.823 19.1655 109.644 18.8286C110.479 18.4917 111.394 18.3232 112.39 18.3232C113.562 18.3232 114.558 18.5649 115.378 19.0483C116.199 19.5171 116.865 20.1396 117.378 20.916C117.891 21.6777 118.264 22.5493 118.499 23.5308C118.733 24.4976 118.85 25.4863 118.85 26.4971C118.85 28.4893 118.564 30.2837 117.993 31.8804C117.422 33.4771 116.609 34.8613 115.554 36.0332C114.514 37.1904 113.269 38.1279 111.819 38.8457C110.369 39.5635 108.765 40.0396 107.007 40.2739L106.743 39.1533C109.556 38.582 111.709 37.52 113.203 35.9673C114.712 34.3999 115.635 32.2905 115.972 29.6392ZM116.082 28.4966L116.104 28.2329L116.104 27.3979C116.104 26.9146 116.082 26.3872 116.038 25.8159C115.994 25.23 115.913 24.6514 115.796 24.0801C115.693 23.4941 115.54 22.9302 115.334 22.3882C115.129 21.8462 114.866 21.3701 114.543 20.96C114.221 20.5352 113.826 20.1982 113.357 19.9492C112.903 19.6855 112.368 19.5537 111.753 19.5537C111.182 19.5537 110.684 19.6709 110.259 19.9053C109.849 20.125 109.497 20.4326 109.204 20.8281C108.926 21.2236 108.713 21.6997 108.567 22.2563C108.435 22.7983 108.369 23.3989 108.369 24.0581C108.369 24.7905 108.45 25.4644 108.611 26.0796C108.787 26.6948 109.043 27.2295 109.38 27.6836C109.731 28.123 110.171 28.4746 110.698 28.7383C111.24 28.9873 111.877 29.1118 112.61 29.1118C112.991 29.1118 113.467 29.0679 114.038 28.98C114.609 28.8774 115.291 28.7163 116.082 28.4966ZM130.913 29.6392C130.151 30.1372 129.382 30.5034 128.606 30.7378C127.844 30.9722 127.097 31.0894 126.365 31.0894C125.574 31.0894 124.827 30.9575 124.124 30.6938C123.42 30.4155 122.805 30.02 122.278 29.5073C121.75 28.9946 121.333 28.3721 121.025 27.6396C120.732 26.9072 120.586 26.0796 120.586 25.1567C120.586 24.1606 120.747 23.2451 121.069 22.4102C121.406 21.5752 121.868 20.8574 122.454 20.2568C123.054 19.6416 123.765 19.1655 124.585 18.8286C125.42 18.4917 126.335 18.3232 127.332 18.3232C128.503 18.3232 129.5 18.5649 130.32 19.0483C131.14 19.5171 131.807 20.1396 132.319 20.916C132.832 21.6777 133.206 22.5493 133.44 23.5308C133.674 24.4976 133.792 25.4863 133.792 26.4971C133.792 28.4893 133.506 30.2837 132.935 31.8804C132.363 33.4771 131.55 34.8613 130.496 36.0332C129.456 37.1904 128.21 38.1279 126.76 38.8457C125.31 39.5635 123.706 40.0396 121.948 40.2739L121.685 39.1533C124.497 38.582 126.65 37.52 128.145 35.9673C129.653 34.3999 130.576 32.2905 130.913 29.6392ZM131.023 28.4966L131.045 28.2329L131.045 27.3979C131.045 26.9146 131.023 26.3872 130.979 25.8159C130.935 25.23 130.854 24.6514 130.737 24.0801C130.635 23.4941 130.481 22.9302 130.276 22.3882C130.071 21.8462 129.807 21.3701 129.485 20.96C129.163 20.5352 128.767 20.1982 128.298 19.9492C127.844 19.6855 127.31 19.5537 126.694 19.5537C126.123 19.5537 125.625 19.6709 125.2 19.9053C124.79 20.125 124.438 20.4326 124.146 20.8281C123.867 21.2236 123.655 21.6997 123.508 22.2563C123.376 22.7983 123.311 23.3989 123.311 24.0581C123.311 24.7905 123.391 25.4644 123.552 26.0796C123.728 26.6948 123.984 27.2295 124.321 27.6836C124.673 28.123 125.112 28.4746 125.64 28.7383C126.182 28.9873 126.819 29.1118 127.551 29.1118C127.932 29.1118 128.408 29.0679 128.979 28.98C129.551 28.8774 130.232 28.7163 131.023 28.4966ZM197.793 30.457C197.793 30.7956 197.76 31.1471 197.695 31.5117C197.643 31.8633 197.572 32.2083 197.48 32.5469C197.389 32.8854 197.285 33.2044 197.168 33.5039C197.064 33.8034 196.966 34.0573 196.875 34.2656C196.25 34.6563 195.488 35.0469 194.59 35.4375C193.704 35.8151 192.695 36.1602 191.562 36.4727C190.443 36.7721 189.219 37.013 187.891 37.1953C186.562 37.3906 185.15 37.4883 183.652 37.4883C182.793 37.4883 181.973 37.3841 181.191 37.1758C180.423 36.9805 179.746 36.681 179.16 36.2773C178.574 35.8607 178.105 35.3464 177.754 34.7344C177.415 34.1094 177.246 33.3802 177.246 32.5469C177.246 32 177.318 31.4857 177.461 31.0039C177.604 30.5221 177.767 30.1055 177.949 29.7539C178.145 29.3893 178.327 29.1029 178.496 28.8945C178.665 28.6732 178.783 28.5625 178.848 28.5625C178.926 28.5625 178.965 28.6016 178.965 28.6797C178.835 28.9661 178.724 29.207 178.633 29.4023C178.555 29.5977 178.483 29.8255 178.418 30.0859C178.353 30.3464 178.32 30.6393 178.32 30.9648C178.32 31.5247 178.457 32.0586 178.73 32.5664C179.004 33.0742 179.408 33.5234 179.941 33.9141C180.488 34.3047 181.159 34.6172 181.953 34.8516C182.76 35.0729 183.691 35.1836 184.746 35.1836C185.749 35.1836 186.81 35.1055 187.93 34.9492C189.062 34.7799 190.163 34.5651 191.23 34.3047C192.298 34.0443 193.294 33.7448 194.219 33.4063C195.156 33.0677 195.937 32.7227 196.562 32.3711C196.562 31.8112 196.484 31.2708 196.328 30.75C196.172 30.2292 195.944 29.7734 195.645 29.3828C195.645 29.2266 195.671 29.0313 195.723 28.7969C195.788 28.5495 195.859 28.3021 195.937 28.0547C196.016 27.8073 196.1 27.5729 196.191 27.3516C196.283 27.1172 196.367 26.9349 196.445 26.8047C196.549 26.9089 196.68 27.0911 196.836 27.3516C196.992 27.599 197.142 27.8919 197.285 28.2305C197.428 28.556 197.546 28.9141 197.637 29.3047C197.741 29.6823 197.793 30.0664 197.793 30.457ZM188.027 22.0586L189.98 23.4258L189.004 25.4766L187.031 24.1094L188.027 22.0586ZM184.785 22.6641L186.758 24.0117L185.762 26.0625L183.809 24.7148L184.785 22.6641ZM213.281 42.8203C214.023 42.8203 214.772 42.7292 215.527 42.5469C216.283 42.3776 216.979 42.1367 217.617 41.8242C218.255 41.5117 218.796 41.1471 219.238 40.7305C219.681 40.3138 219.954 39.8646 220.059 39.3828C220.046 38.4583 219.961 37.6641 219.805 37C219.648 36.3229 219.453 35.737 219.219 35.2422C218.997 34.7344 218.757 34.2982 218.496 33.9336C218.249 33.556 218.021 33.2044 217.812 32.8789C217.812 32.7357 217.839 32.5534 217.891 32.332C217.943 32.0977 218.008 31.8698 218.086 31.6484C218.164 31.4141 218.249 31.2057 218.34 31.0234C218.431 30.8281 218.516 30.6914 218.594 30.6133C219.01 31.0299 219.368 31.5247 219.668 32.0977C219.967 32.6706 220.208 33.2826 220.391 33.9336C220.586 34.5846 220.729 35.2552 220.82 35.9453C220.911 36.6354 220.957 37.3125 220.957 37.9766C220.957 39.2526 220.729 40.3464 220.273 41.2578C219.818 42.1823 219.212 42.944 218.457 43.543C217.702 44.1419 216.842 44.5846 215.879 44.8711C214.928 45.1576 213.958 45.3008 212.969 45.3008C211.992 45.3008 211.178 45.125 210.527 44.7734C209.889 44.4349 209.375 43.9922 208.984 43.4453C208.607 42.8984 208.333 42.293 208.164 41.6289C208.008 40.9648 207.93 40.3073 207.93 39.6563C207.93 39.0313 207.995 38.4453 208.125 37.8984C208.255 37.3646 208.398 36.9023 208.555 36.5117C208.724 36.1081 208.887 35.7956 209.043 35.5742C209.212 35.3529 209.336 35.2422 209.414 35.2422C209.505 35.2422 209.551 35.2747 209.551 35.3398C209.434 35.6784 209.336 35.9844 209.258 36.2578C209.18 36.5182 209.108 36.8438 209.043 37.2344C208.991 37.625 208.965 38.0938 208.965 38.6406C208.965 39.2656 209.082 39.832 209.316 40.3398C209.551 40.8607 209.863 41.3034 210.254 41.668C210.658 42.0326 211.12 42.3125 211.641 42.5078C212.161 42.7161 212.708 42.8203 213.281 42.8203ZM213.809 26.6484L215.781 27.9961L214.785 30.0469L212.832 28.6992L213.809 26.6484Z" fill="white"/>
</svg>
