<svg width="264" height="56" viewBox="0 0 264 56" fill="none" xmlns="http://www.w3.org/2000/svg">
<rect width="264" height="56" rx="20" fill="black"/>
<path d="M42.9609 29.457C42.2839 29.8997 41.6003 30.2253 40.9102 30.4336C40.2331 30.6419 39.569 30.7461 38.918 30.7461C38.2148 30.7461 37.5508 30.6289 36.9258 30.3945C36.3008 30.1471 35.7539 29.7956 35.2852 29.3398C34.8164 28.8841 34.4453 28.3307 34.1719 27.6797C33.9115 27.0286 33.7812 26.293 33.7812 25.4727C33.7812 24.5872 33.9245 23.7734 34.2109 23.0312C34.5104 22.2891 34.9206 21.651 35.4414 21.1172C35.9753 20.5703 36.6068 20.1471 37.3359 19.8477C38.0781 19.5482 38.8919 19.3984 39.7773 19.3984C40.819 19.3984 41.7044 19.6133 42.4336 20.043C43.1628 20.4596 43.7552 21.013 44.2109 21.7031C44.6667 22.3802 44.9987 23.1549 45.207 24.0273C45.4154 24.8867 45.5195 25.7656 45.5195 26.6641C45.5195 28.4349 45.2656 30.0299 44.7578 31.4492C44.25 32.8685 43.5273 34.099 42.5898 35.1406C41.6654 36.1693 40.5586 37.0026 39.2695 37.6406C37.9805 38.2786 36.5547 38.7018 34.9922 38.9102L34.7578 37.9141C37.2578 37.4062 39.1719 36.4622 40.5 35.082C41.8411 33.6888 42.6615 31.8138 42.9609 29.457ZM43.0586 28.4414L43.0781 28.207V27.4648C43.0781 27.0352 43.0586 26.5664 43.0195 26.0586C42.9805 25.5378 42.9089 25.0234 42.8047 24.5156C42.7135 23.9948 42.5768 23.4935 42.3945 23.0117C42.2122 22.5299 41.9779 22.1068 41.6914 21.7422C41.4049 21.3646 41.0534 21.0651 40.6367 20.8438C40.2331 20.6094 39.7578 20.4922 39.2109 20.4922C38.7031 20.4922 38.2604 20.5964 37.8828 20.8047C37.5182 21 37.2057 21.2734 36.9453 21.625C36.6979 21.9766 36.5091 22.3997 36.3789 22.8945C36.2617 23.3763 36.2031 23.9102 36.2031 24.4961C36.2031 25.1471 36.2747 25.7461 36.418 26.293C36.5742 26.8398 36.8021 27.3151 37.1016 27.7188C37.4141 28.1094 37.8047 28.4219 38.2734 28.6562C38.7552 28.8776 39.3216 28.9883 39.9727 28.9883C40.3112 28.9883 40.7344 28.9492 41.2422 28.8711C41.75 28.7799 42.3555 28.6367 43.0586 28.4414ZM56.2422 29.457C55.5651 29.8997 54.8815 30.2253 54.1914 30.4336C53.5143 30.6419 52.8503 30.7461 52.1992 30.7461C51.4961 30.7461 50.832 30.6289 50.207 30.3945C49.582 30.1471 49.0352 29.7956 48.5664 29.3398C48.0977 28.8841 47.7266 28.3307 47.4531 27.6797C47.1927 27.0286 47.0625 26.293 47.0625 25.4727C47.0625 24.5872 47.2057 23.7734 47.4922 23.0312C47.7917 22.2891 48.2018 21.651 48.7227 21.1172C49.2565 20.5703 49.888 20.1471 50.6172 19.8477C51.3594 19.5482 52.1732 19.3984 53.0586 19.3984C54.1003 19.3984 54.9857 19.6133 55.7148 20.043C56.444 20.4596 57.0365 21.013 57.4922 21.7031C57.9479 22.3802 58.2799 23.1549 58.4883 24.0273C58.6966 24.8867 58.8008 25.7656 58.8008 26.6641C58.8008 28.4349 58.5469 30.0299 58.0391 31.4492C57.5312 32.8685 56.8086 34.099 55.8711 35.1406C54.9466 36.1693 53.8398 37.0026 52.5508 37.6406C51.2617 38.2786 49.8359 38.7018 48.2734 38.9102L48.0391 37.9141C50.5391 37.4062 52.4531 36.4622 53.7812 35.082C55.1224 33.6888 55.9427 31.8138 56.2422 29.457ZM56.3398 28.4414L56.3594 28.207V27.4648C56.3594 27.0352 56.3398 26.5664 56.3008 26.0586C56.2617 25.5378 56.1901 25.0234 56.0859 24.5156C55.9948 23.9948 55.8581 23.4935 55.6758 23.0117C55.4935 22.5299 55.2591 22.1068 54.9727 21.7422C54.6862 21.3646 54.3346 21.0651 53.918 20.8438C53.5143 20.6094 53.0391 20.4922 52.4922 20.4922C51.9844 20.4922 51.5417 20.5964 51.1641 20.8047C50.7995 21 50.487 21.2734 50.2266 21.625C49.9792 21.9766 49.7904 22.3997 49.6602 22.8945C49.543 23.3763 49.4844 23.9102 49.4844 24.4961C49.4844 25.1471 49.556 25.7461 49.6992 26.293C49.8555 26.8398 50.0833 27.3151 50.3828 27.7188C50.6953 28.1094 51.0859 28.4219 51.5547 28.6562C52.0365 28.8776 52.6029 28.9883 53.2539 28.9883C53.5924 28.9883 54.0156 28.9492 54.5234 28.8711C55.0312 28.7799 55.6367 28.6367 56.3398 28.4414ZM69.5234 29.457C68.8464 29.8997 68.1628 30.2253 67.4727 30.4336C66.7956 30.6419 66.1315 30.7461 65.4805 30.7461C64.7773 30.7461 64.1133 30.6289 63.4883 30.3945C62.8633 30.1471 62.3164 29.7956 61.8477 29.3398C61.3789 28.8841 61.0078 28.3307 60.7344 27.6797C60.474 27.0286 60.3438 26.293 60.3438 25.4727C60.3438 24.5872 60.487 23.7734 60.7734 23.0312C61.0729 22.2891 61.4831 21.651 62.0039 21.1172C62.5378 20.5703 63.1693 20.1471 63.8984 19.8477C64.6406 19.5482 65.4544 19.3984 66.3398 19.3984C67.3815 19.3984 68.2669 19.6133 68.9961 20.043C69.7253 20.4596 70.3177 21.013 70.7734 21.7031C71.2292 22.3802 71.5612 23.1549 71.7695 24.0273C71.9779 24.8867 72.082 25.7656 72.082 26.6641C72.082 28.4349 71.8281 30.0299 71.3203 31.4492C70.8125 32.8685 70.0898 34.099 69.1523 35.1406C68.2279 36.1693 67.1211 37.0026 65.832 37.6406C64.543 38.2786 63.1172 38.7018 61.5547 38.9102L61.3203 37.9141C63.8203 37.4062 65.7344 36.4622 67.0625 35.082C68.4036 33.6888 69.224 31.8138 69.5234 29.457ZM69.6211 28.4414L69.6406 28.207V27.4648C69.6406 27.0352 69.6211 26.5664 69.582 26.0586C69.543 25.5378 69.4714 25.0234 69.3672 24.5156C69.276 23.9948 69.1393 23.4935 68.957 23.0117C68.7747 22.5299 68.5404 22.1068 68.2539 21.7422C67.9674 21.3646 67.6159 21.0651 67.1992 20.8438C66.7956 20.6094 66.3203 20.4922 65.7734 20.4922C65.2656 20.4922 64.8229 20.5964 64.4453 20.8047C64.0807 21 63.7682 21.2734 63.5078 21.625C63.2604 21.9766 63.0716 22.3997 62.9414 22.8945C62.8242 23.3763 62.7656 23.9102 62.7656 24.4961C62.7656 25.1471 62.8372 25.7461 62.9805 26.293C63.1367 26.8398 63.3646 27.3151 63.6641 27.7188C63.9766 28.1094 64.3672 28.4219 64.8359 28.6562C65.3177 28.8776 65.8841 28.9883 66.5352 28.9883C66.8737 28.9883 67.2969 28.9492 67.8047 28.8711C68.3125 28.7799 68.918 28.6367 69.6211 28.4414ZM124.562 36C124.341 36 124.068 35.9544 123.742 35.8633C123.43 35.7591 123.117 35.6224 122.805 35.4531C122.505 35.2708 122.238 35.0495 122.004 34.7891C121.77 34.5286 121.626 34.2292 121.574 33.8906C121.34 34.3854 121.066 34.7956 120.754 35.1211C120.454 35.4336 120.018 35.5898 119.445 35.5898C119.172 35.5898 118.898 35.5573 118.625 35.4922C118.352 35.4141 118.091 35.3229 117.844 35.2188C117.609 35.1016 117.395 34.9844 117.199 34.8672C117.004 34.737 116.848 34.6198 116.73 34.5156C116.574 34.6979 116.385 34.8802 116.164 35.0625C115.956 35.2318 115.715 35.388 115.441 35.5312C115.181 35.6745 114.888 35.7917 114.562 35.8828C114.237 35.974 113.879 36.0195 113.488 36.0195C112.941 36.0195 112.486 35.9805 112.121 35.9023C112.134 36.0195 112.141 36.1367 112.141 36.2539C112.154 36.3711 112.16 36.4883 112.16 36.6055C112.16 36.8659 112.141 37.1393 112.102 37.4258C112.076 37.7253 112.036 38.0182 111.984 38.3047C111.945 38.5911 111.893 38.8646 111.828 39.125C111.776 39.3854 111.724 39.6133 111.672 39.8086C111.398 40.7982 110.995 41.638 110.461 42.3281C109.94 43.0312 109.328 43.5977 108.625 44.0273C107.922 44.4701 107.147 44.7891 106.301 44.9844C105.467 45.1927 104.602 45.2969 103.703 45.2969C102.805 45.2969 102.043 45.1276 101.418 44.7891C100.806 44.4505 100.311 44.0078 99.9336 43.4609C99.556 42.9141 99.2826 42.2956 99.1133 41.6055C98.957 40.9284 98.8789 40.2448 98.8789 39.5547C98.8789 38.8385 98.944 38.1875 99.0742 37.6016C99.2174 37.0156 99.3737 36.5078 99.543 36.0781C99.7253 35.6484 99.9857 35.1536 100.324 34.5938L100.5 34.4961C100.591 34.4961 100.637 34.5547 100.637 34.6719C100.48 35.0365 100.357 35.3685 100.266 35.668C100.174 35.9674 100.09 36.3451 100.012 36.8008C99.9336 37.2695 99.8945 37.8359 99.8945 38.5C99.8945 39.138 100.012 39.7174 100.246 40.2383C100.493 40.7721 100.819 41.2279 101.223 41.6055C101.626 41.9961 102.089 42.2956 102.609 42.5039C103.13 42.7122 103.677 42.8164 104.25 42.8164C104.966 42.8164 105.689 42.7057 106.418 42.4844C107.16 42.276 107.844 42.0026 108.469 41.6641C109.094 41.3255 109.634 40.9544 110.09 40.5508C110.559 40.1471 110.884 39.7565 111.066 39.3789C111.066 38.7148 111.04 38.0964 110.988 37.5234C110.949 36.9635 110.871 36.4297 110.754 35.9219C110.65 35.4141 110.507 34.9323 110.324 34.4766C110.155 34.0078 109.94 33.5456 109.68 33.0898C109.693 32.8685 109.712 32.6341 109.738 32.3867C109.777 32.1263 109.823 31.8724 109.875 31.625C109.927 31.3776 109.986 31.1562 110.051 30.9609C110.129 30.7526 110.214 30.5898 110.305 30.4727C110.565 30.8633 110.799 31.2799 111.008 31.7227C111.229 32.1654 111.418 32.6146 111.574 33.0703C111.743 33.2396 111.991 33.3958 112.316 33.5391C112.655 33.6693 113.143 33.7344 113.781 33.7344C114.523 33.7344 115.122 33.5846 115.578 33.2852C116.047 32.9857 116.392 32.6081 116.613 32.1523C116.704 31.9701 116.809 31.7552 116.926 31.5078C117.043 31.2474 117.16 31.0065 117.277 30.7852C117.395 30.5508 117.512 30.3555 117.629 30.1992C117.746 30.0299 117.857 29.9453 117.961 29.9453C118.026 29.9453 118.065 30.0299 118.078 30.1992C118.091 30.3555 118.098 30.5508 118.098 30.7852C118.098 31.2279 118 31.7682 117.805 32.4062C117.857 32.4844 117.941 32.569 118.059 32.6602C118.189 32.7513 118.339 32.8424 118.508 32.9336C118.677 33.0247 118.859 33.1029 119.055 33.168C119.25 33.2201 119.439 33.2461 119.621 33.2461C119.96 33.2461 120.233 33.1094 120.441 32.8359C120.663 32.5625 120.897 32.1914 121.145 31.7227C121.236 31.5404 121.32 31.332 121.398 31.0977C121.49 30.8503 121.574 30.6224 121.652 30.4141C121.743 30.1927 121.835 30.0104 121.926 29.8672C122.017 29.724 122.115 29.6523 122.219 29.6523C122.284 29.6523 122.329 29.737 122.355 29.9062C122.382 30.0625 122.395 30.2318 122.395 30.4141C122.395 30.6354 122.375 30.8633 122.336 31.0977C122.31 31.319 122.271 31.5599 122.219 31.8203C122.31 32.1328 122.479 32.4128 122.727 32.6602C122.987 32.8945 123.267 33.0964 123.566 33.2656C123.866 33.4349 124.165 33.5651 124.465 33.6562C124.777 33.7344 125.031 33.7734 125.227 33.7734L124.562 36ZM125.5 24.9648C125.852 25.3555 126.125 25.7201 126.32 26.0586C126.529 26.3841 126.743 26.7747 126.965 27.2305C127.199 27.6862 127.408 28.1745 127.59 28.6953C127.785 29.2161 127.941 29.763 128.059 30.3359C128.189 30.8958 128.254 31.4492 128.254 31.9961C128.254 32.3216 128.228 32.6471 128.176 32.9727C128.137 33.2982 128.078 33.5977 128 33.8711C127.922 34.1445 127.837 34.3854 127.746 34.5938C127.655 34.8021 127.57 34.9518 127.492 35.043C127.453 35.0951 127.342 35.1732 127.16 35.2773C126.991 35.3815 126.776 35.4922 126.516 35.6094C126.255 35.7135 125.956 35.8047 125.617 35.8828C125.279 35.9609 124.927 36 124.562 36C124.263 36 124.035 35.8893 123.879 35.668C123.71 35.4336 123.625 35.1732 123.625 34.8867C123.625 34.6133 123.755 34.3594 124.016 34.125C124.276 33.8906 124.68 33.7734 125.227 33.7734C125.422 33.7734 125.637 33.7474 125.871 33.6953C126.105 33.6302 126.327 33.5586 126.535 33.4805C126.743 33.3893 126.984 33.2331 127.258 33.0117C127.258 32.6471 127.199 32.2565 127.082 31.8398C126.978 31.4232 126.841 31.013 126.672 30.6094C126.503 30.2057 126.314 29.8216 126.105 29.457C125.91 29.0794 125.728 28.7474 125.559 28.4609C125.389 28.1745 125.194 27.8359 124.973 27.4453C124.973 27.3672 124.992 27.1914 125.031 26.918C125.07 26.6445 125.116 26.3646 125.168 26.0781C125.22 25.7917 125.331 25.4206 125.5 24.9648ZM124.016 19.0469L125.988 20.3945L124.992 22.4453L123.039 21.0977L124.016 19.0469ZM139.113 36L138.312 36.0977C138.247 37.0352 138.098 37.9206 137.863 38.7539C137.629 39.5872 137.297 40.375 136.867 41.1172C136.633 41.5339 136.34 41.944 135.988 42.3477C135.637 42.7513 135.259 43.1159 134.855 43.4414C134.465 43.7669 134.068 44.0273 133.664 44.2227C133.26 44.431 132.889 44.5352 132.551 44.5352C131.861 44.418 131.294 44.3138 130.852 44.2227C130.409 44.1315 129.934 44.0273 129.426 43.9102C128.918 43.806 128.449 43.6953 128.02 43.5781C127.59 43.474 127.095 43.3047 126.535 43.0703L126.828 42.9922H127.922C128.286 42.9922 128.69 42.9727 129.133 42.9336C129.589 42.9076 130.064 42.8424 130.559 42.7383C131.053 42.6341 131.561 42.4909 132.082 42.3086C132.616 42.1393 133.143 41.9049 133.664 41.6055C134.81 40.8633 135.695 40.0169 136.32 39.0664C136.958 38.1289 137.382 37.1523 137.59 36.1367C137.16 36.1758 136.717 36.2018 136.262 36.2148C135.806 36.2279 135.331 36.2344 134.836 36.2344C134.419 36.2344 134.068 36.1758 133.781 36.0586C133.508 35.9544 133.286 35.8112 133.117 35.6289C132.948 35.4466 132.824 35.2318 132.746 34.9844C132.668 34.737 132.629 34.4766 132.629 34.2031C132.629 33.9427 132.655 33.6693 132.707 33.3828C132.759 33.0964 132.824 32.8229 132.902 32.5625C132.98 32.3021 133.059 32.0612 133.137 31.8398C133.228 31.6055 133.306 31.4167 133.371 31.2734C133.449 31.1172 133.547 30.9544 133.664 30.7852C133.794 30.6029 133.938 30.4401 134.094 30.2969C134.263 30.1536 134.445 30.0365 134.641 29.9453C134.836 29.8542 135.044 29.8086 135.266 29.8086C135.604 29.8086 135.897 29.8672 136.145 29.9844C136.405 30.1016 136.646 30.2578 136.867 30.4531C137.167 30.7396 137.46 31.1823 137.746 31.7812C138.046 32.3672 138.234 33.0703 138.312 33.8906L139.777 33.7734L139.113 36ZM136.555 33.9102C136.438 33.5456 136.307 33.2591 136.164 33.0508C136.034 32.8294 135.852 32.6276 135.617 32.4453C135.383 32.263 135.083 32.1719 134.719 32.1719C134.445 32.1719 134.224 32.2435 134.055 32.3867C133.885 32.5169 133.749 32.6667 133.645 32.8359C133.553 32.9922 133.482 33.207 133.43 33.4805C133.625 33.6237 133.853 33.7344 134.113 33.8125C134.374 33.8776 134.699 33.9102 135.09 33.9102H136.555ZM142.629 27.875C142.694 27.875 142.818 27.9857 143 28.207C143.182 28.4284 143.365 28.7279 143.547 29.1055C143.742 29.4701 143.911 29.9062 144.055 30.4141C144.198 30.9089 144.27 31.4362 144.27 31.9961C144.27 32.3216 144.243 32.6471 144.191 32.9727C144.152 33.2982 144.094 33.5977 144.016 33.8711C143.938 34.1445 143.853 34.3854 143.762 34.5938C143.671 34.8021 143.586 34.9518 143.508 35.043C143.469 35.0951 143.319 35.1732 143.059 35.2773C142.798 35.3815 142.466 35.4922 142.062 35.6094C141.672 35.7135 141.223 35.8047 140.715 35.8828C140.207 35.9609 139.68 36 139.133 36C138.508 35.9479 138.195 35.6224 138.195 35.0234C138.195 34.75 138.326 34.4766 138.586 34.2031C138.846 33.9167 139.25 33.7734 139.797 33.7734C140.122 33.7734 140.487 33.7474 140.891 33.6953C141.294 33.6302 141.672 33.5586 142.023 33.4805C142.375 33.4023 142.668 33.3242 142.902 33.2461C143.15 33.1549 143.273 33.0768 143.273 33.0117C143.247 32.7383 143.202 32.4909 143.137 32.2695C143.085 32.0482 143.007 31.8398 142.902 31.6445C142.811 31.4362 142.694 31.2344 142.551 31.0391C142.421 30.8307 142.271 30.6029 142.102 30.3555C142.102 30.2773 142.121 30.1016 142.16 29.8281C142.199 29.5547 142.245 29.2747 142.297 28.9883C142.349 28.7018 142.46 28.3307 142.629 27.875ZM143.156 22.1328L145.109 23.5L144.133 25.5508L142.16 24.1836L143.156 22.1328ZM139.914 22.7383L141.887 24.0859L140.891 26.1367L138.938 24.7891L139.914 22.7383ZM178.508 29.457C177.831 29.8997 177.147 30.2253 176.457 30.4336C175.78 30.6419 175.116 30.7461 174.465 30.7461C173.762 30.7461 173.098 30.6289 172.473 30.3945C171.848 30.1471 171.301 29.7956 170.832 29.3398C170.363 28.8841 169.992 28.3307 169.719 27.6797C169.458 27.0286 169.328 26.293 169.328 25.4727C169.328 24.5872 169.471 23.7734 169.758 23.0312C170.057 22.2891 170.467 21.651 170.988 21.1172C171.522 20.5703 172.154 20.1471 172.883 19.8477C173.625 19.5482 174.439 19.3984 175.324 19.3984C176.366 19.3984 177.251 19.6133 177.98 20.043C178.71 20.4596 179.302 21.013 179.758 21.7031C180.214 22.3802 180.546 23.1549 180.754 24.0273C180.962 24.8867 181.066 25.7656 181.066 26.6641C181.066 28.4349 180.812 30.0299 180.305 31.4492C179.797 32.8685 179.074 34.099 178.137 35.1406C177.212 36.1693 176.105 37.0026 174.816 37.6406C173.527 38.2786 172.102 38.7018 170.539 38.9102L170.305 37.9141C172.805 37.4062 174.719 36.4622 176.047 35.082C177.388 33.6888 178.208 31.8138 178.508 29.457ZM178.605 28.4414L178.625 28.207V27.4648C178.625 27.0352 178.605 26.5664 178.566 26.0586C178.527 25.5378 178.456 25.0234 178.352 24.5156C178.26 23.9948 178.124 23.4935 177.941 23.0117C177.759 22.5299 177.525 22.1068 177.238 21.7422C176.952 21.3646 176.6 21.0651 176.184 20.8438C175.78 20.6094 175.305 20.4922 174.758 20.4922C174.25 20.4922 173.807 20.5964 173.43 20.8047C173.065 21 172.753 21.2734 172.492 21.625C172.245 21.9766 172.056 22.3997 171.926 22.8945C171.809 23.3763 171.75 23.9102 171.75 24.4961C171.75 25.1471 171.822 25.7461 171.965 26.293C172.121 26.8398 172.349 27.3151 172.648 27.7188C172.961 28.1094 173.352 28.4219 173.82 28.6562C174.302 28.8776 174.868 28.9883 175.52 28.9883C175.858 28.9883 176.281 28.9492 176.789 28.8711C177.297 28.7799 177.902 28.6367 178.605 28.4414ZM191.789 29.457C191.112 29.8997 190.428 30.2253 189.738 30.4336C189.061 30.6419 188.397 30.7461 187.746 30.7461C187.043 30.7461 186.379 30.6289 185.754 30.3945C185.129 30.1471 184.582 29.7956 184.113 29.3398C183.645 28.8841 183.273 28.3307 183 27.6797C182.74 27.0286 182.609 26.293 182.609 25.4727C182.609 24.5872 182.753 23.7734 183.039 23.0312C183.339 22.2891 183.749 21.651 184.27 21.1172C184.803 20.5703 185.435 20.1471 186.164 19.8477C186.906 19.5482 187.72 19.3984 188.605 19.3984C189.647 19.3984 190.533 19.6133 191.262 20.043C191.991 20.4596 192.583 21.013 193.039 21.7031C193.495 22.3802 193.827 23.1549 194.035 24.0273C194.243 24.8867 194.348 25.7656 194.348 26.6641C194.348 28.4349 194.094 30.0299 193.586 31.4492C193.078 32.8685 192.355 34.099 191.418 35.1406C190.493 36.1693 189.387 37.0026 188.098 37.6406C186.809 38.2786 185.383 38.7018 183.82 38.9102L183.586 37.9141C186.086 37.4062 188 36.4622 189.328 35.082C190.669 33.6888 191.49 31.8138 191.789 29.457ZM191.887 28.4414L191.906 28.207V27.4648C191.906 27.0352 191.887 26.5664 191.848 26.0586C191.809 25.5378 191.737 25.0234 191.633 24.5156C191.542 23.9948 191.405 23.4935 191.223 23.0117C191.04 22.5299 190.806 22.1068 190.52 21.7422C190.233 21.3646 189.882 21.0651 189.465 20.8438C189.061 20.6094 188.586 20.4922 188.039 20.4922C187.531 20.4922 187.089 20.5964 186.711 20.8047C186.346 21 186.034 21.2734 185.773 21.625C185.526 21.9766 185.337 22.3997 185.207 22.8945C185.09 23.3763 185.031 23.9102 185.031 24.4961C185.031 25.1471 185.103 25.7461 185.246 26.293C185.402 26.8398 185.63 27.3151 185.93 27.7188C186.242 28.1094 186.633 28.4219 187.102 28.6562C187.583 28.8776 188.15 28.9883 188.801 28.9883C189.139 28.9883 189.562 28.9492 190.07 28.8711C190.578 28.7799 191.184 28.6367 191.887 28.4414ZM205.07 29.457C204.393 29.8997 203.71 30.2253 203.02 30.4336C202.342 30.6419 201.678 30.7461 201.027 30.7461C200.324 30.7461 199.66 30.6289 199.035 30.3945C198.41 30.1471 197.863 29.7956 197.395 29.3398C196.926 28.8841 196.555 28.3307 196.281 27.6797C196.021 27.0286 195.891 26.293 195.891 25.4727C195.891 24.5872 196.034 23.7734 196.32 23.0312C196.62 22.2891 197.03 21.651 197.551 21.1172C198.085 20.5703 198.716 20.1471 199.445 19.8477C200.188 19.5482 201.001 19.3984 201.887 19.3984C202.928 19.3984 203.814 19.6133 204.543 20.043C205.272 20.4596 205.865 21.013 206.32 21.7031C206.776 22.3802 207.108 23.1549 207.316 24.0273C207.525 24.8867 207.629 25.7656 207.629 26.6641C207.629 28.4349 207.375 30.0299 206.867 31.4492C206.359 32.8685 205.637 34.099 204.699 35.1406C203.775 36.1693 202.668 37.0026 201.379 37.6406C200.09 38.2786 198.664 38.7018 197.102 38.9102L196.867 37.9141C199.367 37.4062 201.281 36.4622 202.609 35.082C203.951 33.6888 204.771 31.8138 205.07 29.457ZM205.168 28.4414L205.188 28.207V27.4648C205.188 27.0352 205.168 26.5664 205.129 26.0586C205.09 25.5378 205.018 25.0234 204.914 24.5156C204.823 23.9948 204.686 23.4935 204.504 23.0117C204.322 22.5299 204.087 22.1068 203.801 21.7422C203.514 21.3646 203.163 21.0651 202.746 20.8438C202.342 20.6094 201.867 20.4922 201.32 20.4922C200.812 20.4922 200.37 20.5964 199.992 20.8047C199.628 21 199.315 21.2734 199.055 21.625C198.807 21.9766 198.618 22.3997 198.488 22.8945C198.371 23.3763 198.312 23.9102 198.312 24.4961C198.312 25.1471 198.384 25.7461 198.527 26.293C198.684 26.8398 198.911 27.3151 199.211 27.7188C199.523 28.1094 199.914 28.4219 200.383 28.6562C200.865 28.8776 201.431 28.9883 202.082 28.9883C202.421 28.9883 202.844 28.9492 203.352 28.8711C203.859 28.7799 204.465 28.6367 205.168 28.4414ZM218.352 29.457C217.674 29.8997 216.991 30.2253 216.301 30.4336C215.624 30.6419 214.96 30.7461 214.309 30.7461C213.605 30.7461 212.941 30.6289 212.316 30.3945C211.691 30.1471 211.145 29.7956 210.676 29.3398C210.207 28.8841 209.836 28.3307 209.562 27.6797C209.302 27.0286 209.172 26.293 209.172 25.4727C209.172 24.5872 209.315 23.7734 209.602 23.0312C209.901 22.2891 210.311 21.651 210.832 21.1172C211.366 20.5703 211.997 20.1471 212.727 19.8477C213.469 19.5482 214.283 19.3984 215.168 19.3984C216.21 19.3984 217.095 19.6133 217.824 20.043C218.553 20.4596 219.146 21.013 219.602 21.7031C220.057 22.3802 220.389 23.1549 220.598 24.0273C220.806 24.8867 220.91 25.7656 220.91 26.6641C220.91 28.4349 220.656 30.0299 220.148 31.4492C219.641 32.8685 218.918 34.099 217.98 35.1406C217.056 36.1693 215.949 37.0026 214.66 37.6406C213.371 38.2786 211.945 38.7018 210.383 38.9102L210.148 37.9141C212.648 37.4062 214.562 36.4622 215.891 35.082C217.232 33.6888 218.052 31.8138 218.352 29.457ZM218.449 28.4414L218.469 28.207V27.4648C218.469 27.0352 218.449 26.5664 218.41 26.0586C218.371 25.5378 218.299 25.0234 218.195 24.5156C218.104 23.9948 217.967 23.4935 217.785 23.0117C217.603 22.5299 217.368 22.1068 217.082 21.7422C216.796 21.3646 216.444 21.0651 216.027 20.8438C215.624 20.6094 215.148 20.4922 214.602 20.4922C214.094 20.4922 213.651 20.5964 213.273 20.8047C212.909 21 212.596 21.2734 212.336 21.625C212.089 21.9766 211.9 22.3997 211.77 22.8945C211.652 23.3763 211.594 23.9102 211.594 24.4961C211.594 25.1471 211.665 25.7461 211.809 26.293C211.965 26.8398 212.193 27.3151 212.492 27.7188C212.805 28.1094 213.195 28.4219 213.664 28.6562C214.146 28.8776 214.712 28.9883 215.363 28.9883C215.702 28.9883 216.125 28.9492 216.633 28.8711C217.141 28.7799 217.746 28.6367 218.449 28.4414Z" fill="white"/>
</svg>
